<svg width="24" height="24" fill="none" xmlns="http://www.w3.org/2000/svg"><path d="M17.238 2.348a1 1 0 00-1.396.222l-.837 1.155c-1.035 1.428-2.422 2.463-4.396 2.849-.633.113-1.26.35-1.77.746a.06.06 0 01-.073.002.06.06 0 00-.084.013l-.405.559-.003.005-4.839 6.674-1.32 1.822a.75.75 0 00.167 1.047l7.287 5.284a.749.749 0 001.046-.167l.001-.002c.019-.025.854-1.188 1.314-1.822h.004l.004-.001 5.242-7.23a.067.067 0 00-.015-.094.068.068 0 01-.024-.077c.209-.606.238-1.273.154-1.905-.246-1.988.311-3.625 1.34-5.043l.85-1.173a1 1 0 00-.222-1.397l-2.025-1.467zm-.71 1.832a.4.4 0 01.559-.09l.567.411a.4.4 0 01.089.559l-.323.445c-.306.422-.562.88-.789 1.356a.411.411 0 01-.61.162l-.83-.602a.411.411 0 01-.034-.632 8.39 8.39 0 001.063-1.184l.308-.425zm-3.24 3.006a.412.412 0 01.437.026l1.997 1.447c.129.093.189.254.16.41-.15.801-.188 1.655-.076 2.546v.01a1.725 1.725 0 01.013.154c.015.285-.317.426-.548.259L10.654 8.69c-.236-.172-.203-.536.08-.61.049-.012.098-.023.147-.031a.014.014 0 00.009-.006.015.015 0 01.01-.006 8.179 8.179 0 002.387-.852zm-4.471 2.52a.4.4 0 01.558-.09l5.421 3.93c.18.13.22.384.087.563-.6.813-1.55 2.117-2.647 3.638l-.409.564a.4.4 0 01-.558.089l-5.415-3.926a.4.4 0 01-.09-.559l3.053-4.21zm3.221 4.237a.4.4 0 00-.33-.46l-2.52-.416a.4.4 0 00-.46.33l-.112.684a.4.4 0 00.33.46l2.52.415a.4.4 0 00.46-.33l.112-.683zm-7.623 1.835a.4.4 0 01.558-.09l5.42 3.93a.4.4 0 01.09.558l-.404.559a.41.41 0 01-.57.094l-5.416-3.926a.4.4 0 01-.09-.558l.412-.567z" fill="#2051A3" stroke="#2051A3" stroke-width=".1"/></svg>