<svg width="32" height="32" fill="none" xmlns="http://www.w3.org/2000/svg"><path d="M19.24 25.638c-.662 0-1.323-.066-1.984-.133a16.952 16.952 0 01-12.496-9.12l-.396-.866a6.682 6.682 0 01-.199-5.725l.33-.866.662.267-.33.865a6.298 6.298 0 00.198 5.126l.396.866c2.315 4.66 6.81 7.922 11.901 8.72 2.182.334 4.43.068 6.48-.731l1.058-.4c.264-.133.462-.333.528-.599.066-.333-.132-.666-.462-.866l-1.389-.665c-.396-.2-.86-.4-1.256-.533l.264-.666c.463.2.926.333 1.323.6l1.388.665c.595.333.926.932.794 1.598-.067.533-.463.999-.926 1.198l-1.058.4c-1.587.532-3.173.865-4.826.865zM27.835 14.587l-.463-.532c.529-.4.992-.932 1.454-1.398l.728-.866a.712.712 0 00.132-.799c-.132-.333-.397-.532-.793-.532h-1.521c-.992 0-1.984.133-2.975.4l-3.901.998c-3.636.932-7.603.599-11.041-.932l.264-.666a16.513 16.513 0 0010.579.932l3.9-.999c.992-.266 2.05-.399 3.108-.399h1.52c.662 0 1.257.4 1.455 1.065.132.533.066 1.065-.33 1.465l-.728.865c-.264.466-.793.999-1.388 1.398z" fill="#2051A3"/><path d="M19.041 21.244c-3.57 0-7.074-1.131-9.983-3.328-1.256-.932-2.314-2.264-2.91-3.728-.528-1.265-.726-2.597-.66-3.928l.132-1.265.727.066-.132 1.199a8.409 8.409 0 00.595 3.595c.595 1.398 1.52 2.596 2.71 3.462a16.158 16.158 0 0011.902 2.995l2.776-.399a12.416 12.416 0 005.95-2.663l.86-.732c.199-.2.33-.466.265-.733a.852.852 0 00-.661-.665l-1.521-.267c-.992-.133-1.983-.2-2.975-.133l-3.967.333c-4.298.333-8.53-.932-11.901-3.662-.33-.2-.595-.466-.86-.732L7.471 8.662l-.264-1.864c-.066-.266-.199-.533-.397-.666-.198-.066-.529-.133-.727 0l-.662.2c-.33.066-.528.466-.528.799l.264 1.864-.661.133-.265-1.864c-.132-.732.265-1.398.992-1.664l.595-.2a1.983 1.983 0 011.389.133c.396.266.66.666.727 1.132l.264 1.598 1.72 1.93c.198.267.462.466.727.666 3.24 2.596 7.272 3.795 11.372 3.462l3.966-.333c1.058-.067 2.116-.067 3.174.133l1.52.266c.662.133 1.19.666 1.257 1.332a1.573 1.573 0 01-.529 1.398l-.86.732c-1.785 1.465-3.967 2.463-6.28 2.796l-2.777.4c-.794.133-1.653.2-2.447.2z" fill="#2051A3"/><path d="M15.074 18.182c-.198 0-.396 0-.529-.066l-1.057-.333c-.926-.333-1.455-1.265-1.124-2.197a1.678 1.678 0 012.181-1.132l1.058.333c.463.133.794.466.992.865.198.4.265.866.132 1.332-.132.466-.462.799-.86.998-.264.2-.528.2-.793.2zm-1.057-3.129c-.463 0-.86.267-.992.733-.199.532.132 1.131.66 1.331l1.059.333c.264.067.529.067.793-.067.265-.133.397-.332.53-.599.065-.266.065-.532-.067-.799-.132-.266-.33-.4-.595-.532l-1.058-.333c-.132 0-.264-.067-.33-.067zM2.079 16.742L.02 17.808l.333.651 2.057-1.065-.332-.652zM13.578 5.86l-.734 2.21.69.232.734-2.21-.69-.232zM22.874 6.41L21.23 8.05l.512.52 1.644-1.64-.512-.52zM7.055 23.457l-.707 2.219.693.223.706-2.219-.692-.223zM11.174 15.12l-1.918-1.398c-.992-.733-1.851-1.731-2.38-2.863l-.198-.4.66-.332.2.399c.528.998 1.255 1.93 2.181 2.596l1.851 1.398-.396.6zM19.24 13.322l-.199-.732 5.422-1.265c.661-.2 1.388-.266 2.115-.333l1.786-.133.066.666-1.785.133c-.662.066-1.323.133-1.984.333l-5.421 1.331zM5.355 9.727a.94.94 0 01-.793-.4l.595-.399c.066.133.198.133.264.133.067 0 .133 0 .199-.133l.132-.333.33.133.331.134c.33.133.794.066.992-.267l.132-.2.595.467-.132.2c-.463.532-1.19.732-1.851.465h-.066c-.199 0-.397.133-.595.133-.067.067-.133.067-.133.067zM31.074 17.45l-.66-.333.131-.266c.199-.4.265-.866.133-1.265l-.133-.466.728-.2.132.466c.132.6.066 1.198-.198 1.73l-.133.334zM29.686 11.924l-.33-.732c-.133-.2-.199-.4-.397-.6l-.265-.332.595-.466.265.333c.198.266.33.532.463.799l.33.732-.661.266zM25.124 24.108l-.661-.267.33-.799c0-.066.067-.133.067-.266s0-.2-.067-.333l-.33-.732.661-.333.33.732c.067.2.133.4.133.666 0 .2 0 .333-.066.533l-.397.799z" fill="#2051A3"/></svg>