<svg width="24" height="24" fill="none" xmlns="http://www.w3.org/2000/svg"><path d="M16.94 2c-1.234 0-2.187.285-2.919.748-.615.39-1.023.855-1.453 1.299-.997.045-2.046.232-2.933.926-.839.656-1.313 1.797-1.485 3.191-1.068.174-2.063.573-2.773 1.35-.785.859-1.181 2.062-1.287 3.412-.286.13-.42.112-.787.469C2.625 14.053 2 15.212 2 16.887c0 1.172.332 2.535 1.45 3.46.65.615 1.61.751 2.429.551.838-.204 1.657-.659 2.545-1.271 1.776-1.224 3.806-3.124 5.986-5.266l.004-.002.004-.004c1.745-1.748 3.335-3.359 4.525-4.853C20.133 8.008 21 6.635 21 5.131c0-1.06-.679-1.896-1.451-2.389A4.869 4.869 0 0016.939 2zm0 2c.525 0 1.138.177 1.535.43.396.253.525.483.525.7 0 .627-.538 1.766-1.621 3.126-1.084 1.36-2.638 2.944-4.377 4.687-2.152 2.114-4.157 3.963-5.715 5.037-.78.538-1.454.87-1.883.975-.429.105-.477.066-.591-.049l-.04-.039-.043-.035c-.544-.436-.73-1.09-.73-1.945 0-1.024.268-1.551.545-1.883 1.05.022 2.4.828 2.4.828l1.11-1.664s-.842-.602-2.035-.941c.05-1.072.366-1.853.834-2.364.469-.513 1.106-.802 1.943-.845a6.069 6.069 0 012.648.814l1.11-1.664s-.997-.672-2.496-.996c.12-.87.427-1.327.806-1.623C11.351 6.169 12.115 6 13 6c.833 0 1.422.204 1.803.395.38.19.49.312.49.312l1.414-1.414s-.39-.378-1.01-.688a5.382 5.382 0 00-.51-.22c.4-.233.869-.385 1.752-.385z" fill="#2051A3"/></svg>