<svg width="32" height="32" fill="none" xmlns="http://www.w3.org/2000/svg"><g clip-path="url(#clip0)"><g clip-path="url(#clip1)" fill="#2051A3"><path d="M32.2 22.9l-.9-.7.2-.2 2.9-3.6.9.7-3.1 3.8zM9.2 35.3c-1.9 0-3.7-.4-5.4-1.2-2.2-1-3.6-3.2-3.8-5.6-.2-2.9 1.5-5.6 4.2-6.7l.4 1c-2.3.9-3.7 3.2-3.5 5.6.1 2 1.4 3.8 3.2 4.7 1.8.9 3.8 1.2 5.7 1.1l.1 1.1h-.9zM12.2 21l-.2-1.1 1.2-.3c3.2-.7 6.3-2 9.2-3.7l4.7-2.9.6.9-4.8 2.9c-2.9 1.8-6.1 3.1-9.5 3.8l-1.2.4zM19.2 21.4l-.4-1c.3-.1.6-.3.9-.4l.5 1c-.3.1-.6.2-1 .4zM25.612 16.565l-3.676 2.231.571.94 3.676-2.23-.571-.94z"/><path d="M34.9 36.4c-.3 0-.6 0-.9-.1l-7.5-1c-3.1-.4-6.3-.3-9.4.3l-.1-1c3.2-.6 6.5-.7 9.7-.3l7.5 1c2.6.3 5-1.2 5.8-3.8.5-1.8 0-3.8-1.3-5.2-1.9-1.9-4.3-3.1-7-3.2h-1.1l-6.1.2c-3.7.1-7.3 1-10.7 2.5-.1 0-.3.1-.5.2l-.5-1 .6-.3c3.5-1.6 7.2-2.5 11.1-2.6l6.1-.2h1.3c2.9.2 5.7 1.5 7.7 3.6 1.6 1.6 2.2 4 1.6 6.3-1 2.8-3.5 4.6-6.3 4.6z"/><path d="M35.1 26.6c-1.2-.8-2.7-1.3-4.1-1.4h-.9l-2.9.1v-1.1l2.9-.1h1c1.7.1 3.3.7 4.7 1.6l-.7.9zM30.4 20.2c-.2 0-.4-.1-.6-.2-.2-.2-.3-.5-.2-.7l.5-2c.1-.2-.1-.4-.1-.4-.1-.1-.2-.2-.4-.1H29c-.8.2-1.7-.1-2.2-.8-.5-.7-.6-1.6-.2-2.3l.4-.6 2-1.2c1.8-1.1 4.1-.9 5.8.5 2 1.7 2.2 4.7.5 6.7l-.1.2-4.6.9h-.2zm-.6-4.6c.4 0 .8.2 1.1.5.4.4.5.9.4 1.4l-.4 1.5 3.7-.7c1.2-1.6 1-3.8-.5-5.1-1.2-1.1-3-1.3-4.5-.4l-1.7 1-.2.4c-.2.4-.2.8.1 1.1.3.3.7.5 1.1.4l.7-.2c0 .1.1.1.2.1zM7.9 24.6c-2.6 0-4.7-2.1-4.7-4.7 0-.7.1-1.4.4-2l4.3-9.3 4.3 9.3c.3.6.4 1.3.4 2 0 2.6-2.1 4.7-4.7 4.7zm0-13.4l-3.3 7.1c-.2.5-.3 1-.3 1.5 0 2 1.6 3.6 3.6 3.6s3.6-1.6 3.6-3.6c0-.5-.1-1-.3-1.5l-3.3-7.1zM17.7 14.9c-1.6 0-2.9-1.3-2.9-2.9 0-.4.1-.8.3-1.2L17.7 5l2.7 5.7c.2.4.3.8.3 1.2 0 1.7-1.3 3-3 3zm0-7.3L16 11.2c0 .2-.1.5-.1.8 0 1 .8 1.8 1.8 1.8s1.8-.8 1.8-1.8c0-.3-.1-.5-.2-.8l-1.6-3.6z"/><path d="M29.4 14.8l-.5-1 1.1-.5c1.4-.7 2.9-1 4.4-1.1v1.1c-1.4 0-2.7.4-3.9 1l-1.1.5zM13.5 36.6c-2.1 0-4.1-1.2-5-3.2-1.2-2.6-.2-5.8 2.3-7.2.9-.5 1.6-.9 2-1.1l.2-.1 4.3 2.2c.4.2.6.5.7.9 0 .4-.1.8-.4 1.1L16 30.5c-.2.2-.4.5-.4.7 0 .3.1.6.2.8l1.3 1.5c.3.4.6.9.7 1.4l.1.5-.6.1-2 .7c-.7.3-1.3.4-1.8.4zM13 26.2c-.4.2-1 .6-1.8 1-2 1.1-2.8 3.7-1.8 5.8 1 2 3.3 3 5.4 2.3l1.7-.5c-.1-.1-.2-.3-.3-.4l-1.3-1.5c-.4-.5-.6-1-.5-1.6.1-.6.3-1.1.8-1.5l1.6-1.3v-.1s0-.1-.1-.1L13 26.2z"/><path d="M9.4 33.5l-.9-.6.2-.2c1.2-1.7 2.8-3 4.6-3.9l.5 1c-1.7.8-3.1 2-4.2 3.6l-.2.1z"/></g></g><defs><clipPath id="clip0"><path fill="#fff" d="M0 0h32v32H0z"/></clipPath><clipPath id="clip1"><path fill="#fff" transform="translate(0 5)" d="M0 0h41.3v31.6H0z"/></clipPath></defs></svg>