<svg width="18" height="18" fill="none" xmlns="http://www.w3.org/2000/svg"><path fill-rule="evenodd" clip-rule="evenodd" d="M8.308.77a5.866 5.866 0 00-2.646 1.023c-.397.28-1.066.948-1.35 1.349-.266.373-.643 1.115-.774 1.523-.52 1.617-.344 3.24.59 5.424.832 1.947 2.416 4.419 4.283 6.683.547.663.62.669 1.107.086 1.268-1.516 2.607-3.443 3.491-5.027 1.289-2.308 1.878-4.322 1.72-5.875a5.51 5.51 0 00-.59-2.045 5.138 5.138 0 00-1.08-1.49 5.139 5.139 0 00-1.49-1.079A5.602 5.602 0 008.308.769zm1.677.764c.647.132 1.27.39 1.83.761.42.278 1.092.95 1.37 1.37a5.11 5.11 0 01.81 3.495c-.271 2.04-1.64 4.789-3.885 7.796-.528.708-1.065 1.375-1.107 1.375-.036 0-.506-.571-.941-1.146-2.079-2.742-3.507-5.429-3.95-7.429-.333-1.508-.098-2.88.703-4.09.278-.42.95-1.093 1.37-1.371.696-.46 1.357-.7 2.308-.836.239-.034 1.19.014 1.492.075zM6.48 7.02v2.34h5.04V4.68H6.48v2.34zm4.32 0v1.62H7.2V5.4h3.6v1.62zm-2.724-.849a.41.41 0 00-.189.31c0 .11.092.256.196.31.078.04.246.05.91.05.793 0 .818-.003.926-.075a.344.344 0 00.14-.392.367.367 0 00-.14-.18c-.108-.072-.131-.074-.932-.073-.663.001-.839.011-.911.05z" fill="#2051A3"/><path fill-rule="evenodd" clip-rule="evenodd" d="M8.296.673a5.699 5.699 0 013.316.582c.614.307 1.01.594 1.514 1.098.504.505.792.9 1.098 1.515a5.61 5.61 0 01.601 2.078c.161 1.582-.44 3.617-1.732 5.932-.887 1.59-2.23 3.522-3.501 5.041-.121.145-.222.26-.314.338-.091.077-.188.13-.299.12-.107-.008-.203-.071-.299-.16a4.188 4.188 0 01-.344-.384c-1.87-2.269-3.46-4.748-4.297-6.706-.94-2.197-1.123-3.845-.593-5.492.135-.418.516-1.169.787-1.55.29-.409.967-1.084 1.373-1.37m5.92-.287A5.506 5.506 0 008.319.865a5.77 5.77 0 00-2.602 1.007c-.388.273-1.048.933-1.327 1.326-.26.365-.632 1.098-.76 1.496-.511 1.588-.342 3.186.586 5.357.828 1.936 2.406 4.4 4.27 6.659.136.166.24.286.325.366.088.08.143.107.183.11.036.002.083-.012.16-.076.076-.065.167-.168.29-.314 1.265-1.511 2.6-3.434 3.48-5.012 1.286-2.302 1.864-4.294 1.71-5.818a5.415 5.415 0 00-.582-2.012A5.045 5.045 0 0012.99 2.49c-.49-.49-.87-.765-1.464-1.062zm-2.316.13a5.21 5.21 0 00-.704-.003c-.938.134-1.586.37-2.268.82a5.22 5.22 0 00-.723.62 5.22 5.22 0 00-.62.724C4.11 4.906 3.878 6.25 4.206 7.735c.438 1.98 1.857 4.654 3.932 7.392.217.286.443.571.618.785a8.664 8.664 0 00.247.289l.044-.05c.063-.071.15-.175.252-.303.205-.254.47-.597.734-.95 2.241-3.003 3.598-5.735 3.865-7.75a5.014 5.014 0 00-.794-3.43 5.224 5.224 0 00-.62-.723 5.218 5.218 0 00-.723-.62 5.097 5.097 0 00-1.795-.746 6.467 6.467 0 00-.756-.072zm.01-.194c.305.016.625.043.784.076a5.29 5.29 0 011.864.774c.217.145.496.387.753.644.257.258.5.536.644.754a5.207 5.207 0 01.824 3.56c-.273 2.066-1.654 4.83-3.902 7.841-.264.355-.531.7-.738.956-.103.128-.191.235-.257.31a1.963 1.963 0 01-.115.12.174.174 0 01-.02.014c-.006.003-.026.014-.054.014a.106.106 0 01-.051-.014.358.358 0 01-.05-.04 1.673 1.673 0 01-.072-.076 8.566 8.566 0 01-.223-.262 26.69 26.69 0 01-.622-.792c-2.082-2.746-3.52-5.446-3.967-7.466-.339-1.533-.1-2.931.716-4.165.144-.218.387-.496.644-.754a5.4 5.4 0 01.754-.644c.71-.469 1.384-.713 2.347-.85.13-.019.437-.015.74 0zm-2.837 3.22h5.233v4.872H6.383V4.583zm.193.192v4.487h4.847V4.776H6.576zm.527.527h3.793v3.433H7.103V5.303zm.193.193v3.047h3.407V5.496H7.296zm2.576.565a.462.462 0 01.28.287.44.44 0 01-.18.498.415.415 0 01-.1.053.605.605 0 01-.151.027c-.124.01-.334.01-.728.01-.331 0-.542-.002-.68-.01-.134-.007-.215-.02-.275-.05a.473.473 0 01-.174-.168.445.445 0 01-.073-.228c0-.078.03-.16.071-.225a.473.473 0 01.168-.169c.058-.031.141-.043.274-.05.14-.008.352-.01.683-.011.398 0 .609 0 .733.009.063.005.11.013.152.027zm-.167.165c-.114-.009-.315-.01-.718-.008-.332 0-.539.003-.672.01-.138.008-.179.02-.193.028a.284.284 0 00-.095.1.264.264 0 00-.044.124c0 .031.015.078.045.125s.066.083.099.1c.018.01.06.022.196.029.132.007.338.01.67.01.4 0 .598-.001.712-.01a.425.425 0 00.104-.017.23.23 0 00.056-.031.248.248 0 00.101-.285.273.273 0 00-.101-.127" fill="#2051A3"/></svg>