<svg width="28" height="28" fill="none" xmlns="http://www.w3.org/2000/svg"><path fill-rule="evenodd" clip-rule="evenodd" d="M20.264 1.711l-1.55.628-.957.955-.957.956v2.473l-.547-.014-.548-.014-.025-.366c-.03-.422-.146-.625-.4-.698-.419-.12-.72.18-.72.715v.323h-.42c-.231 0-.609.015-.84.033l-.42.033v-.356c0-.286-.023-.39-.116-.528a.528.528 0 00-.889 0c-.093.139-.115.241-.115.537v.367l-.878.06c-.483.034-.987.075-1.12.091l-.242.03V6.48c0-.391-.017-.483-.115-.63a.534.534 0 00-.873-.03c-.088.118-.111.24-.132.685l-.025.541-.993.14c-.545.077-1.043.153-1.107.169-.114.028-.115.024-.115-.5 0-.29-.025-.598-.055-.684-.144-.414-.789-.448-.993-.054-.051.1-.072.33-.072.8v.661l-.293.058c-.16.032-.74.163-1.285.292-.546.128-1.045.244-1.107.257-.115.023-.115.021-.115-.65v-.672l-.173-.174c-.095-.095-.221-.173-.28-.173-.102 0-.107.026-.107.546v.545l-.28-.276-.28-.277v9.687c0 10.645-.023 9.893.304 10.062.132.068 1.568.077 12.576.077 11.008 0 12.444-.009 12.576-.077.328-.17.304.725.304-11.465V4.25l-.98-.973-.98-.973-1.502-.598c-.826-.329-1.525-.603-1.553-.61-.028-.007-.748.27-1.601.615zM23.1 2.775l1.208.484.726.724.726.725v4.704l-.166-.025a14.29 14.29 0 00-.547-.06l-.382-.036-.025-1.655c-.027-1.783-.033-1.819-.305-1.96-.223-.114-4.768-.114-4.991.001-.29.15-.304.233-.304 1.83V8.96h-.17c-.094 0-.346-.015-.56-.033l-.39-.033V4.708l.725-.722.726-.721 1.196-.482c.658-.266 1.225-.485 1.26-.487.036-.003.608.213 1.273.479zm-1.527.665c-.152.083-.293.313-.293.48 0 .27.29.56.56.56.27 0 .56-.29.56-.56 0-.173-.143-.4-.304-.483a.507.507 0 00-.523.003zm1.947 4.502v1.222h-.165c-.091-.001-.67-.035-1.286-.076a35.315 35.315 0 00-1.514-.076l-.395-.001V6.72h3.36v1.222zm-6.72.356v.611h-1.12V7.786l.535.034c.476.031.534.026.534-.049 0-.046.012-.084.026-.084.014 0 .025.275.025.611zm-2.24.098v.606l-.395.035c-.217.019-.543.054-.725.08-.615.083-.56.143-.56-.607 0-.36.015-.668.034-.687.018-.019.396-.034.84-.034h.806v.607zm-2.8.226v.731l-.573.113c-.315.062-.794.168-1.065.236a7.092 7.092 0 01-.548.123c-.036 0-.054-.291-.054-.887v-.887l.267-.032a22.435 22.435 0 011.63-.121l.343-.007v.73zm-3.372.522l-.013.998-1.108.317-1.107.316v-1.13c0-1.132 0-1.132.115-1.16a62.758 62.758 0 012.088-.334c.021-.003.033.444.025.993zm-3.348.81V11.2l-.216.085c-.368.145-1.567.76-2.061 1.057a6.414 6.414 0 01-.496.282c-.015 0-.027-.731-.027-1.625V9.374l.286-.083c.157-.045.62-.16 1.03-.253a87.116 87.116 0 011.446-.327c.02-.003.038.556.038 1.242zM19 10.06l.188.031-.545.397c-2.112 1.536-4.758 4.098-6.808 6.591-1.743 2.121-3.997 5.628-5.195 8.082l-.292.598H2.24V21.249l.29-.354c3.416-4.17 8.178-7.89 13.328-10.416l.916-.45h1.019c.56.001 1.103.015 1.206.032zm-5.051.142c0 .011-.223.14-.496.287-3.83 2.055-7.974 5.358-10.946 8.726l-.267.302v-5.5l.624-.41c1.55-1.024 3.079-1.674 5.307-2.256.448-.117 1.095-.29 1.437-.384 1.37-.375 4.341-.899 4.341-.765zm8.8.055c.01.011-.268.347-.619.748-3.48 3.98-5.956 8.062-7.84 12.921-.211.546-.449 1.182-.528 1.413l-.144.42h-6.04l.368-.7c2.118-4.019 4.322-7.064 7.3-10.085 1.94-1.968 3.722-3.455 5.423-4.524l.433-.272.813.03c.448.017.823.039.833.05zm2.383.213c.245.02.37.051.355.088-.013.03-.234.525-.493 1.1a78.38 78.38 0 00-2.66 6.795c-.864 2.545-1.241 3.804-1.767 5.906l-.344 1.375-2.704.013c-1.488.007-2.704-.006-2.704-.03 0-.022.168-.486.375-1.03 1.467-3.87 3.234-7.104 5.632-10.309.988-1.318 2.157-2.72 3.027-3.63l.358-.374.274.032c.15.017.443.046.651.064zm.628 8.773v6.516h-2.19c-1.56 0-2.188-.016-2.188-.056 0-.104.568-2.302.841-3.253.732-2.55 1.931-5.96 2.99-8.502l.481-1.158c.014-.035.035-.064.046-.064.01 0 .02 2.933.02 6.517z" fill="#2051A3"/></svg>