<svg width="24" height="24" fill="none" xmlns="http://www.w3.org/2000/svg"><path d="M15.557 4.004c-.789.022-1.634.139-2.52.393-1.932-.845-4.577.044-4.982.154l-.088.047c-.177.097-.393.327-.43.459-.164.313-.097.612.057.863l.713 1.174C6.93 8.517 6.292 9.983 5.942 10.957c-1.155-.151-2.73-.408-4.412.512-.531.29-.68.819-.374 1.322l4.09 6.705c.307.503.866.646 1.397.356 1.77-.968 2.374-2.304 2.724-3.278 1.015.116 2.207.135 3.348.07l.621 2.567c.116.384.358.587.777.693.28.071.596.01.95-.183l3.007-2.426c1.226-.894 1.638-2.349 1.188-3.668 3.459-3.232 2.704-7.178 2.602-7.346a.823.823 0 00-.358-.588c-.154-.096-2.527-1.785-5.945-1.69zm-.026 1.87c2.123-.077 3.73.742 4.407 1.126.106.948.04 3.552-2.575 5.652-.39.325-.45.808-.195 1.227.41.67.184 1.463-.334 1.969l-1.832 1.449-.49-1.969c-.167-.468-.601-.789-1.146-.715-1.864.236-3.474.112-4.452-.136-.558-.142-1 .1-1.2.544-.038.132-.113.396-.24.577-.186.66-.374 1.322-1.07 1.925L3.49 12.744c.81-.22 1.51-.043 2.297.086.28.071.507.059.698.178.228-.013.455-.025.634-.12a.888.888 0 00.467-.59c.15-.527.712-2.512 2.707-4.273.391-.325.452-.805.196-1.224l-.46-.754c.863-.136 1.776-.188 2.348.17a.803.803 0 00.875.08 7.958 7.958 0 012.28-.424z" fill="#2051A3"/><circle cx="17" cy="8" r="1" fill="#2051A3"/></svg>