<svg width="24" height="24" fill="none" xmlns="http://www.w3.org/2000/svg"><path d="M16.8 1.396l-1.601 1.2s.443.596.674 1.52c.207.83.244 1.818-.428 2.913C13.055 5.1 10.665 5 10.665 5l-.585-.012-.297.504s-2.097 3.555-4.102 7.215c-1.002 1.83-1.98 3.684-2.673 5.158-.347.737-.62 1.372-.8 1.903-.088.265-.157.498-.19.757-.034.26-.155.65.326 1.131.48.48.871.36 1.13.326.26-.034.493-.102.758-.191.53-.178 1.166-.452 1.903-.799 1.474-.693 3.328-1.673 5.158-2.676a300.913 300.913 0 007.215-4.101l.507-.299-.015-.59s-.112-2.363-2.026-4.756c2.364-1.343 4.502.032 4.502.032l1.047-1.704s-1.332-.775-3.15-.857l2.334-2.334-1.414-1.414-2.325 2.324a6.03 6.03 0 00-.154-.986c-.332-1.329-1.013-2.235-1.013-2.235zm-5.638 5.715c.61.073 1.974.334 3.676 2.045 1.7 1.711 1.97 3.07 2.047 3.682l-1.602.932c-.26-.521-.595-1.12-1.094-1.786l-1.6 1.2c.465.618.757 1.146.963 1.57-.985.56-1.985 1.132-3.22 1.809-1.812.992-3.646 1.96-5.047 2.619-.335.157-.532.224-.809.341.118-.276.185-.473.342-.808.567-1.206 1.375-2.744 2.219-4.3.267.26.56.57.889 1l1.587-1.218a10.5 10.5 0 00-1.488-1.576 297.092 297.092 0 013.137-5.51z" fill="#2051A3"/></svg>