<svg width="18" height="18" fill="none" xmlns="http://www.w3.org/2000/svg"><path d="M11.158 2.358V3.631h-.476c-.265 0-.415 0-.496.01a.393.393 0 00-.059.01.157.157 0 00-.062.03.118.118 0 00-.042.085.144.144 0 00.01.057s0 0 0 0l1.125-1.465zm0 0l-3.426.002c-1.69.001-2.573.002-3.063.01l6.489-.012zm2.458 0v7.623l-.12-.024-.106-.021h0c-.303-.06-.565-.088-.7-.077l.926-7.5zm0 0H14.89V10.8l.019.026.161.221.08-.058-.08.058c.343.473.573 1.112.573 1.573v.245H17.9v1.272h-2.623l-.03.047-.097.156c-.07.112-.213.277-.375.438-.162.161-.334.31-.46.393a2.831 2.831 0 01-3.131-.005l-.056.083.056-.083a3.34 3.34 0 01-.822-.812l-.111-.17-.03-.046H5.683l-.029.05-.122.213h0c-.147.256-.478.609-.756.804l.057.082-.057-.082a2.495 2.495 0 01-1.9.388 2.557 2.557 0 01-1.99-2.09c-.013-.08-.022-.318-.026-.782-.005-.459-.005-1.13-.001-2.07l.01-2.592.084-.136s0 0 0 0a.747.747 0 01.227-.227h0a.404.404 0 01.168-.074c.073-.012.186-.016.427-.022l.485-.011.098-.003V5.86c0-1.525.005-1.636.062-1.862h0c.105-.415.254-.674.579-.999.32-.32.581-.473.986-.577l9.631-.064zm-7.068 5.56l.023.058.06.157c.05.132.117.318.2.543.164.451.383 1.06.618 1.716l.855 2.39.023.065h.07l.672.01.673.008.093.001.008-.092.023-.254a2.905 2.905 0 01.832-1.8 2.928 2.928 0 01.422-.357.413.413 0 00.054-.055.105.105 0 00.018-.068h0a.093.093 0 00-.002-.016h0l-.001-.005-.002-.005-.002-.006-.006-.015-.02-.052-.076-.194-.28-.702c-.236-.591-.56-1.404-.918-2.295l-1.3-3.24-.025-.062h-.067l-1.997-.005a118 118 0 00-1.925.012 6.8 6.8 0 00-.144.005.686.686 0 00-.083.007h0a.833.833 0 00-.63.497h0c-.035.08-.05.165-.06.398-.009.234-.012.634-.017 1.351l-.01 1.577v.1l.1.001 1.237.01c.568.005.877.008 1.057.018.18.01.216.024.248.041h0a.64.64 0 01.28.258zm0 0s0 0 0 0l.089-.047m-.089.047l.089-.047m0 0a.738.738 0 00-.32-.299l2.754 5.184-.673-.009-.855-2.389c-.47-1.314-.878-2.433-.906-2.487zm4.673 5.57c.208.422.588.739 1.03.858.09.024.28.041.423.04a1.556 1.556 0 001.577-1.575c0-.144-.017-.333-.041-.424h0a1.624 1.624 0 00-.864-1.033h0a1.244 1.244 0 00-.28-.112 1.78 1.78 0 00-.337-.028 1.703 1.703 0 00-.684.102c-.202.08-.376.207-.545.386a1.51 1.51 0 00-.343.543c-.07.197-.093.413-.08.66.007.134.015.226.036.313.022.088.056.165.108.27zm0 0l.09-.044m-.09.044s0 0 0 0l.09-.044m0 0c-.104-.209-.12-.277-.134-.544-.025-.476.09-.806.396-1.13.323-.34.648-.47 1.153-.456.307.008.349.018.576.13.407.201.698.55.811.97.021.077.038.256.038.396a1.456 1.456 0 01-1.477 1.477c-.14 0-.32-.017-.397-.037a1.538 1.538 0 01-.966-.806zm-8.857.48l-.075.067a1.25 1.25 0 01-.233-1.271c.053-.142.154-.285.272-.405.119-.12.26-.224.402-.28m-.366 1.889l.366-1.889m-.366 1.889l-.075.067c.28.311.682.451 1.101.385 1.17-.183 1.404-1.756.355-2.3m-1.381 1.848l1.381-1.849m-1.015-.04c.147-.057.336-.08.517-.072m-.517.072l.517-.072m.498.112a1.23 1.23 0 00-.498-.113m.498.113s0 0 0 0l-.046.089-.452-.202m2.445.872l.018.077h.499c.116 0 .223-.003.301-.008a1.32 1.32 0 00.136-.016.129.129 0 00.03-.012.104.104 0 00.05-.095l-.002-.014h0v-.006l-.002-.006-.004-.01-.01-.033-.04-.113c-.034-.097-.082-.236-.143-.406l-.467-1.313-.662-1.85-.024-.065h-.07L3.87 8.907 2.259 8.9l-.101-.001v2.012l.138-.056.19-.077a2.5 2.5 0 011.91.047c.678.307 1.247.995 1.416 1.711l.097-.023-.097.023.059.25z" fill="#2051A3" stroke="#F8F8FA" stroke-width=".2"/><path fill-rule="evenodd" clip-rule="evenodd" d="M10.415 3.732l.267-.001h.576V2.258l-3.526.002c-3.378.002-3.537.005-3.772.065-.423.11-.7.27-1.032.603-.336.337-.495.612-.605 1.046-.06.24-.065.369-.065 1.886v1.628l-.485.011c-.474.012-.49.015-.646.111a.847.847 0 00-.26.26l-.098.16-.01 2.62c-.007 1.877 0 2.69.028 2.867a2.657 2.657 0 002.069 2.173c.676.14 1.42-.012 1.977-.404.289-.202.63-.566.785-.836l.123-.213h4.426l.11.17c.178.274.544.636.851.841a2.931 2.931 0 003.243.005c.267-.175.71-.617.864-.861l.098-.155H18v-1.473h-2.258v-.145c0-.486-.24-1.146-.592-1.631l-.161-.222V2.258h-1.473V9.86l-.106-.021a5.51 5.51 0 00-.183-.034 2.532 2.532 0 00-.545-.044l-.167.013-1.184-2.963-1.11-2.782a46.932 46.932 0 01-.094-.24c-.013-.033-.001-.047.145-.053a4.94 4.94 0 01.137-.003h.006zm-.56.156a.307.307 0 01.089-.352.345.345 0 01.135-.069.58.58 0 01.087-.015c.094-.01.257-.01.516-.01h.287v-.894l-3.237.001c-1.69.001-2.571.002-3.06.01-.49.01-.559.025-.64.046-.37.096-.6.229-.9.528-.301.302-.433.531-.528.911-.05.197-.057.276-.057 1.816v1.91l-.767.019c-.249.006-.344.01-.4.019h-.003a.56.56 0 00-.263.213l-.056.091-.01 2.54c-.003.938-.003 1.609.001 2.067.005.47.014.691.024.753.148.954.896 1.74 1.841 1.935.6.124 1.262-.012 1.753-.357.258-.182.569-.516.7-.744l.207-.359h4.75l.197.303c.152.236.49.571.768.758.88.588 2.028.591 2.923.003.11-.072.272-.21.43-.368.158-.158.289-.311.348-.405l.183-.29h2.537v-.895h-2.258v-.434c0-.412-.211-1.014-.536-1.461l-.216-.298V2.548h-.894v7.664l-.453-.09c-.3-.06-.54-.083-.647-.074l-.38.031-1.263-3.162c-.648-1.623-1.193-2.988-1.208-3.03zm1.526 6.338a.294.294 0 01-.049.186.592.592 0 01-.09.097 2.84 2.84 0 00-.41.344 2.717 2.717 0 00-.778 1.684l-.046.52-1.815-.023-.922-2.578a313.86 313.86 0 00-.818-2.257 14.994 14.994 0 00-.058-.155L6.378 8a.462.462 0 00-.198-.173l-.016-.005a1.174 1.174 0 00-.153-.014c-.175-.01-.479-.013-1.049-.018l-1.526-.012.012-1.866c.004-.716.008-1.12.018-1.358.01-.233.024-.352.076-.467.148-.329.411-.535.765-.606.035-.007.082-.009.11-.01l.15-.005c.12-.003.282-.006.476-.008.388-.004.904-.006 1.454-.005l2.191.006 1.372 3.42a1404.065 1404.065 0 011.285 3.218l.011.028.007.018.004.01.003.012a.113.113 0 01.004.015c.001.004.006.023.007.046zm-1.615 2.285a3.005 3.005 0 01.862-1.862c.117-.117.27-.251.34-.297.07-.046.126-.093.125-.104 0-.011-.586-1.479-1.301-3.26l-1.3-3.24-1.996-.005c-1.098-.003-2.058.007-2.133.022a.733.733 0 00-.557.44c-.054.12-.06.272-.069 1.709l-.01 1.577 1.237.01c1.134.01 1.247.015 1.352.071.151.08.256.179.32.299.03.054.437 1.173.907 2.487l.855 2.39 1.345.017.023-.254zm-4.027.542l-.111-.473c-.156-.658-.685-1.3-1.31-1.583a2.312 2.312 0 00-1.76-.043l-.59.239V8.709l3.717.02.73 2.04a423.863 423.863 0 01.662 1.869.805.805 0 01.009.028l.003.014c0 .004.004.02.005.042a.291.291 0 01-.216.3.471.471 0 01-.065.013 1.47 1.47 0 01-.113.01 5.595 5.595 0 01-.312.008h-.649zm7.78-1.915c.478.236.827.649.963 1.153.03.114.047.323.047.473a1.745 1.745 0 01-1.765 1.765c-.15 0-.359-.016-.473-.047a1.828 1.828 0 01-1.15-.957 1.473 1.473 0 01-.123-.309 1.834 1.834 0 01-.041-.348c-.014-.265.01-.506.09-.733a1.7 1.7 0 01.385-.61l.21.199c-.305.323-.421.653-.396 1.129.014.267.03.335.134.544.196.397.552.694.966.806m1.025-2.806c-.227-.112-.27-.122-.575-.13-.506-.013-.83.115-1.154.457l-.21-.199c.183-.194.38-.34.612-.432.232-.091.48-.123.76-.115.147.004.263.008.373.033.114.026.21.071.322.127m-7.55 1.626l-.06-.25c-.176-.747-.765-1.46-1.471-1.78a2.613 2.613 0 00-1.99-.049l-.19.078V8.999l3.223.017.661 1.85.57 1.599v.003c.06.168.093.267.094.271 0 .011-.121.02-.289.023H6.51l-.121.002h-.42zM3.553 14.23l.044.285a1.393 1.393 0 01-1.27-.446 1.438 1.438 0 01-.27-1.463m8.34-8.918zm-6.8 10.827l-.044-.285c1.07-.168 1.291-1.611.324-2.114-.233-.121-.673-.138-.932-.036-.25.099-.524.377-.617.627-.15.403-.068.855.214 1.169.257.285.624.414 1.01.354m.045.285c1.358-.212 1.618-2.03.413-2.656l-.413 2.656zm9.793-3.119c.407.201.698.55.811.97l-.81-.97z" fill="#F8F8FA"/></svg>