<svg width="32" height="32" fill="none" xmlns="http://www.w3.org/2000/svg"><g clip-path="url(#clip0)" fill="#2051A3"><path d="M14.4 10.82l-.762-.23c.457-1.447 1.22-2.742 2.286-3.809 1.905-1.905 4.571-2.895 7.238-2.743l-.076.838c-2.438-.152-4.877.762-6.629 2.438A9.485 9.485 0 0014.4 10.82zM24.076 22.552l-.152-.838c1.752-.305 3.352-1.143 4.647-2.362 1.753-1.752 2.667-4.114 2.438-6.628l.839-.076c.152 2.666-.838 5.333-2.743 7.238-1.296 1.447-3.048 2.361-5.029 2.666zM21.105 13.334h-.838v12.114h.838V13.334zM19.124 13.334h-.838v10.438h.838V13.334zM15.162 13.334h-.838v10.438h.838V13.334zM17.371 13.334h-.838v10.438h.838V13.334z"/><path d="M16.914 13.334h-.838v10.438h.838V13.334zM13.41 13.334h-.839v10.438h.838V13.334zM11.2 13.334h-.838v12.114h.838V13.334zM6.171 13.334h-.838v10.438h.838V13.334zM8.38 13.334h-.837v10.438h.838V13.334z"/><path d="M8.914 13.334h-.838v10.438h.838V13.334zM4.19 13.334h-.838v12.114h.838V13.334z"/><path d="M21.486 28.495H2.97C1.295 28.495 0 27.2 0 25.524V13.18c0-1.676 1.295-2.971 2.971-2.971h18.515c1.676 0 2.971 1.295 2.971 2.97v12.268c0 1.676-1.371 3.047-2.971 3.047zM2.97 11.048c-1.142 0-2.133.99-2.133 2.133v12.267c0 1.142.99 2.133 2.133 2.133h18.515c1.143 0 2.133-.99 2.133-2.133V13.18c0-1.143-.99-2.133-2.133-2.133H2.97zM31.62 13.181h-.153a9.406 9.406 0 01-6.02-2.743 9.406 9.406 0 01-2.742-6.019v-.152l.457-.457 8.914 8.914-.457.457zm-7.925-7.695a7.898 7.898 0 002.362 4.343c1.22 1.219 2.743 1.98 4.343 2.361l-6.705-6.704z"/></g><defs><clipPath id="clip0"><path fill="#fff" d="M0 0h32v32H0z"/></clipPath></defs></svg>