<svg width="32" height="32" fill="none" xmlns="http://www.w3.org/2000/svg"><path d="M12.8 26.895c-1.6 0-3.2-.38-4.648-1.142l-1.371-.686C1.6 22.477-.61 16.305 1.676 10.972a9.235 9.235 0 018.534-5.638h.99c3.733 0 7.314 1.066 10.362 3.123l5.943 3.962c3.047 1.981 4.038 6.095 2.21 9.22v.075c-1.22 2.134-3.43 3.429-5.867 3.429a6.346 6.346 0 01-1.677-.229c-1.447-.38-2.971-.152-4.342.534-1.524.99-3.277 1.447-5.029 1.447zM10.21 6.172c-3.353 0-6.477 2.057-7.772 5.18-2.133 4.877 0 10.591 4.724 12.953l1.371.686c1.296.685 2.82.99 4.343.99 1.6 0 3.2-.457 4.648-1.219 1.447-.838 3.276-1.067 4.952-.686.457.153.99.153 1.448.153a5.927 5.927 0 005.18-3.048l.077-.152c1.6-2.82.686-6.4-1.981-8.153l-6.095-3.733c-2.972-1.905-6.4-2.971-9.905-2.971h-.99z" fill="#2051A3"/><path d="M12.8 25.143a8.81 8.81 0 01-3.886-.914l-1.371-.686c-4.343-2.21-6.172-7.39-4.267-11.886 1.22-2.819 3.962-4.571 7.01-4.571h.99c3.353 0 6.629.99 9.448 2.819l5.943 3.962c2.285 1.524 3.047 4.571 1.676 6.933l-.152.076c-1.067 1.981-3.43 2.972-5.562 2.362-1.905-.457-3.886-.228-5.562.762-1.372.762-2.82 1.143-4.267 1.143zM10.21 7.924c-2.743 0-5.181 1.6-6.248 4.114-1.752 4.038 0 8.762 3.886 10.743l1.371.686c2.286 1.143 5.029 1.143 7.314-.152 1.905-1.067 4.115-1.372 6.172-.839a4.202 4.202 0 004.647-1.98l.077-.153c1.142-1.98.533-4.571-1.372-5.79l-5.943-3.962C17.524 8.838 14.4 7.924 11.2 7.924h-.99z" fill="#2051A3"/><path d="M12.267 17.752a2.537 2.537 0 01-2.515-2.514 2.537 2.537 0 012.515-2.514 2.537 2.537 0 012.514 2.514 2.537 2.537 0 01-2.514 2.514zm0-4.114c-.915 0-1.676.762-1.676 1.676 0 .914.761 1.676 1.676 1.676.914 0 1.676-.762 1.676-1.676-.076-.914-.762-1.676-1.676-1.676z" fill="#2051A3"/><path d="M13.257 13.638l-.533-.61.61-.533a11.891 11.891 0 003.047-4.19l.762.304c-.686 1.753-1.829 3.277-3.276 4.496l-.61.533zM10.743 13.866c-1.143-1.447-2.514-2.59-4.038-3.504L5.333 9.6l.381-.686 1.296.762c1.676.99 3.123 2.21 4.266 3.733l-.533.457z" fill="#2051A3"/><path d="M8.457 11.048l-.61-.534.534-.685c.61-.686 1.143-1.524 1.448-2.438l.838.228c-.381.99-.915 1.981-1.6 2.743l-.61.686zM8.229 19.581l-.762-.305.076-.228c.533-1.296 1.447-2.438 2.743-3.124l.38.762c-1.066.61-1.904 1.523-2.361 2.666l-.076.229zM25.829 19.505c-.915-.457-1.981-.686-2.972-.61-3.2.305-6.4-.61-8.914-2.514l.533-.686a12.704 12.704 0 008.381 2.362c1.22-.076 2.362.153 3.505.686l-.533.762z" fill="#2051A3"/><path d="M19.352 22.781l-.228-1.295c-.229-1.372-1.067-2.59-2.21-3.352l.457-.686c1.372.838 2.362 2.285 2.59 3.886l.23 1.295-.839.152zM9.6 20.876l-.99-.533c-1.22-.686-1.905-1.905-1.905-3.276h.838c0 1.067.61 2.057 1.524 2.514l.99.534-.457.761z" fill="#2051A3"/></svg>