<svg width="24" height="24" fill="none" xmlns="http://www.w3.org/2000/svg"><path d="M15.5 2a1.5 1.5 0 00-1.23 2.356 1.5 1.5 0 00.71.548C13.713 6.416 12.017 7 9.5 7 6.56 7 1 9.26 1 17.8c0 .31.14.6.39.79.12.1 3.16 2.41 9.11 2.41 7.67 0 8.5-3.86 8.5-5.52 0-.55-.097-1.112-.26-1.675a16.617 16.617 0 002.024-2 1.5 1.5 0 10.184-2.7 1.5 1.5 0 10-2.05 1.768c-.587.643-1.4 1.429-2.363 2.133C15.01 14.12 13.167 15 11.5 15c-.717 0-1.383-.21-1.816-.543C9.25 14.123 9 13.717 9 13H7c0 1.283.599 2.377 1.465 3.043.866.666 1.949.957 3.035.957 2.013 0 3.875-.847 5.46-1.885.013.122.04.246.04.365 0 2.27-2.31 3.52-6.5 3.52-4.07 0-6.58-1.2-7.49-1.73C3.22 10.74 7.31 9 9.5 9c2.18 0 4.22 1.09 5.62 2.55.58-.39 1.11-.84 1.57-1.27a10.514 10.514 0 00-2.801-2.151 7.619 7.619 0 002.904-2.307 1.5 1.5 0 10.154-2.717A1.5 1.5 0 0015.5 2z" fill="#2051A3"/></svg>