<svg width="24" height="24" fill="none" xmlns="http://www.w3.org/2000/svg"><path d="M13 2a1 1 0 00-1 1v1.697l-1.832 2.748A1 1 0 0010 8v3.797a11.358 11.358 0 00-1.557-.594c-.8-.232-1.62-.367-2.42-.318-.799.048-1.618.296-2.23.908-.612.612-.86 1.431-.908 2.23-.049.8.086 1.62.318 2.42.464 1.602 1.29 3.12 2.262 4.092 1.325 1.325 3.219 1.725 4.91 1.244A1 1 0 0011 22h10a1 1 0 001-1V8a1 1 0 00-.168-.555L20 4.697V3a1 1 0 00-1-1h-6zm1 2h4v.697l-1.832 2.748A1 1 0 0016 8v12h-3.008c1.468-1.955 1.319-4.76-.457-6.535-.162-.162-.359-.312-.549-.465H12V8.303l1.832-2.748A1 1 0 0014 5V4zm5 2.803l1 1.5V20h-2V8.303l1-1.5zM6.32 12.906c.455-.005.99.052 1.567.219 1.281.371 2.644 1.164 3.234 1.754.902.902.894 2.148.416 3.244L6.32 12.906zM4.906 14.32l5.217 5.217c-1.096.478-2.342.486-3.244-.416-.59-.59-1.383-1.955-1.754-3.236a5.423 5.423 0 01-.219-1.565z" fill="#2051A3"/></svg>