<svg width="276" height="169" fill="none" xmlns="http://www.w3.org/2000/svg"><path d="M82.5 85c0 13.531-10.969 24.5-24.5 24.5S33.5 98.531 33.5 85 44.469 60.5 58 60.5 82.5 71.469 82.5 85z" stroke="#181F29"/><path fill-rule="evenodd" clip-rule="evenodd" d="M57.51 83.947a5.197 5.197 0 00-2.388-4.565c-1.124-.772-4.846-2.388-5.478-4.494v4.354c-.07 1.755.843 3.37 2.318 4.283.491.281 1.264.773 2.177 1.335 1.545.912 2.95 1.755 3.44 3.16v-4.073h-.07zM57.51 91.742a5.197 5.197 0 00-2.388-4.565c-1.124-.773-4.846-2.388-5.478-4.494v4.354c-.07 1.755.843 3.37 2.318 4.283.491.281 1.264.773 2.177 1.335 1.545.912 2.95 1.755 3.44 3.16v-4.073h-.07zM57.51 99.607a5.197 5.197 0 00-2.388-4.565c-1.124-.772-4.846-2.387-5.478-4.494v4.354c-.07 1.755.843 3.37 2.318 4.284.491.28 1.264.772 2.177 1.334 1.545.913 2.95 1.755 3.44 3.16v-4.073h-.07zM58.492 83.947a5.197 5.197 0 012.388-4.565c1.123-.772 4.845-2.388 5.477-4.494v4.354c.07 1.755-.842 3.37-2.317 4.283-.492.281-1.264.773-2.177 1.335-1.545.912-2.95 1.755-3.441 3.16v-4.073h.07zM58.493 91.742a5.197 5.197 0 012.388-4.565c1.123-.773 4.845-2.388 5.477-4.494v4.354c.07 1.755-.843 3.37-2.317 4.283-.492.281-1.264.773-2.177 1.335-1.475.912-2.88 1.755-3.371 3.16v-4.073zM58.492 99.607a5.197 5.197 0 012.388-4.565c1.123-.772 4.845-2.387 5.477-4.494v4.354c.07 1.755-.842 3.37-2.317 4.284-.492.28-1.264.772-2.177 1.334-1.545.913-2.95 1.755-3.441 3.16v-4.073h.07zM58 66.46c-.984 3.863-3.582 5.338-3.582 8.217 0 3.23 2.528 3.02 3.581 4.916 1.054-1.896 3.582-1.615 3.582-4.846 0-2.949-2.598-4.424-3.582-8.286z" fill="#181F29"/><path d="M101.394 82l-.011-7.7h-.902l-3.168 5.412-3.212-5.412h-.902V82h1.056v-5.577l2.783 4.642h.506l2.783-4.675.011 5.61h1.056zm2.221 0h.968l3.564-4.246V82h1.056v-5.83h-.957l-3.575 4.246V76.17h-1.056V82zm7.637 0h1.056v-2.442h3.322V82h1.056v-5.83h-1.056v2.475h-3.322V76.17h-1.056V82zm7.488 0h.968l3.564-4.246V82h1.056v-5.83h-.957l-3.575 4.246V76.17h-1.056V82zm10.178.066c1.045 0 1.914-.44 2.376-1.254l-.803-.506c-.374.572-.946.836-1.584.836-1.144 0-2.002-.792-2.002-2.057 0-1.243.858-2.046 2.002-2.046.638 0 1.21.264 1.584.836l.803-.517c-.462-.814-1.331-1.243-2.376-1.243-1.793 0-3.08 1.232-3.08 2.97 0 1.738 1.287 2.981 3.08 2.981zm8.013-5.896h-5.324v.924h2.134V82h1.056v-4.906h2.134v-.924zm6.091 2.948c0-1.793-1.199-3.003-2.882-3.003s-2.926 1.243-2.926 2.97c0 1.738 1.254 2.981 3.135 2.981.968 0 1.771-.33 2.299-.946l-.583-.682c-.429.473-1.001.704-1.683.704-1.155 0-1.98-.682-2.112-1.705H143c.011-.099.022-.231.022-.319zm-2.882-2.112c1.023 0 1.76.693 1.87 1.672h-3.74c.11-.99.858-1.672 1.87-1.672zm7.612-.891c-.858 0-1.606.33-2.079.979v-.924h-1.012v7.964h1.056V81.12c.484.627 1.21.946 2.035.946 1.705 0 2.948-1.188 2.948-2.981 0-1.782-1.243-2.97-2.948-2.97zm-.088 5.027c-1.111 0-1.958-.814-1.958-2.057 0-1.232.847-2.046 1.958-2.046 1.122 0 1.969.814 1.969 2.046 0 1.243-.847 2.057-1.969 2.057zm7.111.924c1.045 0 1.914-.44 2.376-1.254l-.803-.506c-.374.572-.946.836-1.584.836-1.144 0-2.002-.792-2.002-2.057 0-1.243.858-2.046 2.002-2.046.638 0 1.21.264 1.584.836l.803-.517c-.462-.814-1.331-1.243-2.376-1.243-1.793 0-3.08 1.232-3.08 2.97 0 1.738 1.287 2.981 3.08 2.981zm8.013-5.896h-5.324v.924h2.134V82h1.056v-4.906h2.134v-.924zm5.051 2.805c.583-.231.935-.682.935-1.309 0-.957-.825-1.496-2.2-1.496h-2.706V82h2.805c1.551 0 2.299-.594 2.299-1.606 0-.737-.363-1.221-1.133-1.419zm-2.937-1.991h1.584c.803 0 1.232.275 1.232.836 0 .561-.429.858-1.232.858h-1.584v-1.694zm1.694 4.202h-1.694v-1.749h1.76c.869 0 1.254.286 1.254.891 0 .594-.451.858-1.32.858zm6.526.88c1.749 0 3.025-1.243 3.025-2.981 0-1.738-1.276-2.97-3.025-2.97-1.749 0-3.036 1.232-3.036 2.97 0 1.738 1.287 2.981 3.036 2.981zm0-.924c-1.122 0-1.969-.814-1.969-2.057 0-1.243.847-2.046 1.969-2.046s1.958.803 1.958 2.046c0 1.243-.836 2.057-1.958 2.057zm10.045.924c1.045 0 1.914-.44 2.376-1.254l-.803-.506c-.374.572-.946.836-1.584.836-1.144 0-2.002-.792-2.002-2.057 0-1.243.858-2.046 2.002-2.046.638 0 1.21.264 1.584.836l.803-.517c-.462-.814-1.331-1.243-2.376-1.243-1.793 0-3.08 1.232-3.08 2.97 0 1.738 1.287 2.981 3.08 2.981zm8.926-2.948c0-1.793-1.199-3.003-2.882-3.003s-2.926 1.243-2.926 2.97c0 1.738 1.254 2.981 3.135 2.981.968 0 1.771-.33 2.299-.946l-.583-.682c-.429.473-1.001.704-1.683.704-1.155 0-1.98-.682-2.112-1.705h4.73c.011-.099.022-.231.022-.319zm-2.882-2.112c1.023 0 1.76.693 1.87 1.672h-3.74c.11-.99.858-1.672 1.87-1.672zm4.951-.836l-.099 2.156c-.077 1.375-.121 2.805-1.067 2.805-.077 0-.165-.011-.264-.033l-.066.891c.242.066.451.099.649.099 1.32 0 1.595-1.639 1.694-3.696l.066-1.298h2.508V82h1.056v-5.83h-4.477zm9.214 1.98l-1.639-.011V76.17h-1.056V82l2.53.011c1.562.011 2.442-.693 2.442-1.958 0-1.199-.792-1.892-2.277-1.903zm-.253 3.058l-1.386-.011v-2.288l1.386.022c.968.011 1.452.341 1.452 1.111 0 .781-.495 1.177-1.452 1.166zm6.426.858c1.045 0 1.914-.44 2.376-1.254l-.803-.506c-.374.572-.946.836-1.584.836-1.144 0-2.002-.792-2.002-2.057 0-1.243.858-2.046 2.002-2.046.638 0 1.21.264 1.584.836l.803-.517c-.462-.814-1.331-1.243-2.376-1.243-1.793 0-3.08 1.232-3.08 2.97 0 1.738 1.287 2.981 3.08 2.981zm7.968-.066h1.243l-2.365-3.025 2.211-2.805h-1.133l-1.892 2.464h-1.232V76.17h-1.056V82h1.056v-2.464h1.21L217.517 82zm4.653.066c1.749 0 3.025-1.243 3.025-2.981 0-1.738-1.276-2.97-3.025-2.97-1.749 0-3.036 1.232-3.036 2.97 0 1.738 1.287 2.981 3.036 2.981zm0-.924c-1.122 0-1.969-.814-1.969-2.057 0-1.243.847-2.046 1.969-2.046s1.958.803 1.958 2.046c0 1.243-.836 2.057-1.958 2.057zm8.84-4.972h-4.29V82h1.056v-4.906h3.234v-.924zm3.321 5.896c1.749 0 3.025-1.243 3.025-2.981 0-1.738-1.276-2.97-3.025-2.97-1.749 0-3.036 1.232-3.036 2.97 0 1.738 1.287 2.981 3.036 2.981zm0-.924c-1.122 0-1.969-.814-1.969-2.057 0-1.243.847-2.046 1.969-2.046s1.958.803 1.958 2.046c0 1.243-.836 2.057-1.958 2.057zM97.863 96l-2.321-2.981 2.2-2.849h-1.155l-1.595 2.101-1.606-2.101h-1.177l2.189 2.849L92.099 96h1.177l1.705-2.233L96.664 96h1.199zm3.415.066c1.749 0 3.025-1.243 3.025-2.981 0-1.738-1.276-2.97-3.025-2.97-1.75 0-3.036 1.232-3.036 2.97 0 1.738 1.287 2.981 3.036 2.981zm0-.924c-1.122 0-1.97-.814-1.97-2.057 0-1.243.848-2.046 1.97-2.046 1.122 0 1.958.803 1.958 2.046 0 1.243-.836 2.057-1.958 2.057zm7.642-2.178c.638-.231 1.056-.704 1.056-1.287 0-.946-1.045-1.584-2.464-1.584-.748 0-1.474.154-2.233.539l.286.814c.638-.297 1.243-.451 1.837-.451.891 0 1.485.308 1.485.836 0 .495-.495.781-1.276.781h-.99v.759h1.067c.858 0 1.364.308 1.364.847 0 .594-.649.957-1.639.957-.715 0-1.485-.198-2.046-.561l-.319.803c.649.418 1.507.66 2.376.66 1.551 0 2.717-.715 2.717-1.771 0-.671-.44-1.144-1.221-1.342zm4.95-2.794c-1.562 0-2.563.693-2.563 2.046 0 .924.495 1.529 1.364 1.793L111.252 96h1.133l1.276-1.848h1.815V96h.946v-5.83h-2.552zm-1.485 2.079c0-.814.55-1.155 1.518-1.155h1.573v2.299h-1.617c-.979 0-1.474-.363-1.474-1.144zm8.825-2.838c1.067 0 1.716-.528 1.738-1.518h-.737c-.011.55-.407.902-1.012.902-.594 0-.99-.352-1.001-.902h-.715c.011.99.66 1.518 1.727 1.518zM118.482 96h.968l3.564-4.246V96h1.056v-5.83h-.957l-3.575 4.246V90.17h-1.056V96zm10.179.066c1.045 0 1.914-.44 2.376-1.254l-.803-.506c-.374.572-.946.836-1.584.836-1.144 0-2.002-.792-2.002-2.057 0-1.243.858-2.046 2.002-2.046.638 0 1.21.264 1.584.836l.803-.517c-.462-.814-1.331-1.243-2.376-1.243-1.793 0-3.08 1.232-3.08 2.97 0 1.738 1.287 2.981 3.08 2.981zm8.013-5.896h-5.324v.924h2.134V96h1.056v-4.906h2.134v-.924zm5.05 2.805c.583-.231.935-.682.935-1.309 0-.957-.825-1.496-2.2-1.496h-2.706V96h2.805c1.551 0 2.299-.594 2.299-1.606 0-.737-.363-1.221-1.133-1.419zm-2.937-1.991h1.584c.803 0 1.232.275 1.232.836 0 .561-.429.858-1.232.858h-1.584v-1.694zm1.694 4.202h-1.694v-1.749h1.76c.869 0 1.254.286 1.254.891 0 .594-.451.858-1.32.858zm6.108-5.071c-.935 0-1.804.264-2.409.748l.44.792c.451-.385 1.155-.627 1.848-.627 1.045 0 1.562.517 1.562 1.408v.209h-1.672c-1.738 0-2.343.77-2.343 1.705 0 1.012.836 1.716 2.156 1.716.913 0 1.562-.308 1.914-.836V96h1.001v-3.52c0-1.595-.902-2.365-2.497-2.365zm-.242 5.137c-.803 0-1.287-.363-1.287-.946 0-.495.297-.902 1.342-.902h1.628v.814c-.264.671-.891 1.034-1.683 1.034zm10.774-6.952h-3.003V96h1.1v-2.332h1.903c2.002 0 3.212-1.012 3.212-2.684 0-1.672-1.21-2.684-3.212-2.684zm-.033 4.411h-1.87v-3.454h1.87c1.408 0 2.145.627 2.145 1.727s-.737 1.727-2.145 1.727zm13.374-.572c0-2.024-1.496-3.245-4.081-3.344v-.781h-1.023v.781c-2.596.099-4.092 1.309-4.092 3.344 0 2.024 1.496 3.234 4.092 3.333v.814h1.023v-.814c2.596-.088 4.081-1.298 4.081-3.333zm-4.081 2.475v-4.95c1.925.11 3.025.968 3.025 2.464 0 1.518-1.067 2.365-3.025 2.486zm-4.048-2.475c0-1.518 1.067-2.354 3.025-2.475v4.95c-1.914-.121-3.025-.957-3.025-2.475z" fill="#181F29"/></svg>