<svg width="32" height="32" fill="none" xmlns="http://www.w3.org/2000/svg"><path fill-rule="evenodd" clip-rule="evenodd" d="M3.41 2.646a1.45 1.45 0 00-.426.274c-.39.374-.392.382-.427 2.113-.03 1.427-.05 1.665-.217 2.596-.278 1.547-.377 2.43-.384 3.426-.008 1.051.084 1.548.401 2.18l.203.402v4.774c0 3.312.02 4.846.065 5.007.086.31.528.752.837.837.16.044 1.55.065 4.465.065h4.233v1.912l-1.18.018-1.18.02-.386.19c-.442.218-.698.481-.913.941-.138.293-.153.402-.172 1.181l-.02.858H23.68v-.746c0-1.099-.21-1.643-.797-2.07-.442-.32-.77-.384-1.985-.384H19.84v-1.92h4.233c2.915 0 4.305-.02 4.465-.065.144-.04.336-.167.503-.334.166-.167.294-.359.334-.503.045-.161.064-1.695.065-5.007v-4.774l.203-.403c.317-.631.409-1.128.401-2.18-.007-.994-.106-1.878-.384-3.425-.168-.931-.188-1.169-.217-2.596-.036-1.752-.037-1.756-.46-2.139a1.4 1.4 0 00-.455-.271c-.154-.043-4.034-.061-12.557-.06-10.341.002-12.371.015-12.56.083zM28.16 4.8v.96H3.84V3.84h24.32v.96zM6.4 9.887v2.846l-.218.181c-.528.438-1.283.629-1.865.471-.516-.139-.916-.683-1.054-1.43-.13-.698-.041-1.866.284-3.768.097-.568.177-1.059.177-1.09 0-.035.51-.057 1.338-.057H6.4v2.847zm4.48 0v2.846l-.218.181c-.12.1-.362.252-.538.34-.277.136-.392.157-.844.157-.594 0-.908-.11-1.348-.47l-.252-.207V7.04h3.2v2.847zm4.48 0v2.846l-.218.181c-.12.1-.362.252-.538.34-.277.136-.391.157-.844.157-.595 0-.908-.11-1.348-.47l-.252-.207V7.04h3.2v2.847zm4.48 0v2.846l-.218.181c-.12.1-.362.252-.538.34-.277.136-.392.157-.844.157-.595 0-.908-.11-1.348-.47l-.252-.207V7.04h3.2v2.847zm4.48 0v2.846l-.218.181c-.12.1-.362.252-.538.34-.277.136-.392.157-.844.157-.595 0-.908-.11-1.348-.47l-.252-.207V7.04h3.2v2.847zm4.092-1.93c.466 2.716.497 3.808.133 4.629-.165.371-.529.71-.862.8-.572.154-1.321-.027-1.831-.445l-.252-.207V7.04H28.255l.157.917zM7.316 14.002c.547.421 1.37.72 1.981.717.612-.002 1.38-.286 1.951-.721l.272-.208.276.213c.547.42 1.371.718 1.981.716.612-.002 1.38-.286 1.951-.721L16 13.79l.276.213c.547.42 1.371.718 1.981.716.612-.002 1.38-.286 1.951-.721l.272-.208.276.213c.547.42 1.371.718 1.981.716.612-.002 1.38-.286 1.951-.721l.272-.208.276.213c.345.265.993.567 1.4.652.4.084.711.08 1.16-.013l.364-.077V19.2H3.84v-4.635l.364.077c.474.1.803.096 1.26-.011.417-.099 1.048-.41 1.348-.667a2.79 2.79 0 01.213-.172c.008-.002.139.093.29.21zM28.16 21.76v1.28H3.84v-2.56h24.32v1.28zm-2.56 0v.64h1.28v-1.28H25.6v.64zm-7.04 3.52v.96h-5.12v-1.92h5.12v.96zm3.631 2.415c.08.08.161.217.183.305l.039.16H9.587l.04-.16a.64.64 0 01.351-.425c.064-.027 2.806-.043 6.093-.037l5.977.011.143.146z" fill="#fff"/></svg>