<svg width="28" height="28" fill="none" xmlns="http://www.w3.org/2000/svg"><path fill-rule="evenodd" clip-rule="evenodd" d="M2.985 2.315a1.27 1.27 0 00-.374.24c-.341.327-.343.334-.373 1.848-.026 1.25-.043 1.457-.19 2.272-.244 1.354-.33 2.127-.337 2.997-.006.92.074 1.355.352 1.908l.177.352v4.178c0 2.897.018 4.24.057 4.38.075.27.462.658.732.733.14.039 1.357.056 3.908.056h3.703v1.673l-1.032.017-1.032.016-.338.167c-.388.19-.611.42-.8.824-.12.256-.134.351-.15 1.033l-.017.75H20.72v-.652c0-.962-.183-1.438-.697-1.81-.387-.282-.675-.337-1.737-.337h-.926v-1.68h3.704c2.55 0 3.767-.018 3.907-.057.126-.035.294-.147.44-.293.146-.146.257-.313.292-.44.04-.14.057-1.483.057-4.38v-4.178l.177-.352c.278-.553.359-.988.352-1.908-.006-.87-.093-1.643-.337-2.997-.146-.815-.164-1.023-.19-2.272-.03-1.533-.031-1.536-.402-1.871a1.225 1.225 0 00-.398-.238c-.134-.037-3.53-.053-10.987-.052-9.049.002-10.825.014-10.99.073zM24.64 4.2v.84H3.36V3.36h21.28v.84zM5.6 8.65v2.491l-.19.159c-.463.383-1.123.55-1.633.412-.45-.122-.801-.598-.922-1.252-.113-.61-.036-1.632.249-3.296.085-.498.154-.927.154-.955 0-.03.446-.05 1.171-.05H5.6v2.492zm3.92 0v2.491l-.19.159c-.106.087-.318.22-.472.296-.242.12-.342.138-.738.138-.52 0-.795-.096-1.18-.411l-.22-.181V6.16h2.8v2.49zm3.92 0v2.491l-.19.159c-.106.087-.318.22-.472.296-.242.12-.342.138-.738.138-.52 0-.795-.096-1.18-.411l-.22-.181V6.16h2.8v2.49zm3.92 0v2.491l-.19.159c-.106.087-.318.22-.472.296-.242.12-.342.138-.738.138-.52 0-.795-.096-1.18-.411l-.22-.181V6.16h2.8v2.49zm3.92 0v2.491l-.19.159c-.106.087-.318.22-.472.296-.242.12-.342.138-.738.138-.52 0-.795-.096-1.18-.411l-.22-.181V6.16h2.8v2.49zm3.58-1.688c.408 2.376.436 3.332.117 4.05-.144.325-.463.621-.754.7-.501.135-1.156-.024-1.602-.39l-.22-.18V6.16h2.323l.137.802zm-18.458 5.29c.479.368 1.2.629 1.733.627.536-.002 1.208-.25 1.707-.632l.238-.181.242.186c.479.368 1.2.629 1.733.627.536-.002 1.208-.25 1.707-.632l.238-.181.242.186c.479.368 1.2.629 1.733.627.536-.002 1.208-.25 1.708-.632l.237-.181.242.186c.479.368 1.2.629 1.733.627.536-.002 1.208-.25 1.707-.632l.238-.181.242.186c.302.232.869.496 1.224.571.35.074.623.07 1.016-.012l.318-.067V16.8H3.36v-4.056l.318.067c.416.087.703.085 1.102-.01.366-.086.918-.358 1.18-.583.096-.082.18-.15.187-.15.007-.002.121.081.255.184zM24.64 19.04v1.12H3.36v-2.24h21.28v1.12zm-2.24 0v.56h1.12v-1.12H22.4v.56zm-6.16 3.08v.84h-4.48v-1.68h4.48v.84zm3.178 2.113c.069.07.14.19.16.267l.033.14H8.39l.035-.14a.56.56 0 01.307-.372c.056-.024 2.455-.038 5.332-.033l5.23.01.125.128z" fill="#119C6F"/></svg>