<svg width="32" height="32" fill="none" xmlns="http://www.w3.org/2000/svg"><path d="M31.01 25.905H1.675a.838.838 0 01-.762-.458.971.971 0 010-.914l.229-.457c.305-.61.305-1.295 0-1.829a2.764 2.764 0 010-2.666c.305-.61.305-1.296 0-1.829a2.764 2.764 0 010-2.666c.305-.61.305-1.372 0-1.905a2.764 2.764 0 010-2.667c.305-.61.305-1.295 0-1.828l-.229-.534a.971.971 0 010-.914c.153-.229.457-.381.762-.381H31.01c.304 0 .609.152.761.457a.971.971 0 010 .914l-.228.458c-.305.533-.305 1.219 0 1.828a2.764 2.764 0 010 2.667c-.305.533-.305 1.295 0 1.828a2.764 2.764 0 010 2.667c-.305.61-.305 1.295 0 1.829a2.764 2.764 0 010 2.666c-.305.61-.305 1.296 0 1.829l.228.457a.971.971 0 010 .914c-.152.305-.457.534-.762.534zM1.675 7.695s-.076 0 0 0l-.076.076.229.457a2.764 2.764 0 010 2.667c-.305.533-.305 1.295 0 1.829a2.764 2.764 0 010 2.666 2.098 2.098 0 000 1.905 2.764 2.764 0 010 2.667 2.099 2.099 0 000 1.904 2.764 2.764 0 010 2.667l-.229.457v.077h29.486v-.077l-.229-.457a2.764 2.764 0 010-2.667c.305-.61.305-1.295 0-1.828a2.764 2.764 0 010-2.667c.305-.61.305-1.295 0-1.828a2.764 2.764 0 010-2.667c.305-.61.305-1.295 0-1.829a2.764 2.764 0 010-2.666l.229-.457v-.077H1.676v-.152z" fill="#2051A3"/><path d="M8 19.352l-.533-.61 4.724-4.952.609.61-.076.076L8 19.352z" fill="#2051A3"/><path d="M15.62 21.562h-.458l-6.705-.229v-.838l6.705.229c1.447.076 2.971-.153 4.419-.534 3.886-1.143 7.238-3.885 8.686-7.162l.228-.61a1.057 1.057 0 000-.685.687.687 0 00-.457-.457l-.61-.229c-3.276-1.523-7.619-1.142-11.2.762-1.066.61-2.133 1.296-2.97 2.134l-.534-.61c.914-.838 1.98-1.6 3.124-2.21 3.81-2.056 8.38-2.361 11.961-.914l.61.229c.457.152.762.533.914.914.153.457.153.915 0 1.372l-.228.61c-1.524 3.58-5.105 6.475-9.22 7.694-1.447.305-2.818.534-4.266.534z" fill="#2051A3"/><path d="M5.333 24.61l.534-3.734-2.972-2.286H8l.99 2.362-3.657 3.657zm0-5.182l1.372 1.143-.229 1.753L8 20.8l-.533-1.372H5.333zM24.686 12.876c-.076 0-.229 0-.305-.076a.687.687 0 01-.457-.457c-.076-.229-.076-.457 0-.61a.687.687 0 01.457-.457c.229-.076.457-.076.61 0a.687.687 0 01.457.457c.076.23.076.458 0 .61a.687.687 0 01-.458.457.576.576 0 01-.304.076zm.38-.99l-.38.152.38-.152zM23.162 17.295c-.762-.762-1.295-1.676-1.752-2.743a8.856 8.856 0 01-.61-3.2h.838c0 .991.229 1.982.61 2.896.38.914.914 1.752 1.6 2.438l-.686.61zM14.933 12.42l-2.21-1.144-.075-.61 3.657-1.523a4.046 4.046 0 013.505.229l.457.228-.381.762-.457-.229c-.915-.533-1.905-.609-2.82-.228l-2.59 1.067 1.371.685-.457.762zM17.22 23.771l1.066-3.124.762.229-.457 1.448 2.59-1.067c.914-.381 1.6-1.143 1.828-2.057l.153-.457.838.228-.152.457c-.381 1.22-1.22 2.134-2.362 2.59l-4.267 1.753z" fill="#2051A3"/><path d="M13.41 14.552H4.42V8.914h8.99v5.638zm-8.153-.838h7.314V9.752H5.257v3.962zM29.486 17.6h-.838v7.848h.838V17.6z" fill="#2051A3"/></svg>