<svg width="32" height="32" fill="none" xmlns="http://www.w3.org/2000/svg"><path d="M9.437 28.495c-.686 0-1.371-.228-1.981-.61-.533.23-1.067.382-1.6.382a3.701 3.701 0 01-3.352-2.134v-.076L1.36 22.705C.14 19.276-.24 15.619.14 12.038.372 9.752 2.352 8 4.714 8c.762 0 1.448.152 2.133.533 1.677-.99 3.734-.99 5.486 0C13.018 8.23 13.704 8 14.465 8c2.362 0 4.267 1.752 4.572 4.038.076.534.076.99.076 1.524h-.838c0-.457-.076-.99-.076-1.448-.229-1.904-1.829-3.352-3.734-3.352a3.44 3.44 0 00-1.904.533l-.457.153-.229-.153a4.498 4.498 0 00-4.952 0l-.229.153-.229-.077c-.533-.38-1.219-.533-1.904-.533-1.905 0-3.505 1.448-3.734 3.353-.38 3.504.077 7.01 1.22 10.361l1.142 3.353a3.073 3.073 0 002.667 1.524c.533 0 .99-.153 1.448-.381l.228-.153.229.153c.99.762 2.438.762 3.352 0l.229-.153.228.153c.457.228.915.38 1.448.38 1.066 0 2.133-.609 2.59-1.6l1.143-3.352c.153-.533.305-1.066.457-1.524l.838.229c-.152.533-.304 1.067-.533 1.6l-1.219 3.429a3.701 3.701 0 01-3.352 2.133c-.534 0-1.067-.152-1.6-.381-.534.38-1.22.533-1.905.533z" fill="#2051A3"/><path d="M9.437 28.572a3.409 3.409 0 01-3.048-1.83c-.457-.913-.838-1.904-.914-2.894l-.305-2.286.838-.076.305 2.285c.153.915.381 1.753.838 2.591.457.838 1.372 1.371 2.286 1.371.99 0 1.829-.533 2.286-1.371.457-.838.762-1.676.838-2.59l1.371-9.981.838.076-1.371 9.98a9.86 9.86 0 01-.914 2.896 3.41 3.41 0 01-3.048 1.829zM10.046 10.895h-.838V8.61c0-1.296.458-2.515 1.296-3.429l1.143-1.371.609.533-1.143 1.295c-.686.838-1.066 1.829-1.066 2.895v2.362z" fill="#2051A3"/><path d="M9.132 11.048l-.99-1.22 1.524-.304.228.762-.229.076.153.152-.686.534z" fill="#2051A3"/><path d="M8.675 11.657l.076-1.6h.838l-.076.305.229-.152.304.761-1.371.686z" fill="#2051A3"/><path d="M9.97 11.2l-.457-.686.153-.076-.23-.152.382-.686 1.447.686-1.295.914z" fill="#2051A3"/><path d="M10.427 11.81l-1.219-.991.534-.686.152.153.076-.229.838.152-.38 1.6zM5.323 12.114h-.838c0-1.143.533-2.21 1.371-2.971l.533-.457.534.61-.534.532c-.685.534-1.066 1.372-1.066 2.286zM24.37 28.495a2.747 2.747 0 01-1.524-.457c-.38.152-.838.305-1.219.305-1.142 0-2.21-.686-2.666-1.676v-.077l-.914-2.666c-.915-2.667-1.296-5.486-.991-8.381.229-1.829 1.752-3.276 3.58-3.276a3.8 3.8 0 011.6.38c1.296-.761 2.896-.761 4.268 0 .533-.228 1.066-.38 1.6-.38 1.828 0 3.428 1.371 3.58 3.276.305 2.819-.076 5.638-.99 8.38l-.838 2.744c-.533.99-1.524 1.676-2.667 1.676-.457 0-.838-.076-1.219-.305-.533.305-1.066.457-1.6.457zm-1.447-1.447l.228.152c.686.61 1.753.61 2.515 0l.228-.152.229.152c.304.152.685.305 1.066.305.838 0 1.6-.457 1.905-1.22l.914-2.59c.915-2.59 1.22-5.257.915-8-.153-1.447-1.372-2.514-2.82-2.514-.533 0-.99.152-1.447.38l-.229.153-.228-.152a3.335 3.335 0 00-3.734 0l-.228.152-.229-.152c-.457-.229-.914-.381-1.447-.381-1.448 0-2.667 1.067-2.82 2.514-.304 2.743.077 5.41.915 8l.914 2.59c.381.686 1.143 1.22 1.905 1.22.381 0 .762-.076 1.067-.305l.38-.152z" fill="#2051A3"/><path d="M24.37 28.572c-1.066 0-1.98-.534-2.438-1.448-.38-.686-.61-1.448-.762-2.286l-.228-1.828.838-.077.228 1.829a4.74 4.74 0 00.686 1.981c.381.61.99.99 1.752.99s1.372-.38 1.753-.99c.305-.61.533-1.295.685-1.981l.686-5.18.838.075-.685 5.181c-.077.838-.381 1.6-.762 2.286-.61.838-1.524 1.448-2.59 1.448zM24.98 14.781h-.838v-1.828c0-.99.38-1.981.99-2.743l.915-1.067.609.533-.838 1.067a3.32 3.32 0 00-.838 2.21v1.828z" fill="#2051A3"/><path d="M24.066 14.933l-.839-1.066 1.372-.305.152.838-.686.533z" fill="#2051A3"/><path d="M23.685 15.467l.076-1.372h.838v.076l.305.762-1.22.534z" fill="#2051A3"/><path d="M24.904 15.086l-.534-.686.381-.762 1.22.61-1.067.838z" fill="#2051A3"/><path d="M25.208 15.619l-1.066-.914.533-.61.838.153-.305 1.371zM21.323 15.695h-.838c0-.914.38-1.752 1.066-2.362l.457-.38.534.609-.457.38c-.458.458-.762 1.067-.762 1.753zM27.938 15.383l-.12.83.83.12.12-.83-.83-.12z" fill="#2051A3"/></svg>