<svg width="28" height="28" fill="none" xmlns="http://www.w3.org/2000/svg"><path fill-rule="evenodd" clip-rule="evenodd" d="M7.935 1.76c-.346.107-.709.37-.896.65-.27.405-.319.655-.319 1.65v.885l-.225.62c-.295.818-.612 1.873-.75 2.504-.144.655-.156 1.707-.026 2.235.134.545.37.985.704 1.32l.297.297v6.445c0 7.152-.018 6.769.336 7.257.098.134.286.313.417.396.497.315.195.301 6.52.301 6.412 0 6.104.016 6.59-.337.134-.097.312-.285.396-.416.316-.5.301-.13.301-7.194v-6.452l.297-.297c.333-.334.575-.784.693-1.295.26-1.13.104-2.222-.617-4.295l-.338-.969-.03-1.045-.03-1.044-.167-.338c-.19-.388-.421-.611-.824-.8l-.282-.133-5.906-.01c-5.004-.007-5.941.002-6.14.064zm12.058 1.206c.139.139.142.155.158.828l.017.686H7.832l.017-.692.016-.691.167-.15L8.2 2.8l5.827.013 5.826.013.141.141zM9.52 8.09v2.49l-.189.165c-.418.368-1.128.545-1.634.408-.291-.079-.61-.374-.754-.7-.374-.843-.265-1.91.4-3.923l.306-.929H9.52v2.49zm3.92 0v2.49l-.189.165a2.41 2.41 0 01-.47.298c-.24.112-.354.133-.741.133s-.502-.021-.74-.133a2.413 2.413 0 01-.472-.298l-.188-.165V5.6h2.8v2.49zm3.92.002v2.49l-.19.159c-.106.087-.318.22-.472.296-.242.12-.342.139-.738.138-.52 0-.795-.096-1.18-.411l-.22-.18V5.6h2.8v2.49zm3.298-1.562c.664 2.014.773 3.08.399 3.923-.144.326-.463.621-.754.7-.506.137-1.216-.04-1.634-.408l-.189-.165V5.6h1.871l.307.93zm-10.269 5.28a2.977 2.977 0 003.3.001l.311-.2.31.2c1.03.666 2.27.665 3.302-.001l.313-.203.228.157c.493.339 1.167.554 1.74.556l.267.001v9.52H7.84v-9.52h.267c.572-.003 1.312-.244 1.77-.578.097-.071.182-.13.188-.132.007-.002.152.088.324.2zm9.761 12.117l-.015.966-.142.142-.14.14H8.147l-.141-.14-.142-.142-.015-.966-.016-.966h12.332l-.016.966zm-8.097-.326c-.153.083-.293.313-.293.48 0 .173.143.4.304.483.125.065.438.077 1.936.077s1.811-.012 1.936-.077c.161-.083.304-.31.304-.483 0-.172-.143-.4-.304-.483-.22-.113-3.673-.111-3.883.003z" fill="#2051A3"/></svg>