<svg width="713" height="259" fill="none" xmlns="http://www.w3.org/2000/svg"><path d="M693.263 107.422c0-2.104.408-3.676 1.223-4.716.821-1.045 2.032-1.568 3.633-1.568.552 0 .986.047 1.304.139v1.048a4.174 4.174 0 00-1.289-.183c-1.148 0-2.024.358-2.63 1.076-.605.713-.937 1.836-.996 3.369h.088c.537-.839 1.387-1.259 2.549-1.259.962 0 1.719.29 2.271.871.556.581.834 1.37.834 2.366 0 1.113-.305 1.99-.915 2.629-.606.635-1.426.952-2.461.952-1.108 0-1.987-.415-2.637-1.245-.649-.835-.974-1.994-.974-3.479zm3.596 3.692c.694 0 1.231-.218 1.612-.652.385-.44.578-1.072.578-1.897 0-.708-.178-1.265-.534-1.67-.357-.405-.889-.608-1.597-.608-.439 0-.842.09-1.209.271-.366.181-.659.43-.878.747a1.741 1.741 0 00-.323.989c0 .503.098.972.293 1.406.196.435.471.779.828 1.033.361.254.771.381 1.23.381zm9.588-.286l.227-.681.315-.864 2.175-5.296h1.545V112h-1.076v-6.628l-.147.424-.424 1.121-2.073 5.083h-1.018l-2.073-5.098c-.259-.654-.437-1.164-.535-1.53V112h-1.084v-8.013h1.487l2.102 5.091c.21.537.403 1.12.579 1.75zM53.388 244.812c0 .683-.193 1.242-.579 1.677-.38.434-.923.725-1.626.871v.059c.86.107 1.497.381 1.912.82.415.44.622 1.016.622 1.729 0 1.02-.354 1.806-1.062 2.358-.708.547-1.714.82-3.017.82a8.564 8.564 0 01-1.56-.131 5.224 5.224 0 01-1.37-.447v-1.157a6.848 6.848 0 002.974.703c1.85 0 2.776-.725 2.776-2.176 0-1.298-1.021-1.948-3.062-1.948h-1.055v-1.047h1.07c.835 0 1.496-.183 1.984-.549.489-.372.733-.884.733-1.539 0-.522-.18-.932-.542-1.23-.356-.298-.842-.447-1.458-.447-.468 0-.91.064-1.325.191-.415.127-.889.361-1.421.703l-.615-.821c.44-.346.944-.617 1.516-.813a5.5 5.5 0 011.816-.3c1.04 0 1.848.239 2.424.718.577.474.865 1.125.865 1.956zm6.672 7.016l.227-.681.315-.864 2.175-5.296h1.546V253h-1.077v-6.628l-.146.424-.425 1.121L60.602 253h-1.018l-2.073-5.098c-.259-.654-.437-1.164-.534-1.53V253h-1.084v-8.013h1.486l2.102 5.091c.21.537.403 1.12.58 1.75zM384.875 253h-1.186v-7.632c0-.635.019-1.235.059-1.802-.103.103-.218.21-.345.323-.127.112-.708.588-1.743 1.428l-.644-.835 2.834-2.19h1.025V253zm7.427-6.541c1.128 0 2.014.281 2.659.843.649.556.974 1.321.974 2.292 0 1.109-.354 1.978-1.062 2.608-.703.63-1.675.944-2.915.944-1.206 0-2.126-.192-2.761-.578v-1.172c.342.22.766.393 1.274.52a6.412 6.412 0 001.502.183c.859 0 1.526-.203 1.999-.608.479-.405.718-.991.718-1.758 0-1.494-.916-2.241-2.747-2.241-.464 0-1.084.071-1.86.213l-.63-.403.403-5.01h5.325v1.121h-4.285l-.271 3.215a8.564 8.564 0 011.677-.169zm9.961 5.369l.227-.681.315-.864 2.175-5.296h1.546V253h-1.077v-6.628l-.146.424-.425 1.121-2.073 5.083h-1.018l-2.073-5.098c-.258-.654-.437-1.164-.534-1.53V253h-1.084v-8.013h1.487l2.102 5.091c.21.537.402 1.12.578 1.75z" fill="#425571"/><path fill="#119C6F" stroke="#119C6F" d="M2.5.5v223.73h658.13V.5z"/><path d="M5 94H0v36h5V94z" fill="#F1F1F1"/><rect x="7" y="6" width="101" height="31.341" rx="2.869" fill="#fff"/><path d="M19.146 20.438c0 .562-.18 1.019-.539 1.37-.355.352-.847.575-1.476.669v.046c.715.098 1.256.323 1.623.674.371.352.556.81.556 1.377 0 .801-.298 1.426-.896 1.875-.598.445-1.441.668-2.531.668-.996 0-1.813-.154-2.45-.463v-.925c.376.18.78.318 1.213.416.438.097.858.146 1.26.146.774 0 1.358-.146 1.752-.44.399-.292.598-.714.598-1.265 0-.523-.22-.92-.662-1.19-.438-.269-1.092-.404-1.963-.404h-1.277v-.838h1.224c.8 0 1.42-.142 1.858-.427.441-.29.662-.692.662-1.207 0-.418-.159-.752-.475-1.002-.316-.25-.742-.375-1.277-.375-.43 0-.819.048-1.166.146-.348.098-.75.291-1.207.58l-.493-.668a4.297 4.297 0 011.325-.662 5.14 5.14 0 011.529-.229c.879 0 1.566.194 2.063.58.5.383.75.9.75 1.547zm7.4 3.345c0 1.047-.263 1.865-.79 2.455-.527.586-1.256.88-2.186.88-.574 0-1.084-.136-1.529-.405a2.668 2.668 0 01-1.031-1.16c-.242-.504-.364-1.094-.364-1.77 0-1.047.262-1.861.786-2.443.523-.586 1.25-.88 2.18-.88.898 0 1.61.3 2.138.897.531.598.797 1.407.797 2.426zm-4.892 0c0 .82.164 1.445.492 1.875.329.43.811.645 1.448.645.636 0 1.119-.213 1.447-.639.332-.43.498-1.057.498-1.88 0-.817-.166-1.436-.498-1.858-.328-.426-.814-.639-1.459-.639-.637 0-1.117.21-1.441.627-.325.418-.487 1.041-.487 1.87zm7.576-3.205v2.69h3.598v-2.69h.973V27h-.973v-2.895H29.23V27h-.972v-6.422h.973zM39.813 27l-.193-.914h-.047c-.32.402-.64.676-.96.82-.317.14-.714.211-1.19.211-.637 0-1.137-.164-1.5-.492-.36-.328-.54-.795-.54-1.4 0-1.297 1.038-1.977 3.112-2.04l1.09-.035v-.398c0-.504-.11-.875-.328-1.113-.215-.242-.56-.364-1.037-.364-.535 0-1.14.165-1.817.493l-.299-.745a4.588 4.588 0 011.038-.404 4.541 4.541 0 011.136-.146c.766 0 1.332.17 1.7.51.37.34.556.884.556 1.634V27h-.72zm-2.197-.686c.606 0 1.08-.166 1.424-.498.348-.332.521-.796.521-1.394v-.58l-.972.04c-.773.028-1.332.15-1.676.364-.34.211-.51.541-.51.99 0 .352.106.62.317.803.215.184.513.275.896.275zM50.87 22.19c0 .418-.121.737-.363.956-.238.214-.574.359-1.008.433v.053c.547.074.945.234 1.195.48.254.246.381.586.381 1.02 0 .598-.22 1.058-.662 1.383-.437.324-1.078.486-1.922.486h-2.83v-6.422h2.819c1.593 0 2.39.537 2.39 1.611zm-.767 2.877c0-.347-.133-.6-.399-.755-.262-.16-.697-.24-1.306-.24h-1.764v2.114h1.787c1.121 0 1.682-.372 1.682-1.119zm-.182-2.783c0-.312-.121-.533-.363-.662-.239-.133-.602-.2-1.09-.2h-1.834v1.811h1.646c.602 0 1.026-.074 1.272-.222.246-.149.369-.39.369-.727zm3.545.95h1.752c.816 0 1.42.152 1.81.456.395.301.592.752.592 1.354 0 .645-.209 1.133-.627 1.465-.414.328-1.025.492-1.834.492h-2.666v-6.422h.973v2.654zM59.67 27h-.973v-6.422h.973V27zm-6.205-2.93v2.116h1.646c1.032 0 1.547-.362 1.547-1.084 0-.36-.119-.622-.357-.786-.239-.164-.645-.246-1.219-.246h-1.617zm12.017-3.492h1.067l-2.772 3.1 3 3.322h-1.136l-2.93-3.252V27h-.973v-6.422h.973v3.123l2.771-3.123zM72.76 27h-.985v-5.59h-1.927c-.106 1.39-.252 2.494-.44 3.31-.187.817-.431 1.415-.732 1.794-.297.379-.676.568-1.137.568a1.47 1.47 0 01-.504-.07v-.721c.086.023.184.035.293.035.45 0 .807-.474 1.072-1.424.266-.949.467-2.39.604-4.324h3.756V27zm6.017 0l-.193-.914h-.047c-.32.402-.64.676-.96.82-.317.14-.714.211-1.19.211-.637 0-1.137-.164-1.5-.492-.36-.328-.54-.795-.54-1.4 0-1.297 1.038-1.977 3.112-2.04l1.09-.035v-.398c0-.504-.11-.875-.328-1.113-.215-.242-.56-.364-1.037-.364-.536 0-1.141.165-1.817.493l-.299-.745a4.588 4.588 0 011.038-.404 4.541 4.541 0 011.136-.146c.766 0 1.332.17 1.7.51.37.34.556.884.556 1.634V27h-.72zm-2.197-.686c.606 0 1.08-.166 1.424-.498.348-.332.521-.796.521-1.394v-.58l-.972.04c-.774.028-1.332.15-1.676.364-.34.211-.51.541-.51.99 0 .352.106.62.317.803.214.184.513.275.896.275zm10.506 2.907h-.943V27h-4.489v2.22h-.937v-3.058h.504c.523-.71.933-1.545 1.23-2.502.297-.957.451-1.984.463-3.082h3.252v5.584h.92v3.059zm-1.858-3.059v-4.816h-1.44c-.052.867-.22 1.746-.505 2.636-.281.887-.633 1.614-1.055 2.18h3zm6.891-5.584h1.067l-2.772 3.1 3 3.322h-1.137l-2.93-3.252V27h-.972v-6.422h.973v3.123l2.771-3.123zm3.404 0v4.072l-.04 1.067-.018.334 3.474-5.473h1.213V27h-.908v-3.926l.018-.773.029-.762L95.822 27H94.61v-6.422h.914z" fill="#181F29"/><rect x="121.502" y="4.502" width="31.996" height="50.996" rx="1.498" stroke="#fff" stroke-width="1.004"/><rect x="155.502" y="4.502" width="30.996" height="50.996" rx="1.498" stroke="#fff" stroke-width="1.004"/><rect x="188.502" y="4.502" width="31.996" height="50.996" rx="1.498" stroke="#fff" stroke-width="1.004"/><rect x="222.502" y="4.502" width="30.996" height="50.996" rx="1.498" stroke="#fff" stroke-width="1.004"/><rect x="255.502" y="4.502" width="31.996" height="50.996" rx="1.498" stroke="#fff" stroke-width="1.004"/><rect x="289.502" y="4.502" width="30.996" height="50.996" rx="1.498" stroke="#fff" stroke-width="1.004"/><rect x="322.502" y="4.502" width="31.996" height="50.996" rx="1.498" stroke="#fff" stroke-width="1.004"/><rect x="356.502" y="4.502" width="30.996" height="50.996" rx="1.498" stroke="#fff" stroke-width="1.004"/><rect x="389.502" y="4.502" width="31.996" height="50.996" rx="1.498" stroke="#fff" stroke-width="1.004"/><rect x="423.502" y="4.502" width="30.996" height="50.996" rx="1.498" stroke="#fff" stroke-width="1.004"/><rect x="456.502" y="4.502" width="31.996" height="50.996" rx="1.498" stroke="#fff" stroke-width="1.004"/><rect x="490.502" y="4.502" width="30.996" height="50.996" rx="1.498" stroke="#fff" stroke-width="1.004"/><rect x="523.502" y="4.502" width="31.996" height="50.996" rx="1.498" stroke="#fff" stroke-width="1.004"/><rect x="557.502" y="4.502" width="30.996" height="50.996" rx="1.498" stroke="#fff" stroke-width="1.004"/><rect x="590.502" y="4.502" width="31.996" height="50.996" rx="1.498" stroke="#fff" stroke-width="1.004"/><rect x="624.502" y="4.502" width="30.996" height="50.996" rx="1.498" stroke="#fff" stroke-width="1.004"/><rect x="121.502" y="168.502" width="31.996" height="50.996" rx="1.498" stroke="#fff" stroke-width="1.004"/><rect x="155.502" y="168.502" width="30.996" height="50.996" rx="1.498" stroke="#fff" stroke-width="1.004"/><rect x="188.502" y="168.502" width="31.996" height="50.996" rx="1.498" stroke="#fff" stroke-width="1.004"/><rect x="222.502" y="168.502" width="30.996" height="50.996" rx="1.498" stroke="#fff" stroke-width="1.004"/><rect x="255.502" y="168.502" width="31.996" height="50.996" rx="1.498" stroke="#fff" stroke-width="1.004"/><rect x="289.502" y="168.502" width="30.996" height="50.996" rx="1.498" stroke="#fff" stroke-width="1.004"/><rect x="322.502" y="168.502" width="31.996" height="50.996" rx="1.498" stroke="#fff" stroke-width="1.004"/><rect x="356.502" y="168.502" width="30.996" height="50.996" rx="1.498" stroke="#fff" stroke-width="1.004"/><rect x="389.502" y="168.502" width="31.996" height="50.996" rx="1.498" stroke="#fff" stroke-width="1.004"/><rect x="423.502" y="168.502" width="30.996" height="50.996" rx="1.498" stroke="#fff" stroke-width="1.004"/><rect x="456.502" y="168.502" width="31.996" height="50.996" rx="1.498" stroke="#fff" stroke-width="1.004"/><rect x="490.502" y="168.502" width="30.996" height="50.996" rx="1.498" stroke="#fff" stroke-width="1.004"/><rect x="523.502" y="168.502" width="31.996" height="50.996" rx="1.498" stroke="#fff" stroke-width="1.004"/><rect x="557.502" y="168.502" width="30.996" height="50.996" rx="1.498" stroke="#fff" stroke-width="1.004"/><rect x="590.502" y="168.502" width="31.996" height="50.996" rx="1.498" stroke="#fff" stroke-width="1.004"/><rect x="624.502" y="168.502" width="30.996" height="50.996" rx="1.498" stroke="#fff" stroke-width="1.004"/><path opacity=".2" stroke="#fff" stroke-linecap="round" stroke-dasharray="13.89 13.89" d="M114.706 2.816v215.621"/><rect x="7" y="188" width="103" height="31" rx="2.869" fill="#fff"/><path d="M51.613 203.705c0 1.371-.347 2.449-1.043 3.234-.691.786-1.654 1.178-2.888 1.178-1.262 0-2.237-.385-2.924-1.154-.684-.774-1.026-1.863-1.026-3.27 0-1.394.344-2.474 1.032-3.24.687-.769 1.664-1.154 2.93-1.154 1.23 0 2.19.39 2.882 1.172.692.781 1.037 1.859 1.037 3.234zm-6.826 0c0 1.16.246 2.041.738 2.643.497.597 1.215.896 2.157.896.949 0 1.666-.299 2.15-.896.484-.598.727-1.479.727-2.643 0-1.152-.243-2.025-.727-2.619-.48-.598-1.193-.897-2.139-.897-.949 0-1.671.301-2.168.903-.492.597-.738 1.469-.738 2.613zm15.475 1.078c0 .973-.278 1.748-.832 2.326-.551.575-1.323.903-2.315.985v2.789h-.96v-2.789c-.97-.074-1.735-.406-2.298-.996-.562-.59-.843-1.362-.843-2.315 0-.972.279-1.746.838-2.32.562-.574 1.341-.901 2.338-.979v-2.601h.925v2.601c.98.09 1.75.428 2.309 1.014.558.586.838 1.348.838 2.285zm-6.229 0c0 .75.172 1.338.516 1.764.344.426.89.674 1.64.744v-4.992c-.722.066-1.263.303-1.623.709-.355.402-.533.994-.533 1.775zm5.22 0c0-1.496-.712-2.32-2.138-2.472v4.98c.742-.074 1.283-.324 1.623-.75.344-.426.516-1.012.516-1.758zm3.622-3.205v4.072l-.041 1.067-.018.334 3.475-5.473h1.213V208h-.908v-3.926l.017-.773.03-.762-3.47 5.461h-1.212v-6.422h.914zm9.258 6.539c-.93 0-1.65-.285-2.162-.855-.508-.574-.762-1.385-.762-2.432 0-1.074.258-1.904.773-2.49.52-.586 1.258-.879 2.215-.879.309 0 .617.033.926.1.309.066.55.144.727.234l-.3.826a4.396 4.396 0 00-.702-.211 3.077 3.077 0 00-.674-.088c-1.305 0-1.957.832-1.957 2.496 0 .789.158 1.395.474 1.817.32.422.793.633 1.418.633.535 0 1.084-.116 1.647-.346v.861c-.43.223-.97.334-1.623.334z" fill="#181F29"/></svg>