<svg width="264" height="260" fill="none" xmlns="http://www.w3.org/2000/svg"><path fill="#2051A3" d="M2 0h220.747v224.61H2z"/><path d="M5 94H0v36h5V94z" fill="#F1F1F1"/><rect x="7" y="6" width="101" height="32" rx="2.869" fill="#fff"/><path d="M19.146 19.438c0 .562-.18 1.019-.539 1.37-.355.352-.847.575-1.476.669v.046c.715.098 1.256.323 1.623.674.371.352.556.81.556 1.377 0 .801-.298 1.426-.896 1.875-.598.445-1.441.668-2.531.668-.996 0-1.813-.154-2.45-.463v-.925c.376.18.78.318 1.213.416.438.097.858.146 1.26.146.774 0 1.358-.146 1.752-.44.399-.292.598-.714.598-1.265 0-.523-.22-.92-.662-1.19-.438-.269-1.092-.404-1.963-.404h-1.277v-.838h1.224c.8 0 1.42-.142 1.858-.427.441-.29.662-.692.662-1.207 0-.418-.159-.752-.475-1.002-.316-.25-.742-.375-1.277-.375-.43 0-.819.048-1.166.146-.348.098-.75.291-1.207.58l-.493-.668a4.297 4.297 0 011.325-.662 5.14 5.14 0 011.529-.229c.879 0 1.566.194 2.063.58.5.383.75.9.75 1.547zm7.4 3.345c0 1.047-.263 1.865-.79 2.455-.527.586-1.256.88-2.186.88-.574 0-1.084-.136-1.529-.405a2.668 2.668 0 01-1.031-1.16c-.242-.504-.364-1.094-.364-1.77 0-1.047.262-1.861.786-2.443.523-.586 1.25-.88 2.18-.88.898 0 1.61.3 2.138.897.531.598.797 1.407.797 2.426zm-4.892 0c0 .82.164 1.445.492 1.875.329.43.811.645 1.448.645.636 0 1.119-.213 1.447-.639.332-.43.498-1.057.498-1.88 0-.817-.166-1.436-.498-1.858-.328-.426-.814-.639-1.459-.639-.637 0-1.117.21-1.441.627-.325.418-.487 1.041-.487 1.87zm7.576-3.205v2.69h3.598v-2.69h.973V26h-.973v-2.895H29.23V26h-.972v-6.422h.973zM39.813 26l-.193-.914h-.047c-.32.402-.64.676-.96.82-.317.14-.714.211-1.19.211-.637 0-1.137-.164-1.5-.492-.36-.328-.54-.795-.54-1.4 0-1.297 1.038-1.977 3.112-2.04l1.09-.035v-.398c0-.504-.11-.875-.328-1.113-.215-.242-.56-.364-1.037-.364-.535 0-1.14.165-1.817.493l-.299-.745a4.588 4.588 0 011.038-.404 4.541 4.541 0 011.136-.146c.766 0 1.332.17 1.7.51.37.34.556.884.556 1.634V26h-.72zm-2.197-.686c.606 0 1.08-.166 1.424-.498.348-.332.521-.796.521-1.394v-.58l-.972.04c-.773.028-1.332.15-1.676.364-.34.211-.51.541-.51.99 0 .352.106.62.317.803.215.184.513.275.896.275zM54.96 21.19c0 .418-.121.737-.363.956-.239.214-.574.359-1.008.433v.053c.547.074.945.234 1.195.48.254.246.381.586.381 1.02 0 .598-.22 1.058-.662 1.383-.438.324-1.078.486-1.922.486h-2.83v-6.422h2.818c1.594 0 2.391.537 2.391 1.611zm-.768 2.877c0-.347-.132-.6-.398-.755-.262-.16-.697-.24-1.307-.24h-1.763v2.114h1.787c1.12 0 1.681-.372 1.681-1.119zm-.181-2.783c0-.312-.121-.533-.363-.662-.239-.133-.602-.2-1.09-.2h-1.834v1.811h1.646c.602 0 1.026-.074 1.272-.222.246-.149.369-.39.369-.727zm3.545.95h1.752c.816 0 1.42.152 1.81.456.395.301.592.752.592 1.354 0 .645-.209 1.133-.627 1.465-.414.328-1.025.492-1.834.492h-2.666v-6.422h.973v2.654zM63.76 26h-.973v-6.422h.973V26zm-6.205-2.93v2.116H59.2c1.031 0 1.547-.362 1.547-1.084 0-.36-.12-.622-.357-.786-.239-.164-.645-.246-1.22-.246h-1.616zm12.017-3.492h1.067l-2.772 3.1 3 3.322h-1.136l-2.93-3.252V26h-.973v-6.422h.973v3.123l2.771-3.123zM76.85 26h-.985v-5.59h-1.927c-.106 1.39-.252 2.494-.44 3.31-.188.817-.432 1.415-.732 1.794-.297.379-.676.568-1.137.568a1.47 1.47 0 01-.504-.07v-.721c.086.023.184.035.293.035.45 0 .807-.474 1.072-1.424.266-.949.467-2.39.604-4.324h3.756V26zm6.017 0l-.193-.914h-.047c-.32.402-.64.676-.961.82-.316.14-.713.211-1.19.211-.636 0-1.136-.164-1.5-.492-.359-.328-.538-.795-.538-1.4 0-1.297 1.037-1.977 3.11-2.04l1.09-.035v-.398c0-.504-.109-.875-.328-1.113-.214-.242-.56-.364-1.037-.364-.535 0-1.14.165-1.816.493l-.299-.745a4.588 4.588 0 011.037-.404 4.541 4.541 0 011.137-.146c.766 0 1.332.17 1.7.51.37.34.556.884.556 1.634V26h-.72zm-2.197-.686c.605 0 1.08-.166 1.424-.498.347-.332.521-.796.521-1.394v-.58l-.972.04c-.774.028-1.332.15-1.676.364-.34.211-.51.541-.51.99 0 .352.106.62.316.803.215.184.514.275.897.275zm10.506 2.907h-.944V26h-4.488v2.22h-.937v-3.058h.504c.523-.71.933-1.545 1.23-2.502a10.74 10.74 0 00.463-3.082h3.252v5.584h.92v3.059zm-1.858-3.059v-4.816h-1.441c-.05.867-.219 1.746-.504 2.636-.281.887-.633 1.614-1.055 2.18h3zm6.891-5.584h1.066l-2.771 3.1 3 3.322h-1.137l-2.93-3.252V26h-.972v-6.422h.972v3.123l2.772-3.123zm3.404 0v4.072l-.04 1.067-.018.334 3.474-5.473h1.213V26h-.908v-3.926l.018-.773.029-.762L99.912 26H98.7v-6.422h.914z" fill="#181F29"/><rect x="7" y="186" width="103" height="31" rx="2.869" fill="#fff"/><path d="M51.613 201.705c0 1.371-.347 2.449-1.043 3.234-.691.786-1.654 1.178-2.888 1.178-1.262 0-2.237-.385-2.924-1.154-.684-.774-1.026-1.863-1.026-3.27 0-1.394.344-2.474 1.032-3.24.687-.769 1.664-1.154 2.93-1.154 1.23 0 2.19.39 2.882 1.172.692.781 1.037 1.859 1.037 3.234zm-6.826 0c0 1.16.246 2.041.738 2.643.497.597 1.215.896 2.157.896.949 0 1.666-.299 2.15-.896.484-.598.727-1.479.727-2.643 0-1.152-.243-2.025-.727-2.619-.48-.598-1.193-.897-2.139-.897-.949 0-1.671.301-2.168.903-.492.597-.738 1.469-.738 2.613zm15.475 1.078c0 .973-.278 1.748-.832 2.326-.551.575-1.323.903-2.315.985v2.789h-.96v-2.789c-.97-.074-1.735-.406-2.298-.996-.562-.59-.843-1.362-.843-2.315 0-.972.279-1.746.838-2.32.562-.574 1.341-.901 2.338-.979v-2.601h.925v2.601c.98.09 1.75.428 2.309 1.014.558.586.838 1.348.838 2.285zm-6.229 0c0 .75.172 1.338.516 1.764.344.426.89.674 1.64.744v-4.992c-.722.066-1.263.303-1.623.709-.355.402-.533.994-.533 1.775zm5.22 0c0-1.496-.712-2.32-2.138-2.472v4.98c.742-.074 1.283-.324 1.623-.75.344-.426.516-1.012.516-1.758zm3.622-3.205v4.072l-.041 1.067-.018.334 3.475-5.473h1.213V206h-.908v-3.926l.017-.773.03-.762-3.47 5.461h-1.212v-6.422h.914zm9.258 6.539c-.93 0-1.65-.285-2.162-.855-.508-.574-.762-1.385-.762-2.432 0-1.074.258-1.904.773-2.49.52-.586 1.258-.879 2.215-.879.309 0 .617.033.926.1.309.066.55.144.727.234l-.3.826a4.396 4.396 0 00-.702-.211 3.077 3.077 0 00-.674-.088c-1.305 0-1.957.832-1.957 2.496 0 .789.158 1.395.474 1.817.32.422.793.633 1.418.633.535 0 1.084-.116 1.647-.346v.861c-.43.223-.97.334-1.623.334z" fill="#181F29"/><path stroke="#fff" stroke-opacity=".2" stroke-width="1.004" stroke-linecap="round" stroke-linejoin="bevel" stroke-dasharray="10.45 10.45" d="M114.174 3.114v218.382"/><rect x="119.502" y="6.502" width="30.996" height="50.996" rx="1.498" stroke="#fff" stroke-width="1.004"/><rect x="152.502" y="6.502" width="31.996" height="50.996" rx="1.498" stroke="#fff" stroke-width="1.004"/><rect x="186.502" y="6.502" width="30.996" height="50.996" rx="1.498" stroke="#fff" stroke-width="1.004"/><path d="M50.253 245.812c0 .683-.193 1.242-.579 1.677-.38.434-.922.725-1.626.871v.059c.86.107 1.497.381 1.912.82.415.44.623 1.016.623 1.729 0 1.02-.355 1.806-1.063 2.358-.708.547-1.713.82-3.017.82a8.562 8.562 0 01-1.56-.131 5.225 5.225 0 01-1.37-.447v-1.157a6.85 6.85 0 002.974.703c1.85 0 2.776-.725 2.776-2.176 0-1.298-1.02-1.948-3.062-1.948h-1.055v-1.047h1.07c.835 0 1.496-.183 1.985-.549.488-.372.732-.884.732-1.539 0-.522-.18-.932-.542-1.23-.356-.298-.842-.447-1.457-.447-.47 0-.911.064-1.326.191-.415.127-.889.361-1.42.703l-.616-.821c.44-.346.945-.617 1.516-.813a5.5 5.5 0 011.816-.3c1.04 0 1.849.239 2.425.718.576.474.864 1.125.864 1.956zm6.672 7.016l.227-.681.315-.864 2.176-5.296h1.545V254h-1.077v-6.628l-.146.424-.425 1.121L57.467 254H56.45l-2.072-5.098c-.26-.654-.438-1.164-.535-1.53V254h-1.084v-8.013h1.487l2.102 5.091c.21.537.402 1.12.578 1.75zM169.457 245.812c0 .683-.193 1.242-.579 1.677-.381.434-.923.725-1.626.871v.059c.859.107 1.497.381 1.912.82.415.44.622 1.016.622 1.729 0 1.02-.354 1.806-1.062 2.358-.708.547-1.714.82-3.017.82a8.571 8.571 0 01-1.561-.131 5.225 5.225 0 01-1.369-.447v-1.157a6.855 6.855 0 002.973.703c1.851 0 2.776-.725 2.776-2.176 0-1.298-1.02-1.948-3.061-1.948h-1.055v-1.047h1.069c.835 0 1.497-.183 1.985-.549.489-.372.733-.884.733-1.539 0-.522-.181-.932-.542-1.23-.357-.298-.843-.447-1.458-.447-.468 0-.91.064-1.325.191-.415.127-.889.361-1.421.703l-.616-.821a5.11 5.11 0 011.517-.813c.576-.2 1.181-.3 1.816-.3 1.04 0 1.848.239 2.424.718.576.474.865 1.125.865 1.956zm6.672 7.016l.227-.681.315-.864 2.175-5.296h1.546V254h-1.077v-6.628l-.147.424-.424 1.121-2.073 5.083h-1.018l-2.073-5.098c-.259-.654-.437-1.164-.535-1.53V254h-1.084v-8.013h1.487l2.102 5.091c.21.537.403 1.12.579 1.75zM244.41 117.422c0-2.104.407-3.676 1.223-4.716.82-1.045 2.031-1.568 3.633-1.568.551 0 .986.047 1.303.139v1.048a4.17 4.17 0 00-1.289-.183c-1.147 0-2.024.358-2.629 1.076-.606.713-.938 1.836-.996 3.369h.088c.537-.839 1.386-1.259 2.549-1.259.961 0 1.718.29 2.27.871.557.581.835 1.37.835 2.366 0 1.113-.305 1.99-.916 2.629-.605.635-1.425.952-2.46.952-1.109 0-1.988-.415-2.637-1.245-.65-.835-.974-1.994-.974-3.479zm3.596 3.692c.693 0 1.23-.218 1.611-.652.386-.44.579-1.072.579-1.897 0-.708-.178-1.265-.535-1.67-.356-.405-.889-.608-1.597-.608-.439 0-.842.09-1.208.271-.366.181-.659.43-.879.747a1.74 1.74 0 00-.322.989c0 .503.097.972.293 1.406.195.435.471.779.827 1.033a2.09 2.09 0 001.231.381zm9.587-.286l.227-.681.315-.864 2.176-5.296h1.545V122h-1.077v-6.628l-.146.424-.425 1.121-2.073 5.083h-1.018l-2.073-5.098c-.258-.654-.437-1.164-.534-1.53V122h-1.084v-8.013h1.487l2.102 5.091c.21.537.402 1.12.578 1.75z" fill="#425571"/></svg>