<svg width="28" height="28" fill="none" xmlns="http://www.w3.org/2000/svg"><path fill-rule="evenodd" clip-rule="evenodd" d="M14.102 1.633c-1.95.205-2.34.257-2.695.355-.949.263-1.713.863-2.112 1.66-.072.143-.131.3-.131.349 0 .065-.03.08-.115.059a64.695 64.695 0 01-.522-.136c-1.144-.302-2.159.254-2.645 1.45-.12.298-.124.301-.423.383-.902.247-1.612.93-1.928 1.858-.136.397-.14.441-.16 1.818-.034 2.268.097 3.795.38 4.43.1.223.125.344.104.51l-.158 1.209a37.879 37.879 0 00-.315 3.818c-.03.97-.044 1.076-.183 1.502-.083.252-.456 1.054-.829 1.782-.373.728-.73 1.484-.795 1.68-.316.964-.004 1.816.764 2.09.181.065.564.093 1.76.128 1.714.05 2.1.086 3.14.3 1.637.337 2.982.432 5.565.394 1.909-.028 3.023-.102 4.414-.292l.75-.103.498.108c.778.17 2.278.195 3.114.053.688-.117 1.638-.413 2.15-.67 1.469-.734 2.552-1.977 2.957-3.394.17-.595.158-1.514-.027-2.076-.178-.543-.44-.97-.889-1.453-.575-.62-1.258-1.025-1.976-1.173l-.31-.064-.252-2.019-.251-2.018.097-.222c.282-.647.406-1.912.412-4.175l.003-1.756-.143-.405c-.285-.806-.738-1.318-1.504-1.696-.362-.18-.41-.19-.87-.19-.267 0-.543.018-.613.04-.117.037-.14.015-.28-.253-.343-.66-1-1.128-1.65-1.175l-.347-.025-.03-.464c-.045-.72-.315-1.382-.713-1.749-.617-.569-1.322-.67-3.242-.468zm2.33 1.165c.422.24.643 1.033.45 1.614l-.083.251-.827.325c-1.14.448-1.998.823-2.318 1.012l-.27.16-.341-.275c-.446-.36-.929-.615-1.894-.999-.434-.173-.82-.34-.858-.37-.113-.094-.03-.379.197-.68.348-.461.76-.696 1.46-.834.636-.125 3.043-.348 3.656-.338.544.008.634.023.828.134zm-7.788 2.29c.57.193 2.929 1.176 3.244 1.351.468.26.763.547.947.922.2.405.22.712.064.92-.124.166-.202.172-.904.071-.751-.109-1.263.007-1.788.405L9.885 9l-.45-.514c-.247-.283-.697-.802-1-1.153-.609-.709-.97-1.059-1.295-1.256-.119-.072-.216-.164-.216-.204 0-.224.327-.733.555-.863.18-.102.75-.064 1.165.077zm10.167.562c.185.18.433.618.433.766 0 .046-.05.128-.11.181-.322.288-2.067 2.312-2.334 2.71-.2.298-.163.296-.74.04a7.848 7.848 0 00-1.068-.34l-.849-.207-.188-.046.074-.178c.129-.307.14-.725.032-1.104-.114-.401-.118-.394.372-.639.412-.206 2.916-1.214 3.247-1.307.146-.041.42-.07.608-.063.313.012.358.027.523.187zM6.299 6.9c.281.14.918.762 1.876 1.83.781.871 1.109 1.297 1.303 1.69.158.323.17.379.17.866 0 .75.015.74-.89.558-1.864-.377-3.073-.902-3.754-1.63-.395-.421-.496-.735-.494-1.534 0-.648.102-.985.405-1.338.187-.22.812-.571 1.013-.571.06 0 .228.058.371.13zm15.125.051c.425.213.675.48.828.885.224.595.157 1.561-.14 2.01-.642.97-1.711 1.527-3.772 1.964-.824.174-.943.183-1.03.078-.035-.042-.075-.267-.09-.502-.053-.864.197-1.253 2.278-3.54.58-.638.892-.908 1.154-1.001.29-.104.376-.092.772.106zm-9.302 2.542c.592.103 2.722.612 3.105.741.174.059.443.17.598.25l.282.142.008.605c.005.333.025.676.046.763l.038.159-.349.033c-.95.092-1.702.131-2.512.132-.834.001-2.104-.065-2.484-.128l-.168-.029.04-.239c.073-.425.036-1.178-.074-1.52l-.1-.315.122-.216c.14-.248.235-.331.45-.397.228-.07.523-.065.998.019zm10.209 2.366c-.042.69-.158 1.373-.275 1.618-.202.422-1.3 1.06-2.462 1.43-1.548.492-3.087.703-5.518.756-2.901.062-5.297-.226-7.076-.85-.617-.217-1.47-.665-1.847-.969-.267-.216-.321-.29-.413-.568a4.521 4.521 0 01-.156-.727c-.057-.479-.098-1.197-.067-1.197.011 0 .163.1.336.224 1.024.727 2.472 1.196 4.972 1.611 1.19.198 3.536.294 5.04.206 3.421-.2 6.06-.907 7.27-1.948a.89.89 0 01.198-.143c.017 0 .016.25-.002.557zM6.105 15.657c1.23.515 2.92.878 4.89 1.05.96.083 3.933.083 4.888-.001 2.352-.206 4.078-.623 5.443-1.314.348-.177.638-.316.643-.31.03.037.392 3.147.37 3.17a2.474 2.474 0 01-.379.127c-.547.156-1.241.517-2.015 1.048a31.37 31.37 0 01-1.636 1.024c-1.222.71-1.612.981-2.07 1.44-.686.688-.943 1.36-.906 2.372.018.489.04.604.162.853.077.158.256.413.396.567.17.186.233.287.187.302-.179.06-1.704.139-3.174.166-2.365.044-4.048-.069-5.466-.366-1.044-.218-1.226-.235-2.884-.278-1.876-.048-2.01-.073-2.01-.373 0-.266.169-.698.57-1.456 1.305-2.472 1.301-2.461 1.368-4.13.06-1.533.241-3.587.384-4.357l.029-.158.387.22c.213.122.583.303.823.404zm17.475 3.694c.492.103.801.288 1.275.76.245.243.446.462.446.487 0 .025-.068.048-.15.05-.195.007-.402.145-.463.307-.095.248-.058.427.124.61.205.205.424.228.68.07.093-.055.179-.1.192-.1.057 0 .017.82-.054 1.096-.401 1.56-1.953 2.849-3.924 3.256-.455.093-1.386.19-1.451.149-.025-.015-.046-.09-.046-.165-.002-.242-.26-.468-.535-.468-.264 0-.533.248-.533.49 0 .064-.041.073-.217.046-.67-.105-1.494-.441-1.96-.8a1.894 1.894 0 01-.403-.433c-.12-.206-.129-.258-.11-.717.019-.444.039-.528.193-.816.294-.549.69-.86 2.242-1.764a26.59 26.59 0 001.502-.94c1.407-.987 2.311-1.303 3.192-1.118zm-1.11 1.34a.55.55 0 00-.036.99.534.534 0 00.778-.48c.002-.249-.108-.418-.334-.512-.204-.085-.208-.085-.409.002zm.902 1.792c-.252.176-.308.574-.114.802a.55.55 0 00.974-.369c0-.253-.278-.516-.544-.516a.653.653 0 00-.316.083zm-5.567 1.083c-.143.128-.166.183-.166.386 0 .204.023.259.166.386a.485.485 0 00.368.149.485.485 0 00.369-.149c.143-.127.166-.182.166-.386 0-.203-.023-.258-.166-.386a.485.485 0 00-.369-.148.485.485 0 00-.368.148zm3.296.093a.558.558 0 00-.461.652c.106.569.97.558 1.077-.013.068-.362-.262-.704-.616-.639z" fill="#EB5757"/></svg>