<svg width="276" height="169" fill="none" xmlns="http://www.w3.org/2000/svg"><g clip-path="url(#clip0)" fill="#181F29"><path d="M37.184 77.644l4.237-6.585 15.194 14.076-4.238 18.729-15.193-26.22z"/><path d="M37.363 77.644l14.891 25.736 4.117-18.124L41.419 71.42l-4.056 6.223zm14.83 26.34L37 77.704v-.181l4.237-6.525.303-.06 15.254 14.076.061.181-4.237 18.729-.424.06zM104.376 87.611h2.542c1.151 0 3.693-.18 3.693-3.02s-2.542-3.021-3.693-3.021h-2.542v6.041zm-4.298-10.21h6.477c7.446 0 8.293 5.015 8.293 7.25 0 2.9-1.574 7.129-8.293 7.129h-2.179v8.76h-4.298V77.401zM121.927 88.457h2.542c1.029 0 4.298-.12 4.298-3.444 0-3.322-3.269-3.443-4.298-3.443h-2.542v6.887zm-4.298-11.056h6.719c7.809 0 8.717 5.136 8.717 7.37 0 3.686-2.482 6.888-6.235 7.25l6.538 8.519h-5.267l-5.993-8.518h-.06v8.518h-4.298V77.401h-.121zM154.74 89c0-4.289-3.39-7.853-7.93-7.853-4.54 0-7.93 3.504-7.93 7.854s3.39 7.914 7.869 7.914c4.661.06 7.991-3.564 7.991-7.914zm4.298.121c0 6.707-5.327 12.023-12.228 12.023s-12.228-5.317-12.228-12.023c0-6.706 5.266-12.082 12.228-12.082 6.961-.06 12.228 5.376 12.228 12.082z"/><path d="M178.95 77.401l-7.99 11.6 7.99 11.539h-5.024l-5.508-7.975-5.448 7.975h-5.025L165.936 89l-7.991-11.599h5.025l5.448 8.035 5.508-8.035h5.024zM185.61 77.401h-4.298v23.139h4.298V77.401zM208.069 77.401h5.872v23.139h-4.298V83.201l-5.872 17.339h-3.632l-5.871-17.339v17.339h-4.298V77.401h5.811l6.174 17.702 6.114-17.702zM230.284 90.39l-2.603-6.766-2.603 6.767h5.206zm-4.358-12.989h3.45l9.625 23.139h-4.722l-2.361-5.98h-8.535l-2.361 5.98h-4.721l9.625-23.139zM152.375 112.925c-.545 1.511-1.755 2.538-3.511 2.538-2.663 0-3.934-2.054-3.934-3.867 0-1.631 1.21-3.745 3.874-3.745 1.816 0 3.148 1.027 3.571 2.597h-1.937c-.363-.664-.968-.966-1.695-.966-1.392 0-2.118 1.027-2.118 2.175 0 1.208.847 2.175 2.118 2.175.303 0 1.211-.061 1.695-.907h1.937zM154.798 111.717c0 1.208.848 2.115 2.119 2.115 1.211 0 2.058-.907 2.058-2.175 0-1.209-.787-2.175-2.058-2.175-1.211 0-2.119.966-2.119 2.235zm5.812 3.504h-1.574v-.966a2.889 2.889 0 01-2.361 1.208c-1.816 0-3.511-1.45-3.511-3.746 0-2.235 1.574-3.866 3.572-3.866 1.029 0 1.815.422 2.36 1.208v-1.027h1.574l-.06 7.189zM163.574 111.657c0 1.389.847 2.175 2.058 2.175 1.211 0 2.119-.907 2.119-2.175 0-.967-.606-2.175-2.058-2.175-1.272 0-2.119.966-2.119 2.175zM162 108.092h1.574v.906c.605-.966 1.755-1.147 2.3-1.147 1.937 0 3.572 1.51 3.572 3.806 0 1.933-1.332 3.806-3.572 3.806-.605 0-1.453-.181-2.179-1.027v3.141H162v-9.485zM170.538 108.092h1.695v7.129h-1.695v-7.129zm0-2.356h1.695v1.571h-1.695v-1.571zM175.562 105.736v2.356h1.029v1.511h-1.029v5.618h-1.695v-5.618h-.847v-1.511h.847v-2.356h1.695zM178.832 111.717c0 1.208.847 2.115 2.118 2.115 1.211 0 2.058-.907 2.058-2.175 0-1.209-.786-2.175-2.058-2.175-1.271 0-2.118.966-2.118 2.235zm5.75 3.504h-1.574v-.966a2.886 2.886 0 01-2.36 1.208c-1.816 0-3.511-1.45-3.511-3.746 0-2.235 1.574-3.866 3.571-3.866 1.029 0 1.816.422 2.361 1.208v-1.027h1.574l-.061 7.189zM187.668 105.736h-1.695v9.546h1.695v-9.546zM193.419 111.536c0 1.148.726 2.115 2.058 2.115 1.271 0 2.058-.967 2.058-2.055 0-1.268-.848-2.114-2.058-2.114-1.332 0-2.058 1.027-2.058 2.054zm5.811 2.598c0 2.537-1.877 3.866-3.814 3.866-1.695 0-3.147-.906-3.571-2.598h1.997c.303.967 1.393.967 1.574.967 1.211 0 2.119-.906 2.119-1.933v-.242c-.182.302-.787 1.148-2.119 1.148-1.997 0-3.632-1.692-3.632-3.746 0-2.175 1.695-3.685 3.632-3.685.545 0 1.574.121 2.24 1.208v-.966h1.574v5.981zM200.622 108.092h1.574v.665c.363-.605.968-.967 1.634-.846v1.631c-1.574 0-1.513 1.45-1.513 1.873v3.866h-1.695v-7.189zM206.068 111.657c0 1.148.787 2.175 2.058 2.175s2.058-1.027 2.058-2.175-.787-2.175-2.058-2.175c-1.211 0-2.058 1.027-2.058 2.175zm5.872 0a3.794 3.794 0 01-3.814 3.806c-2.179 0-3.814-1.692-3.814-3.806 0-2.115 1.574-3.806 3.814-3.806s3.814 1.752 3.814 3.806zM219.325 115.221h-1.574v-.665c-.605.786-1.392.906-1.877.906-2.724 0-2.905-2.356-2.905-3.504v-3.866h1.695v3.625c0 .785.06 2.114 1.453 2.114 1.392 0 1.452-1.329 1.452-2.114v-3.625h1.695l.061 7.129zM222.354 111.657c0 1.389.848 2.175 2.058 2.175 1.211 0 2.119-.907 2.119-2.175 0-.967-.605-2.175-2.058-2.175-1.271 0-2.119.966-2.119 2.175zm-1.634-3.565h1.574v.906c.605-.966 1.755-1.147 2.3-1.147 1.937 0 3.571 1.51 3.571 3.806 0 1.933-1.331 3.806-3.571 3.806-.605 0-1.513-.181-2.179-1.027v3.141h-1.695v-9.485zM58.91 100.541h17.858l14.83-22.958-21.852 3.685-10.836 19.273z"/><path d="M59.275 100.359h17.433l14.468-22.535-21.308 3.625-10.593 18.91zm17.494.362H58.91l-.181-.302 10.775-19.272.121-.12 21.852-3.747.182.302-14.77 22.958-.121.181zM37.184 77.643l21.852-3.746 10.775-19.272H51.954l-14.77 23.018z"/><path d="M52.073 54.807L37.545 77.342l21.307-3.625 10.594-18.91H52.073zM37.182 77.825L37 77.523l14.77-22.958.182-.06h17.857l.182.302-10.836 19.272-.12.121-21.853 3.625zM91.605 77.583l-4.237 6.525L72.113 70.03l4.238-18.728 15.254 26.28z"/><path d="M72.353 69.97l15.013 13.835 4.055-6.222-14.89-25.737-4.178 18.125zm14.892 14.258L71.99 70.152l-.06-.181 4.237-18.729.363-.06 15.194 26.28v.181l-4.237 6.525-.242.06z"/></g><defs><clipPath id="clip0"><path fill="#fff" transform="translate(37 51)" d="M0 0h202v67H0z"/></clipPath></defs></svg>