<svg width="70" height="70" viewBox="0 0 70 70" fill="none" xmlns="http://www.w3.org/2000/svg">
<g clip-path="url(#clip0)">
<path d="M23.7359 2.05197C24.2025 2.05197 24.5808 1.67372 24.5808 1.20714C24.5808 0.740549 24.2025 0.362305 23.7359 0.362305C23.2694 0.362305 22.8911 0.740549 22.8911 1.20714C22.8911 1.67372 23.2694 2.05197 23.7359 2.05197Z" fill="white"/>
<path d="M35.0001 2.05197C35.4667 2.05197 35.8449 1.67372 35.8449 1.20714C35.8449 0.740549 35.4667 0.362305 35.0001 0.362305C34.5335 0.362305 34.1553 0.740549 34.1553 1.20714C34.1553 1.67372 34.5335 2.05197 35.0001 2.05197Z" fill="white"/>
<path d="M37.816 2.05197C38.2826 2.05197 38.6609 1.67372 38.6609 1.20714C38.6609 0.740549 38.2826 0.362305 37.816 0.362305C37.3494 0.362305 36.9712 0.740549 36.9712 1.20714C36.9712 1.67372 37.3494 2.05197 37.816 2.05197Z" fill="white"/>
<path d="M23.7359 4.86788C24.2025 4.86788 24.5808 4.48964 24.5808 4.02305C24.5808 3.55646 24.2025 3.17822 23.7359 3.17822C23.2694 3.17822 22.8911 3.55646 22.8911 4.02305C22.8911 4.48964 23.2694 4.86788 23.7359 4.86788Z" fill="white"/>
<path d="M26.5519 4.86788C27.0184 4.86788 27.3967 4.48964 27.3967 4.02305C27.3967 3.55646 27.0184 3.17822 26.5519 3.17822C26.0853 3.17822 25.707 3.55646 25.707 4.02305C25.707 4.48964 26.0853 4.86788 26.5519 4.86788Z" fill="white"/>
<path d="M29.3678 4.86788C29.8344 4.86788 30.2126 4.48964 30.2126 4.02305C30.2126 3.55646 29.8344 3.17822 29.3678 3.17822C28.9012 3.17822 28.5229 3.55646 28.5229 4.02305C28.5229 4.48964 28.9012 4.86788 29.3678 4.86788Z" fill="white"/>
<path d="M35.0001 4.86788C35.4667 4.86788 35.8449 4.48964 35.8449 4.02305C35.8449 3.55646 35.4667 3.17822 35.0001 3.17822C34.5335 3.17822 34.1553 3.55646 34.1553 4.02305C34.1553 4.48964 34.5335 4.86788 35.0001 4.86788Z" fill="white"/>
<path d="M40.6324 4.86788C41.099 4.86788 41.4773 4.48964 41.4773 4.02305C41.4773 3.55646 41.099 3.17822 40.6324 3.17822C40.1658 3.17822 39.7876 3.55646 39.7876 4.02305C39.7876 4.48964 40.1658 4.86788 40.6324 4.86788Z" fill="white"/>
<path d="M46.2643 4.86788C46.7308 4.86788 47.1091 4.48964 47.1091 4.02305C47.1091 3.55646 46.7308 3.17822 46.2643 3.17822C45.7977 3.17822 45.4194 3.55646 45.4194 4.02305C45.4194 4.48964 45.7977 4.86788 46.2643 4.86788Z" fill="white"/>
<path d="M23.7359 7.6838C24.2025 7.6838 24.5808 7.30555 24.5808 6.83897C24.5808 6.37238 24.2025 5.99414 23.7359 5.99414C23.2694 5.99414 22.8911 6.37238 22.8911 6.83897C22.8911 7.30555 23.2694 7.6838 23.7359 7.6838Z" fill="white"/>
<path d="M29.3678 7.6838C29.8344 7.6838 30.2126 7.30555 30.2126 6.83897C30.2126 6.37238 29.8344 5.99414 29.3678 5.99414C28.9012 5.99414 28.5229 6.37238 28.5229 6.83897C28.5229 7.30555 28.9012 7.6838 29.3678 7.6838Z" fill="white"/>
<path d="M37.816 7.6838C38.2826 7.6838 38.6609 7.30555 38.6609 6.83897C38.6609 6.37238 38.2826 5.99414 37.816 5.99414C37.3494 5.99414 36.9712 6.37238 36.9712 6.83897C36.9712 7.30555 37.3494 7.6838 37.816 7.6838Z" fill="white"/>
<path d="M43.4484 7.6838C43.915 7.6838 44.2932 7.30555 44.2932 6.83897C44.2932 6.37238 43.915 5.99414 43.4484 5.99414C42.9818 5.99414 42.6035 6.37238 42.6035 6.83897C42.6035 7.30555 42.9818 7.6838 43.4484 7.6838Z" fill="white"/>
<path d="M46.2643 7.6838C46.7308 7.6838 47.1091 7.30555 47.1091 6.83897C47.1091 6.37238 46.7308 5.99414 46.2643 5.99414C45.7977 5.99414 45.4194 6.37238 45.4194 6.83897C45.4194 7.30555 45.7977 7.6838 46.2643 7.6838Z" fill="white"/>
<path d="M29.3678 10.5002C29.8344 10.5002 30.2126 10.122 30.2126 9.65538C30.2126 9.18879 29.8344 8.81055 29.3678 8.81055C28.9012 8.81055 28.5229 9.18879 28.5229 9.65538C28.5229 10.122 28.9012 10.5002 29.3678 10.5002Z" fill="white"/>
<path d="M37.816 10.5002C38.2826 10.5002 38.6609 10.122 38.6609 9.65538C38.6609 9.18879 38.2826 8.81055 37.816 8.81055C37.3494 8.81055 36.9712 9.18879 36.9712 9.65538C36.9712 10.122 37.3494 10.5002 37.816 10.5002Z" fill="white"/>
<path d="M46.2643 10.5002C46.7308 10.5002 47.1091 10.122 47.1091 9.65538C47.1091 9.18879 46.7308 8.81055 46.2643 8.81055C45.7977 8.81055 45.4194 9.18879 45.4194 9.65538C45.4194 10.122 45.7977 10.5002 46.2643 10.5002Z" fill="white"/>
<path d="M23.7359 13.3161C24.2025 13.3161 24.5808 12.9379 24.5808 12.4713C24.5808 12.0047 24.2025 11.6265 23.7359 11.6265C23.2694 11.6265 22.8911 12.0047 22.8911 12.4713C22.8911 12.9379 23.2694 13.3161 23.7359 13.3161Z" fill="white"/>
<path d="M32.1842 13.3161C32.6508 13.3161 33.029 12.9379 33.029 12.4713C33.029 12.0047 32.6508 11.6265 32.1842 11.6265C31.7176 11.6265 31.3394 12.0047 31.3394 12.4713C31.3394 12.9379 31.7176 13.3161 32.1842 13.3161Z" fill="white"/>
<path d="M35.0001 13.3161C35.4667 13.3161 35.8449 12.9379 35.8449 12.4713C35.8449 12.0047 35.4667 11.6265 35.0001 11.6265C34.5335 11.6265 34.1553 12.0047 34.1553 12.4713C34.1553 12.9379 34.5335 13.3161 35.0001 13.3161Z" fill="white"/>
<path d="M37.816 13.3161C38.2826 13.3161 38.6609 12.9379 38.6609 12.4713C38.6609 12.0047 38.2826 11.6265 37.816 11.6265C37.3494 11.6265 36.9712 12.0047 36.9712 12.4713C36.9712 12.9379 37.3494 13.3161 37.816 13.3161Z" fill="white"/>
<path d="M40.6324 13.3161C41.099 13.3161 41.4773 12.9379 41.4773 12.4713C41.4773 12.0047 41.099 11.6265 40.6324 11.6265C40.1658 11.6265 39.7876 12.0047 39.7876 12.4713C39.7876 12.9379 40.1658 13.3161 40.6324 13.3161Z" fill="white"/>
<path d="M46.2643 13.3161C46.7308 13.3161 47.1091 12.9379 47.1091 12.4713C47.1091 12.0047 46.7308 11.6265 46.2643 11.6265C45.7977 11.6265 45.4194 12.0047 45.4194 12.4713C45.4194 12.9379 45.7977 13.3161 46.2643 13.3161Z" fill="white"/>
<path d="M29.3678 16.132C29.8344 16.132 30.2126 15.7538 30.2126 15.2872C30.2126 14.8206 29.8344 14.4424 29.3678 14.4424C28.9012 14.4424 28.5229 14.8206 28.5229 15.2872C28.5229 15.7538 28.9012 16.132 29.3678 16.132Z" fill="white"/>
<path d="M37.816 16.132C38.2826 16.132 38.6609 15.7538 38.6609 15.2872C38.6609 14.8206 38.2826 14.4424 37.816 14.4424C37.3494 14.4424 36.9712 14.8206 36.9712 15.2872C36.9712 15.7538 37.3494 16.132 37.816 16.132Z" fill="white"/>
<path d="M23.7359 18.9484C24.2025 18.9484 24.5808 18.5702 24.5808 18.1036C24.5808 17.637 24.2025 17.2588 23.7359 17.2588C23.2694 17.2588 22.8911 17.637 22.8911 18.1036C22.8911 18.5702 23.2694 18.9484 23.7359 18.9484Z" fill="white"/>
<path d="M29.3678 18.9484C29.8344 18.9484 30.2126 18.5702 30.2126 18.1036C30.2126 17.637 29.8344 17.2588 29.3678 17.2588C28.9012 17.2588 28.5229 17.637 28.5229 18.1036C28.5229 18.5702 28.9012 18.9484 29.3678 18.9484Z" fill="white"/>
<path d="M35.0001 18.9484C35.4667 18.9484 35.8449 18.5702 35.8449 18.1036C35.8449 17.637 35.4667 17.2588 35.0001 17.2588C34.5335 17.2588 34.1553 17.637 34.1553 18.1036C34.1553 18.5702 34.5335 18.9484 35.0001 18.9484Z" fill="white"/>
<path d="M40.6324 18.9484C41.099 18.9484 41.4773 18.5702 41.4773 18.1036C41.4773 17.637 41.099 17.2588 40.6324 17.2588C40.1658 17.2588 39.7876 17.637 39.7876 18.1036C39.7876 18.5702 40.1658 18.9484 40.6324 18.9484Z" fill="white"/>
<path d="M46.2643 18.9484C46.7308 18.9484 47.1091 18.5702 47.1091 18.1036C47.1091 17.637 46.7308 17.2588 46.2643 17.2588C45.7977 17.2588 45.4194 17.637 45.4194 18.1036C45.4194 18.5702 45.7977 18.9484 46.2643 18.9484Z" fill="white"/>
<path d="M26.5519 21.7644C27.0184 21.7644 27.3967 21.3861 27.3967 20.9195C27.3967 20.4529 27.0184 20.0747 26.5519 20.0747C26.0853 20.0747 25.707 20.4529 25.707 20.9195C25.707 21.3861 26.0853 21.7644 26.5519 21.7644Z" fill="white"/>
<path d="M29.3678 21.7644C29.8344 21.7644 30.2126 21.3861 30.2126 20.9195C30.2126 20.4529 29.8344 20.0747 29.3678 20.0747C28.9012 20.0747 28.5229 20.4529 28.5229 20.9195C28.5229 21.3861 28.9012 21.7644 29.3678 21.7644Z" fill="white"/>
<path d="M32.1842 21.7644C32.6508 21.7644 33.029 21.3861 33.029 20.9195C33.029 20.4529 32.6508 20.0747 32.1842 20.0747C31.7176 20.0747 31.3394 20.4529 31.3394 20.9195C31.3394 21.3861 31.7176 21.7644 32.1842 21.7644Z" fill="white"/>
<path d="M37.816 21.7644C38.2826 21.7644 38.6609 21.3861 38.6609 20.9195C38.6609 20.4529 38.2826 20.0747 37.816 20.0747C37.3494 20.0747 36.9712 20.4529 36.9712 20.9195C36.9712 21.3861 37.3494 21.7644 37.816 21.7644Z" fill="white"/>
<path d="M46.2643 21.7644C46.7308 21.7644 47.1091 21.3861 47.1091 20.9195C47.1091 20.4529 46.7308 20.0747 46.2643 20.0747C45.7977 20.0747 45.4194 20.4529 45.4194 20.9195C45.4194 21.3861 45.7977 21.7644 46.2643 21.7644Z" fill="white"/>
<path d="M1.20714 24.5808C1.67372 24.5808 2.05197 24.2025 2.05197 23.7359C2.05197 23.2694 1.67372 22.8911 1.20714 22.8911C0.740549 22.8911 0.362305 23.2694 0.362305 23.7359C0.362305 24.2025 0.740549 24.5808 1.20714 24.5808Z" fill="white"/>
<path d="M9.65538 24.5808C10.122 24.5808 10.5002 24.2025 10.5002 23.7359C10.5002 23.2694 10.122 22.8911 9.65538 22.8911C9.18879 22.8911 8.81055 23.2694 8.81055 23.7359C8.81055 24.2025 9.18879 24.5808 9.65538 24.5808Z" fill="white"/>
<path d="M12.4713 24.5808C12.9379 24.5808 13.3161 24.2025 13.3161 23.7359C13.3161 23.2694 12.9379 22.8911 12.4713 22.8911C12.0047 22.8911 11.6265 23.2694 11.6265 23.7359C11.6265 24.2025 12.0047 24.5808 12.4713 24.5808Z" fill="white"/>
<path d="M15.2872 24.5808C15.7538 24.5808 16.132 24.2025 16.132 23.7359C16.132 23.2694 15.7538 22.8911 15.2872 22.8911C14.8206 22.8911 14.4424 23.2694 14.4424 23.7359C14.4424 24.2025 14.8206 24.5808 15.2872 24.5808Z" fill="white"/>
<path d="M18.1036 24.5808C18.5702 24.5808 18.9484 24.2025 18.9484 23.7359C18.9484 23.2694 18.5702 22.8911 18.1036 22.8911C17.637 22.8911 17.2588 23.2694 17.2588 23.7359C17.2588 24.2025 17.637 24.5808 18.1036 24.5808Z" fill="white"/>
<path d="M20.9195 24.5808C21.3861 24.5808 21.7644 24.2025 21.7644 23.7359C21.7644 23.2694 21.3861 22.8911 20.9195 22.8911C20.4529 22.8911 20.0747 23.2694 20.0747 23.7359C20.0747 24.2025 20.4529 24.5808 20.9195 24.5808Z" fill="white"/>
<path d="M23.7359 24.5808C24.2025 24.5808 24.5808 24.2025 24.5808 23.7359C24.5808 23.2694 24.2025 22.8911 23.7359 22.8911C23.2694 22.8911 22.8911 23.2694 22.8911 23.7359C22.8911 24.2025 23.2694 24.5808 23.7359 24.5808Z" fill="white"/>
<path d="M26.5519 24.5808C27.0184 24.5808 27.3967 24.2025 27.3967 23.7359C27.3967 23.2694 27.0184 22.8911 26.5519 22.8911C26.0853 22.8911 25.707 23.2694 25.707 23.7359C25.707 24.2025 26.0853 24.5808 26.5519 24.5808Z" fill="white"/>
<path d="M29.3678 24.5808C29.8344 24.5808 30.2126 24.2025 30.2126 23.7359C30.2126 23.2694 29.8344 22.8911 29.3678 22.8911C28.9012 22.8911 28.5229 23.2694 28.5229 23.7359C28.5229 24.2025 28.9012 24.5808 29.3678 24.5808Z" fill="white"/>
<path d="M40.6324 24.5808C41.099 24.5808 41.4773 24.2025 41.4773 23.7359C41.4773 23.2694 41.099 22.8911 40.6324 22.8911C40.1658 22.8911 39.7876 23.2694 39.7876 23.7359C39.7876 24.2025 40.1658 24.5808 40.6324 24.5808Z" fill="white"/>
<path d="M46.2643 24.5808C46.7308 24.5808 47.1091 24.2025 47.1091 23.7359C47.1091 23.2694 46.7308 22.8911 46.2643 22.8911C45.7977 22.8911 45.4194 23.2694 45.4194 23.7359C45.4194 24.2025 45.7977 24.5808 46.2643 24.5808Z" fill="white"/>
<path d="M49.0807 24.5808C49.5473 24.5808 49.9255 24.2025 49.9255 23.7359C49.9255 23.2694 49.5473 22.8911 49.0807 22.8911C48.6141 22.8911 48.2358 23.2694 48.2358 23.7359C48.2358 24.2025 48.6141 24.5808 49.0807 24.5808Z" fill="white"/>
<path d="M57.5289 24.5808C57.9955 24.5808 58.3737 24.2025 58.3737 23.7359C58.3737 23.2694 57.9955 22.8911 57.5289 22.8911C57.0623 22.8911 56.6841 23.2694 56.6841 23.7359C56.6841 24.2025 57.0623 24.5808 57.5289 24.5808Z" fill="white"/>
<path d="M63.1612 24.5808C63.6278 24.5808 64.006 24.2025 64.006 23.7359C64.006 23.2694 63.6278 22.8911 63.1612 22.8911C62.6946 22.8911 62.3164 23.2694 62.3164 23.7359C62.3164 24.2025 62.6946 24.5808 63.1612 24.5808Z" fill="white"/>
<path d="M65.9771 24.5808C66.4437 24.5808 66.822 24.2025 66.822 23.7359C66.822 23.2694 66.4437 22.8911 65.9771 22.8911C65.5106 22.8911 65.1323 23.2694 65.1323 23.7359C65.1323 24.2025 65.5106 24.5808 65.9771 24.5808Z" fill="white"/>
<path d="M68.7931 24.5808C69.2597 24.5808 69.6379 24.2025 69.6379 23.7359C69.6379 23.2694 69.2597 22.8911 68.7931 22.8911C68.3265 22.8911 67.9482 23.2694 67.9482 23.7359C67.9482 24.2025 68.3265 24.5808 68.7931 24.5808Z" fill="white"/>
<path d="M9.65538 27.3967C10.122 27.3967 10.5002 27.0184 10.5002 26.5519C10.5002 26.0853 10.122 25.707 9.65538 25.707C9.18879 25.707 8.81055 26.0853 8.81055 26.5519C8.81055 27.0184 9.18879 27.3967 9.65538 27.3967Z" fill="white"/>
<path d="M12.4713 27.3967C12.9379 27.3967 13.3161 27.0184 13.3161 26.5519C13.3161 26.0853 12.9379 25.707 12.4713 25.707C12.0047 25.707 11.6265 26.0853 11.6265 26.5519C11.6265 27.0184 12.0047 27.3967 12.4713 27.3967Z" fill="white"/>
<path d="M20.9195 27.3967C21.3861 27.3967 21.7644 27.0184 21.7644 26.5519C21.7644 26.0853 21.3861 25.707 20.9195 25.707C20.4529 25.707 20.0747 26.0853 20.0747 26.5519C20.0747 27.0184 20.4529 27.3967 20.9195 27.3967Z" fill="white"/>
<path d="M23.7359 27.3967C24.2025 27.3967 24.5808 27.0184 24.5808 26.5519C24.5808 26.0853 24.2025 25.707 23.7359 25.707C23.2694 25.707 22.8911 26.0853 22.8911 26.5519C22.8911 27.0184 23.2694 27.3967 23.7359 27.3967Z" fill="white"/>
<path d="M26.5519 27.3967C27.0184 27.3967 27.3967 27.0184 27.3967 26.5519C27.3967 26.0853 27.0184 25.707 26.5519 25.707C26.0853 25.707 25.707 26.0853 25.707 26.5519C25.707 27.0184 26.0853 27.3967 26.5519 27.3967Z" fill="white"/>
<path d="M40.6324 27.3967C41.099 27.3967 41.4773 27.0184 41.4773 26.5519C41.4773 26.0853 41.099 25.707 40.6324 25.707C40.1658 25.707 39.7876 26.0853 39.7876 26.5519C39.7876 27.0184 40.1658 27.3967 40.6324 27.3967Z" fill="white"/>
<path d="M43.4484 27.3967C43.915 27.3967 44.2932 27.0184 44.2932 26.5519C44.2932 26.0853 43.915 25.707 43.4484 25.707C42.9818 25.707 42.6035 26.0853 42.6035 26.5519C42.6035 27.0184 42.9818 27.3967 43.4484 27.3967Z" fill="white"/>
<path d="M49.0807 27.3967C49.5473 27.3967 49.9255 27.0184 49.9255 26.5519C49.9255 26.0853 49.5473 25.707 49.0807 25.707C48.6141 25.707 48.2358 26.0853 48.2358 26.5519C48.2358 27.0184 48.6141 27.3967 49.0807 27.3967Z" fill="white"/>
<path d="M54.7125 27.3967C55.1791 27.3967 55.5573 27.0184 55.5573 26.5519C55.5573 26.0853 55.1791 25.707 54.7125 25.707C54.2459 25.707 53.8677 26.0853 53.8677 26.5519C53.8677 27.0184 54.2459 27.3967 54.7125 27.3967Z" fill="white"/>
<path d="M57.5289 27.3967C57.9955 27.3967 58.3737 27.0184 58.3737 26.5519C58.3737 26.0853 57.9955 25.707 57.5289 25.707C57.0623 25.707 56.6841 26.0853 56.6841 26.5519C56.6841 27.0184 57.0623 27.3967 57.5289 27.3967Z" fill="white"/>
<path d="M60.3448 27.3967C60.8114 27.3967 61.1897 27.0184 61.1897 26.5519C61.1897 26.0853 60.8114 25.707 60.3448 25.707C59.8782 25.707 59.5 26.0853 59.5 26.5519C59.5 27.0184 59.8782 27.3967 60.3448 27.3967Z" fill="white"/>
<path d="M63.1612 27.3967C63.6278 27.3967 64.006 27.0184 64.006 26.5519C64.006 26.0853 63.6278 25.707 63.1612 25.707C62.6946 25.707 62.3164 26.0853 62.3164 26.5519C62.3164 27.0184 62.6946 27.3967 63.1612 27.3967Z" fill="white"/>
<path d="M65.9771 27.3967C66.4437 27.3967 66.822 27.0184 66.822 26.5519C66.822 26.0853 66.4437 25.707 65.9771 25.707C65.5106 25.707 65.1323 26.0853 65.1323 26.5519C65.1323 27.0184 65.5106 27.3967 65.9771 27.3967Z" fill="white"/>
<path d="M4.02305 30.2126C4.48964 30.2126 4.86788 29.8344 4.86788 29.3678C4.86788 28.9012 4.48964 28.5229 4.02305 28.5229C3.55646 28.5229 3.17822 28.9012 3.17822 29.3678C3.17822 29.8344 3.55646 30.2126 4.02305 30.2126Z" fill="white"/>
<path d="M6.83897 30.2126C7.30555 30.2126 7.68379 29.8344 7.68379 29.3678C7.68379 28.9012 7.30555 28.5229 6.83897 28.5229C6.37238 28.5229 5.99414 28.9012 5.99414 29.3678C5.99414 29.8344 6.37238 30.2126 6.83897 30.2126Z" fill="white"/>
<path d="M18.1036 30.2126C18.5702 30.2126 18.9484 29.8344 18.9484 29.3678C18.9484 28.9012 18.5702 28.5229 18.1036 28.5229C17.637 28.5229 17.2588 28.9012 17.2588 29.3678C17.2588 29.8344 17.637 30.2126 18.1036 30.2126Z" fill="white"/>
<path d="M20.9195 30.2126C21.3861 30.2126 21.7644 29.8344 21.7644 29.3678C21.7644 28.9012 21.3861 28.5229 20.9195 28.5229C20.4529 28.5229 20.0747 28.9012 20.0747 29.3678C20.0747 29.8344 20.4529 30.2126 20.9195 30.2126Z" fill="white"/>
<path d="M23.7359 30.2126C24.2025 30.2126 24.5808 29.8344 24.5808 29.3678C24.5808 28.9012 24.2025 28.5229 23.7359 28.5229C23.2694 28.5229 22.8911 28.9012 22.8911 29.3678C22.8911 29.8344 23.2694 30.2126 23.7359 30.2126Z" fill="white"/>
<path d="M26.5519 30.2126C27.0184 30.2126 27.3967 29.8344 27.3967 29.3678C27.3967 28.9012 27.0184 28.5229 26.5519 28.5229C26.0853 28.5229 25.707 28.9012 25.707 29.3678C25.707 29.8344 26.0853 30.2126 26.5519 30.2126Z" fill="white"/>
<path d="M29.3678 30.2126C29.8344 30.2126 30.2126 29.8344 30.2126 29.3678C30.2126 28.9012 29.8344 28.5229 29.3678 28.5229C28.9012 28.5229 28.5229 28.9012 28.5229 29.3678C28.5229 29.8344 28.9012 30.2126 29.3678 30.2126Z" fill="white"/>
<path d="M32.1842 30.2126C32.6508 30.2126 33.029 29.8344 33.029 29.3678C33.029 28.9012 32.6508 28.5229 32.1842 28.5229C31.7176 28.5229 31.3394 28.9012 31.3394 29.3678C31.3394 29.8344 31.7176 30.2126 32.1842 30.2126Z" fill="white"/>
<path d="M43.4484 30.2126C43.915 30.2126 44.2932 29.8344 44.2932 29.3678C44.2932 28.9012 43.915 28.5229 43.4484 28.5229C42.9818 28.5229 42.6035 28.9012 42.6035 29.3678C42.6035 29.8344 42.9818 30.2126 43.4484 30.2126Z" fill="white"/>
<path d="M49.0807 30.2126C49.5473 30.2126 49.9255 29.8344 49.9255 29.3678C49.9255 28.9012 49.5473 28.5229 49.0807 28.5229C48.6141 28.5229 48.2358 28.9012 48.2358 29.3678C48.2358 29.8344 48.6141 30.2126 49.0807 30.2126Z" fill="white"/>
<path d="M51.8966 30.2126C52.3631 30.2126 52.7413 29.8344 52.7413 29.3678C52.7413 28.9012 52.3631 28.5229 51.8966 28.5229C51.43 28.5229 51.0518 28.9012 51.0518 29.3678C51.0518 29.8344 51.43 30.2126 51.8966 30.2126Z" fill="white"/>
<path d="M54.7125 30.2126C55.1791 30.2126 55.5573 29.8344 55.5573 29.3678C55.5573 28.9012 55.1791 28.5229 54.7125 28.5229C54.2459 28.5229 53.8677 28.9012 53.8677 29.3678C53.8677 29.8344 54.2459 30.2126 54.7125 30.2126Z" fill="white"/>
<path d="M57.5289 30.2126C57.9955 30.2126 58.3737 29.8344 58.3737 29.3678C58.3737 28.9012 57.9955 28.5229 57.5289 28.5229C57.0623 28.5229 56.6841 28.9012 56.6841 29.3678C56.6841 29.8344 57.0623 30.2126 57.5289 30.2126Z" fill="white"/>
<path d="M60.3448 30.2126C60.8114 30.2126 61.1897 29.8344 61.1897 29.3678C61.1897 28.9012 60.8114 28.5229 60.3448 28.5229C59.8782 28.5229 59.5 28.9012 59.5 29.3678C59.5 29.8344 59.8782 30.2126 60.3448 30.2126Z" fill="white"/>
<path d="M68.7931 30.2126C69.2597 30.2126 69.6379 29.8344 69.6379 29.3678C69.6379 28.9012 69.2597 28.5229 68.7931 28.5229C68.3265 28.5229 67.9482 28.9012 67.9482 29.3678C67.9482 29.8344 68.3265 30.2126 68.7931 30.2126Z" fill="white"/>
<path d="M9.65538 33.029C10.122 33.029 10.5002 32.6508 10.5002 32.1842C10.5002 31.7176 10.122 31.3394 9.65538 31.3394C9.18879 31.3394 8.81055 31.7176 8.81055 32.1842C8.81055 32.6508 9.18879 33.029 9.65538 33.029Z" fill="white"/>
<path d="M12.4713 33.029C12.9379 33.029 13.3161 32.6508 13.3161 32.1842C13.3161 31.7176 12.9379 31.3394 12.4713 31.3394C12.0047 31.3394 11.6265 31.7176 11.6265 32.1842C11.6265 32.6508 12.0047 33.029 12.4713 33.029Z" fill="white"/>
<path d="M20.9195 33.029C21.3861 33.029 21.7644 32.6508 21.7644 32.1842C21.7644 31.7176 21.3861 31.3394 20.9195 31.3394C20.4529 31.3394 20.0747 31.7176 20.0747 32.1842C20.0747 32.6508 20.4529 33.029 20.9195 33.029Z" fill="white"/>
<path d="M23.7359 33.029C24.2025 33.029 24.5808 32.6508 24.5808 32.1842C24.5808 31.7176 24.2025 31.3394 23.7359 31.3394C23.2694 31.3394 22.8911 31.7176 22.8911 32.1842C22.8911 32.6508 23.2694 33.029 23.7359 33.029Z" fill="white"/>
<path d="M26.5519 33.029C27.0184 33.029 27.3967 32.6508 27.3967 32.1842C27.3967 31.7176 27.0184 31.3394 26.5519 31.3394C26.0853 31.3394 25.707 31.7176 25.707 32.1842C25.707 32.6508 26.0853 33.029 26.5519 33.029Z" fill="white"/>
<path d="M32.1842 33.029C32.6508 33.029 33.029 32.6508 33.029 32.1842C33.029 31.7176 32.6508 31.3394 32.1842 31.3394C31.7176 31.3394 31.3394 31.7176 31.3394 32.1842C31.3394 32.6508 31.7176 33.029 32.1842 33.029Z" fill="white"/>
<path d="M35.0001 33.029C35.4667 33.029 35.8449 32.6508 35.8449 32.1842C35.8449 31.7176 35.4667 31.3394 35.0001 31.3394C34.5335 31.3394 34.1553 31.7176 34.1553 32.1842C34.1553 32.6508 34.5335 33.029 35.0001 33.029Z" fill="white"/>
<path d="M40.6324 33.029C41.099 33.029 41.4773 32.6508 41.4773 32.1842C41.4773 31.7176 41.099 31.3394 40.6324 31.3394C40.1658 31.3394 39.7876 31.7176 39.7876 32.1842C39.7876 32.6508 40.1658 33.029 40.6324 33.029Z" fill="white"/>
<path d="M43.4484 33.029C43.915 33.029 44.2932 32.6508 44.2932 32.1842C44.2932 31.7176 43.915 31.3394 43.4484 31.3394C42.9818 31.3394 42.6035 31.7176 42.6035 32.1842C42.6035 32.6508 42.9818 33.029 43.4484 33.029Z" fill="white"/>
<path d="M54.7125 33.029C55.1791 33.029 55.5573 32.6508 55.5573 32.1842C55.5573 31.7176 55.1791 31.3394 54.7125 31.3394C54.2459 31.3394 53.8677 31.7176 53.8677 32.1842C53.8677 32.6508 54.2459 33.029 54.7125 33.029Z" fill="white"/>
<path d="M60.3448 33.029C60.8114 33.029 61.1897 32.6508 61.1897 32.1842C61.1897 31.7176 60.8114 31.3394 60.3448 31.3394C59.8782 31.3394 59.5 31.7176 59.5 32.1842C59.5 32.6508 59.8782 33.029 60.3448 33.029Z" fill="white"/>
<path d="M63.1612 33.029C63.6278 33.029 64.006 32.6508 64.006 32.1842C64.006 31.7176 63.6278 31.3394 63.1612 31.3394C62.6946 31.3394 62.3164 31.7176 62.3164 32.1842C62.3164 32.6508 62.6946 33.029 63.1612 33.029Z" fill="white"/>
<path d="M65.9771 33.029C66.4437 33.029 66.822 32.6508 66.822 32.1842C66.822 31.7176 66.4437 31.3394 65.9771 31.3394C65.5106 31.3394 65.1323 31.7176 65.1323 32.1842C65.1323 32.6508 65.5106 33.029 65.9771 33.029Z" fill="white"/>
<path d="M68.7931 33.029C69.2597 33.029 69.6379 32.6508 69.6379 32.1842C69.6379 31.7176 69.2597 31.3394 68.7931 31.3394C68.3265 31.3394 67.9482 31.7176 67.9482 32.1842C67.9482 32.6508 68.3265 33.029 68.7931 33.029Z" fill="white"/>
<path d="M1.20714 35.8449C1.67372 35.8449 2.05197 35.4667 2.05197 35.0001C2.05197 34.5335 1.67372 34.1553 1.20714 34.1553C0.740549 34.1553 0.362305 34.5335 0.362305 35.0001C0.362305 35.4667 0.740549 35.8449 1.20714 35.8449Z" fill="white"/>
<path d="M4.02305 35.8449C4.48964 35.8449 4.86788 35.4667 4.86788 35.0001C4.86788 34.5335 4.48964 34.1553 4.02305 34.1553C3.55646 34.1553 3.17822 34.5335 3.17822 35.0001C3.17822 35.4667 3.55646 35.8449 4.02305 35.8449Z" fill="white"/>
<path d="M6.83897 35.8449C7.30555 35.8449 7.68379 35.4667 7.68379 35.0001C7.68379 34.5335 7.30555 34.1553 6.83897 34.1553C6.37238 34.1553 5.99414 34.5335 5.99414 35.0001C5.99414 35.4667 6.37238 35.8449 6.83897 35.8449Z" fill="white"/>
<path d="M12.4713 35.8449C12.9379 35.8449 13.3161 35.4667 13.3161 35.0001C13.3161 34.5335 12.9379 34.1553 12.4713 34.1553C12.0047 34.1553 11.6265 34.5335 11.6265 35.0001C11.6265 35.4667 12.0047 35.8449 12.4713 35.8449Z" fill="white"/>
<path d="M15.2872 35.8449C15.7538 35.8449 16.132 35.4667 16.132 35.0001C16.132 34.5335 15.7538 34.1553 15.2872 34.1553C14.8206 34.1553 14.4424 34.5335 14.4424 35.0001C14.4424 35.4667 14.8206 35.8449 15.2872 35.8449Z" fill="white"/>
<path d="M18.1036 35.8449C18.5702 35.8449 18.9484 35.4667 18.9484 35.0001C18.9484 34.5335 18.5702 34.1553 18.1036 34.1553C17.637 34.1553 17.2588 34.5335 17.2588 35.0001C17.2588 35.4667 17.637 35.8449 18.1036 35.8449Z" fill="white"/>
<path d="M23.7359 35.8449C24.2025 35.8449 24.5808 35.4667 24.5808 35.0001C24.5808 34.5335 24.2025 34.1553 23.7359 34.1553C23.2694 34.1553 22.8911 34.5335 22.8911 35.0001C22.8911 35.4667 23.2694 35.8449 23.7359 35.8449Z" fill="white"/>
<path d="M26.5519 35.8449C27.0184 35.8449 27.3967 35.4667 27.3967 35.0001C27.3967 34.5335 27.0184 34.1553 26.5519 34.1553C26.0853 34.1553 25.707 34.5335 25.707 35.0001C25.707 35.4667 26.0853 35.8449 26.5519 35.8449Z" fill="white"/>
<path d="M32.1842 35.8449C32.6508 35.8449 33.029 35.4667 33.029 35.0001C33.029 34.5335 32.6508 34.1553 32.1842 34.1553C31.7176 34.1553 31.3394 34.5335 31.3394 35.0001C31.3394 35.4667 31.7176 35.8449 32.1842 35.8449Z" fill="white"/>
<path d="M46.2643 35.8449C46.7308 35.8449 47.1091 35.4667 47.1091 35.0001C47.1091 34.5335 46.7308 34.1553 46.2643 34.1553C45.7977 34.1553 45.4194 34.5335 45.4194 35.0001C45.4194 35.4667 45.7977 35.8449 46.2643 35.8449Z" fill="white"/>
<path d="M51.8966 35.8449C52.3631 35.8449 52.7413 35.4667 52.7413 35.0001C52.7413 34.5335 52.3631 34.1553 51.8966 34.1553C51.43 34.1553 51.0518 34.5335 51.0518 35.0001C51.0518 35.4667 51.43 35.8449 51.8966 35.8449Z" fill="white"/>
<path d="M68.7931 35.8449C69.2597 35.8449 69.6379 35.4667 69.6379 35.0001C69.6379 34.5335 69.2597 34.1553 68.7931 34.1553C68.3265 34.1553 67.9482 34.5335 67.9482 35.0001C67.9482 35.4667 68.3265 35.8449 68.7931 35.8449Z" fill="white"/>
<path d="M1.20714 38.6608C1.67372 38.6608 2.05197 38.2826 2.05197 37.816C2.05197 37.3494 1.67372 36.9712 1.20714 36.9712C0.740549 36.9712 0.362305 37.3494 0.362305 37.816C0.362305 38.2826 0.740549 38.6608 1.20714 38.6608Z" fill="white"/>
<path d="M6.83897 38.6608C7.30555 38.6608 7.68379 38.2826 7.68379 37.816C7.68379 37.3494 7.30555 36.9712 6.83897 36.9712C6.37238 36.9712 5.99414 37.3494 5.99414 37.816C5.99414 38.2826 6.37238 38.6608 6.83897 38.6608Z" fill="white"/>
<path d="M12.4713 38.6608C12.9379 38.6608 13.3161 38.2826 13.3161 37.816C13.3161 37.3494 12.9379 36.9712 12.4713 36.9712C12.0047 36.9712 11.6265 37.3494 11.6265 37.816C11.6265 38.2826 12.0047 38.6608 12.4713 38.6608Z" fill="white"/>
<path d="M15.2872 38.6608C15.7538 38.6608 16.132 38.2826 16.132 37.816C16.132 37.3494 15.7538 36.9712 15.2872 36.9712C14.8206 36.9712 14.4424 37.3494 14.4424 37.816C14.4424 38.2826 14.8206 38.6608 15.2872 38.6608Z" fill="white"/>
<path d="M20.9195 38.6608C21.3861 38.6608 21.7644 38.2826 21.7644 37.816C21.7644 37.3494 21.3861 36.9712 20.9195 36.9712C20.4529 36.9712 20.0747 37.3494 20.0747 37.816C20.0747 38.2826 20.4529 38.6608 20.9195 38.6608Z" fill="white"/>
<path d="M35.0001 38.6608C35.4667 38.6608 35.8449 38.2826 35.8449 37.816C35.8449 37.3494 35.4667 36.9712 35.0001 36.9712C34.5335 36.9712 34.1553 37.3494 34.1553 37.816C34.1553 38.2826 34.5335 38.6608 35.0001 38.6608Z" fill="white"/>
<path d="M37.816 38.6608C38.2826 38.6608 38.6609 38.2826 38.6609 37.816C38.6609 37.3494 38.2826 36.9712 37.816 36.9712C37.3494 36.9712 36.9712 37.3494 36.9712 37.816C36.9712 38.2826 37.3494 38.6608 37.816 38.6608Z" fill="white"/>
<path d="M43.4484 38.6608C43.915 38.6608 44.2932 38.2826 44.2932 37.816C44.2932 37.3494 43.915 36.9712 43.4484 36.9712C42.9818 36.9712 42.6035 37.3494 42.6035 37.816C42.6035 38.2826 42.9818 38.6608 43.4484 38.6608Z" fill="white"/>
<path d="M57.5289 38.6608C57.9955 38.6608 58.3737 38.2826 58.3737 37.816C58.3737 37.3494 57.9955 36.9712 57.5289 36.9712C57.0623 36.9712 56.6841 37.3494 56.6841 37.816C56.6841 38.2826 57.0623 38.6608 57.5289 38.6608Z" fill="white"/>
<path d="M65.9771 38.6608C66.4437 38.6608 66.822 38.2826 66.822 37.816C66.822 37.3494 66.4437 36.9712 65.9771 36.9712C65.5106 36.9712 65.1323 37.3494 65.1323 37.816C65.1323 38.2826 65.5106 38.6608 65.9771 38.6608Z" fill="white"/>
<path d="M1.20714 41.4773C1.67372 41.4773 2.05197 41.099 2.05197 40.6324C2.05197 40.1658 1.67372 39.7876 1.20714 39.7876C0.740549 39.7876 0.362305 40.1658 0.362305 40.6324C0.362305 41.099 0.740549 41.4773 1.20714 41.4773Z" fill="white"/>
<path d="M4.02305 41.4773C4.48964 41.4773 4.86788 41.099 4.86788 40.6324C4.86788 40.1658 4.48964 39.7876 4.02305 39.7876C3.55646 39.7876 3.17822 40.1658 3.17822 40.6324C3.17822 41.099 3.55646 41.4773 4.02305 41.4773Z" fill="white"/>
<path d="M9.65538 41.4773C10.122 41.4773 10.5002 41.099 10.5002 40.6324C10.5002 40.1658 10.122 39.7876 9.65538 39.7876C9.18879 39.7876 8.81055 40.1658 8.81055 40.6324C8.81055 41.099 9.18879 41.4773 9.65538 41.4773Z" fill="white"/>
<path d="M12.4713 41.4773C12.9379 41.4773 13.3161 41.099 13.3161 40.6324C13.3161 40.1658 12.9379 39.7876 12.4713 39.7876C12.0047 39.7876 11.6265 40.1658 11.6265 40.6324C11.6265 41.099 12.0047 41.4773 12.4713 41.4773Z" fill="white"/>
<path d="M18.1036 41.4773C18.5702 41.4773 18.9484 41.099 18.9484 40.6324C18.9484 40.1658 18.5702 39.7876 18.1036 39.7876C17.637 39.7876 17.2588 40.1658 17.2588 40.6324C17.2588 41.099 17.637 41.4773 18.1036 41.4773Z" fill="white"/>
<path d="M20.9195 41.4773C21.3861 41.4773 21.7644 41.099 21.7644 40.6324C21.7644 40.1658 21.3861 39.7876 20.9195 39.7876C20.4529 39.7876 20.0747 40.1658 20.0747 40.6324C20.0747 41.099 20.4529 41.4773 20.9195 41.4773Z" fill="white"/>
<path d="M26.5519 41.4773C27.0184 41.4773 27.3967 41.099 27.3967 40.6324C27.3967 40.1658 27.0184 39.7876 26.5519 39.7876C26.0853 39.7876 25.707 40.1658 25.707 40.6324C25.707 41.099 26.0853 41.4773 26.5519 41.4773Z" fill="white"/>
<path d="M29.3678 41.4773C29.8344 41.4773 30.2126 41.099 30.2126 40.6324C30.2126 40.1658 29.8344 39.7876 29.3678 39.7876C28.9012 39.7876 28.5229 40.1658 28.5229 40.6324C28.5229 41.099 28.9012 41.4773 29.3678 41.4773Z" fill="white"/>
<path d="M37.816 41.4773C38.2826 41.4773 38.6609 41.099 38.6609 40.6324C38.6609 40.1658 38.2826 39.7876 37.816 39.7876C37.3494 39.7876 36.9712 40.1658 36.9712 40.6324C36.9712 41.099 37.3494 41.4773 37.816 41.4773Z" fill="white"/>
<path d="M40.6324 41.4773C41.099 41.4773 41.4773 41.099 41.4773 40.6324C41.4773 40.1658 41.099 39.7876 40.6324 39.7876C40.1658 39.7876 39.7876 40.1658 39.7876 40.6324C39.7876 41.099 40.1658 41.4773 40.6324 41.4773Z" fill="white"/>
<path d="M43.4484 41.4773C43.915 41.4773 44.2932 41.099 44.2932 40.6324C44.2932 40.1658 43.915 39.7876 43.4484 39.7876C42.9818 39.7876 42.6035 40.1658 42.6035 40.6324C42.6035 41.099 42.9818 41.4773 43.4484 41.4773Z" fill="white"/>
<path d="M51.8966 41.4773C52.3631 41.4773 52.7413 41.099 52.7413 40.6324C52.7413 40.1658 52.3631 39.7876 51.8966 39.7876C51.43 39.7876 51.0518 40.1658 51.0518 40.6324C51.0518 41.099 51.43 41.4773 51.8966 41.4773Z" fill="white"/>
<path d="M54.7125 41.4773C55.1791 41.4773 55.5573 41.099 55.5573 40.6324C55.5573 40.1658 55.1791 39.7876 54.7125 39.7876C54.2459 39.7876 53.8677 40.1658 53.8677 40.6324C53.8677 41.099 54.2459 41.4773 54.7125 41.4773Z" fill="white"/>
<path d="M57.5289 41.4773C57.9955 41.4773 58.3737 41.099 58.3737 40.6324C58.3737 40.1658 57.9955 39.7876 57.5289 39.7876C57.0623 39.7876 56.6841 40.1658 56.6841 40.6324C56.6841 41.099 57.0623 41.4773 57.5289 41.4773Z" fill="white"/>
<path d="M60.3448 41.4773C60.8114 41.4773 61.1897 41.099 61.1897 40.6324C61.1897 40.1658 60.8114 39.7876 60.3448 39.7876C59.8782 39.7876 59.5 40.1658 59.5 40.6324C59.5 41.099 59.8782 41.4773 60.3448 41.4773Z" fill="white"/>
<path d="M63.1612 41.4773C63.6278 41.4773 64.006 41.099 64.006 40.6324C64.006 40.1658 63.6278 39.7876 63.1612 39.7876C62.6946 39.7876 62.3164 40.1658 62.3164 40.6324C62.3164 41.099 62.6946 41.4773 63.1612 41.4773Z" fill="white"/>
<path d="M65.9771 41.4773C66.4437 41.4773 66.822 41.099 66.822 40.6324C66.822 40.1658 66.4437 39.7876 65.9771 39.7876C65.5106 39.7876 65.1323 40.1658 65.1323 40.6324C65.1323 41.099 65.5106 41.4773 65.9771 41.4773Z" fill="white"/>
<path d="M68.7931 41.4773C69.2597 41.4773 69.6379 41.099 69.6379 40.6324C69.6379 40.1658 69.2597 39.7876 68.7931 39.7876C68.3265 39.7876 67.9482 40.1658 67.9482 40.6324C67.9482 41.099 68.3265 41.4773 68.7931 41.4773Z" fill="white"/>
<path d="M1.20714 44.2932C1.67372 44.2932 2.05197 43.915 2.05197 43.4484C2.05197 42.9818 1.67372 42.6035 1.20714 42.6035C0.740549 42.6035 0.362305 42.9818 0.362305 43.4484C0.362305 43.915 0.740549 44.2932 1.20714 44.2932Z" fill="white"/>
<path d="M6.83897 44.2932C7.30555 44.2932 7.68379 43.915 7.68379 43.4484C7.68379 42.9818 7.30555 42.6035 6.83897 42.6035C6.37238 42.6035 5.99414 42.9818 5.99414 43.4484C5.99414 43.915 6.37238 44.2932 6.83897 44.2932Z" fill="white"/>
<path d="M9.65538 44.2932C10.122 44.2932 10.5002 43.915 10.5002 43.4484C10.5002 42.9818 10.122 42.6035 9.65538 42.6035C9.18879 42.6035 8.81055 42.9818 8.81055 43.4484C8.81055 43.915 9.18879 44.2932 9.65538 44.2932Z" fill="white"/>
<path d="M12.4713 44.2932C12.9379 44.2932 13.3161 43.915 13.3161 43.4484C13.3161 42.9818 12.9379 42.6035 12.4713 42.6035C12.0047 42.6035 11.6265 42.9818 11.6265 43.4484C11.6265 43.915 12.0047 44.2932 12.4713 44.2932Z" fill="white"/>
<path d="M20.9195 44.2932C21.3861 44.2932 21.7644 43.915 21.7644 43.4484C21.7644 42.9818 21.3861 42.6035 20.9195 42.6035C20.4529 42.6035 20.0747 42.9818 20.0747 43.4484C20.0747 43.915 20.4529 44.2932 20.9195 44.2932Z" fill="white"/>
<path d="M35.0001 44.2932C35.4667 44.2932 35.8449 43.915 35.8449 43.4484C35.8449 42.9818 35.4667 42.6035 35.0001 42.6035C34.5335 42.6035 34.1553 42.9818 34.1553 43.4484C34.1553 43.915 34.5335 44.2932 35.0001 44.2932Z" fill="white"/>
<path d="M40.6324 44.2932C41.099 44.2932 41.4773 43.915 41.4773 43.4484C41.4773 42.9818 41.099 42.6035 40.6324 42.6035C40.1658 42.6035 39.7876 42.9818 39.7876 43.4484C39.7876 43.915 40.1658 44.2932 40.6324 44.2932Z" fill="white"/>
<path d="M43.4484 44.2932C43.915 44.2932 44.2932 43.915 44.2932 43.4484C44.2932 42.9818 43.915 42.6035 43.4484 42.6035C42.9818 42.6035 42.6035 42.9818 42.6035 43.4484C42.6035 43.915 42.9818 44.2932 43.4484 44.2932Z" fill="white"/>
<path d="M49.0807 44.2932C49.5473 44.2932 49.9255 43.915 49.9255 43.4484C49.9255 42.9818 49.5473 42.6035 49.0807 42.6035C48.6141 42.6035 48.2358 42.9818 48.2358 43.4484C48.2358 43.915 48.6141 44.2932 49.0807 44.2932Z" fill="white"/>
<path d="M51.8966 44.2932C52.3631 44.2932 52.7413 43.915 52.7413 43.4484C52.7413 42.9818 52.3631 42.6035 51.8966 42.6035C51.43 42.6035 51.0518 42.9818 51.0518 43.4484C51.0518 43.915 51.43 44.2932 51.8966 44.2932Z" fill="white"/>
<path d="M57.5289 44.2932C57.9955 44.2932 58.3737 43.915 58.3737 43.4484C58.3737 42.9818 57.9955 42.6035 57.5289 42.6035C57.0623 42.6035 56.6841 42.9818 56.6841 43.4484C56.6841 43.915 57.0623 44.2932 57.5289 44.2932Z" fill="white"/>
<path d="M63.1612 44.2932C63.6278 44.2932 64.006 43.915 64.006 43.4484C64.006 42.9818 63.6278 42.6035 63.1612 42.6035C62.6946 42.6035 62.3164 42.9818 62.3164 43.4484C62.3164 43.915 62.6946 44.2932 63.1612 44.2932Z" fill="white"/>
<path d="M68.7931 44.2932C69.2597 44.2932 69.6379 43.915 69.6379 43.4484C69.6379 42.9818 69.2597 42.6035 68.7931 42.6035C68.3265 42.6035 67.9482 42.9818 67.9482 43.4484C67.9482 43.915 68.3265 44.2932 68.7931 44.2932Z" fill="white"/>
<path d="M1.20714 47.1091C1.67372 47.1091 2.05197 46.7308 2.05197 46.2643C2.05197 45.7977 1.67372 45.4194 1.20714 45.4194C0.740549 45.4194 0.362305 45.7977 0.362305 46.2643C0.362305 46.7308 0.740549 47.1091 1.20714 47.1091Z" fill="white"/>
<path d="M9.65538 47.1091C10.122 47.1091 10.5002 46.7308 10.5002 46.2643C10.5002 45.7977 10.122 45.4194 9.65538 45.4194C9.18879 45.4194 8.81055 45.7977 8.81055 46.2643C8.81055 46.7308 9.18879 47.1091 9.65538 47.1091Z" fill="white"/>
<path d="M12.4713 47.1091C12.9379 47.1091 13.3161 46.7308 13.3161 46.2643C13.3161 45.7977 12.9379 45.4194 12.4713 45.4194C12.0047 45.4194 11.6265 45.7977 11.6265 46.2643C11.6265 46.7308 12.0047 47.1091 12.4713 47.1091Z" fill="white"/>
<path d="M18.1036 47.1091C18.5702 47.1091 18.9484 46.7308 18.9484 46.2643C18.9484 45.7977 18.5702 45.4194 18.1036 45.4194C17.637 45.4194 17.2588 45.7977 17.2588 46.2643C17.2588 46.7308 17.637 47.1091 18.1036 47.1091Z" fill="white"/>
<path d="M23.7359 47.1091C24.2025 47.1091 24.5808 46.7308 24.5808 46.2643C24.5808 45.7977 24.2025 45.4194 23.7359 45.4194C23.2694 45.4194 22.8911 45.7977 22.8911 46.2643C22.8911 46.7308 23.2694 47.1091 23.7359 47.1091Z" fill="white"/>
<path d="M26.5519 47.1091C27.0184 47.1091 27.3967 46.7308 27.3967 46.2643C27.3967 45.7977 27.0184 45.4194 26.5519 45.4194C26.0853 45.4194 25.707 45.7977 25.707 46.2643C25.707 46.7308 26.0853 47.1091 26.5519 47.1091Z" fill="white"/>
<path d="M29.3678 47.1091C29.8344 47.1091 30.2126 46.7308 30.2126 46.2643C30.2126 45.7977 29.8344 45.4194 29.3678 45.4194C28.9012 45.4194 28.5229 45.7977 28.5229 46.2643C28.5229 46.7308 28.9012 47.1091 29.3678 47.1091Z" fill="white"/>
<path d="M32.1842 47.1091C32.6508 47.1091 33.029 46.7308 33.029 46.2643C33.029 45.7977 32.6508 45.4194 32.1842 45.4194C31.7176 45.4194 31.3394 45.7977 31.3394 46.2643C31.3394 46.7308 31.7176 47.1091 32.1842 47.1091Z" fill="white"/>
<path d="M35.0001 47.1091C35.4667 47.1091 35.8449 46.7308 35.8449 46.2643C35.8449 45.7977 35.4667 45.4194 35.0001 45.4194C34.5335 45.4194 34.1553 45.7977 34.1553 46.2643C34.1553 46.7308 34.5335 47.1091 35.0001 47.1091Z" fill="white"/>
<path d="M37.816 47.1091C38.2826 47.1091 38.6609 46.7308 38.6609 46.2643C38.6609 45.7977 38.2826 45.4194 37.816 45.4194C37.3494 45.4194 36.9712 45.7977 36.9712 46.2643C36.9712 46.7308 37.3494 47.1091 37.816 47.1091Z" fill="white"/>
<path d="M40.6324 47.1091C41.099 47.1091 41.4773 46.7308 41.4773 46.2643C41.4773 45.7977 41.099 45.4194 40.6324 45.4194C40.1658 45.4194 39.7876 45.7977 39.7876 46.2643C39.7876 46.7308 40.1658 47.1091 40.6324 47.1091Z" fill="white"/>
<path d="M46.2643 47.1091C46.7308 47.1091 47.1091 46.7308 47.1091 46.2643C47.1091 45.7977 46.7308 45.4194 46.2643 45.4194C45.7977 45.4194 45.4194 45.7977 45.4194 46.2643C45.4194 46.7308 45.7977 47.1091 46.2643 47.1091Z" fill="white"/>
<path d="M49.0807 47.1091C49.5473 47.1091 49.9255 46.7308 49.9255 46.2643C49.9255 45.7977 49.5473 45.4194 49.0807 45.4194C48.6141 45.4194 48.2358 45.7977 48.2358 46.2643C48.2358 46.7308 48.6141 47.1091 49.0807 47.1091Z" fill="white"/>
<path d="M51.8966 47.1091C52.3631 47.1091 52.7413 46.7308 52.7413 46.2643C52.7413 45.7977 52.3631 45.4194 51.8966 45.4194C51.43 45.4194 51.0518 45.7977 51.0518 46.2643C51.0518 46.7308 51.43 47.1091 51.8966 47.1091Z" fill="white"/>
<path d="M54.7125 47.1091C55.1791 47.1091 55.5573 46.7308 55.5573 46.2643C55.5573 45.7977 55.1791 45.4194 54.7125 45.4194C54.2459 45.4194 53.8677 45.7977 53.8677 46.2643C53.8677 46.7308 54.2459 47.1091 54.7125 47.1091Z" fill="white"/>
<path d="M57.5289 47.1091C57.9955 47.1091 58.3737 46.7308 58.3737 46.2643C58.3737 45.7977 57.9955 45.4194 57.5289 45.4194C57.0623 45.4194 56.6841 45.7977 56.6841 46.2643C56.6841 46.7308 57.0623 47.1091 57.5289 47.1091Z" fill="white"/>
<path d="M63.1612 47.1091C63.6278 47.1091 64.006 46.7308 64.006 46.2643C64.006 45.7977 63.6278 45.4194 63.1612 45.4194C62.6946 45.4194 62.3164 45.7977 62.3164 46.2643C62.3164 46.7308 62.6946 47.1091 63.1612 47.1091Z" fill="white"/>
<path d="M65.9771 47.1091C66.4437 47.1091 66.822 46.7308 66.822 46.2643C66.822 45.7977 66.4437 45.4194 65.9771 45.4194C65.5106 45.4194 65.1323 45.7977 65.1323 46.2643C65.1323 46.7308 65.5106 47.1091 65.9771 47.1091Z" fill="white"/>
<path d="M23.7359 49.9255C24.2025 49.9255 24.5808 49.5473 24.5808 49.0807C24.5808 48.6141 24.2025 48.2358 23.7359 48.2358C23.2694 48.2358 22.8911 48.6141 22.8911 49.0807C22.8911 49.5473 23.2694 49.9255 23.7359 49.9255Z" fill="white"/>
<path d="M26.5519 49.9255C27.0184 49.9255 27.3967 49.5473 27.3967 49.0807C27.3967 48.6141 27.0184 48.2358 26.5519 48.2358C26.0853 48.2358 25.707 48.6141 25.707 49.0807C25.707 49.5473 26.0853 49.9255 26.5519 49.9255Z" fill="white"/>
<path d="M29.3678 49.9255C29.8344 49.9255 30.2126 49.5473 30.2126 49.0807C30.2126 48.6141 29.8344 48.2358 29.3678 48.2358C28.9012 48.2358 28.5229 48.6141 28.5229 49.0807C28.5229 49.5473 28.9012 49.9255 29.3678 49.9255Z" fill="white"/>
<path d="M32.1842 49.9255C32.6508 49.9255 33.029 49.5473 33.029 49.0807C33.029 48.6141 32.6508 48.2358 32.1842 48.2358C31.7176 48.2358 31.3394 48.6141 31.3394 49.0807C31.3394 49.5473 31.7176 49.9255 32.1842 49.9255Z" fill="white"/>
<path d="M37.816 49.9255C38.2826 49.9255 38.6609 49.5473 38.6609 49.0807C38.6609 48.6141 38.2826 48.2358 37.816 48.2358C37.3494 48.2358 36.9712 48.6141 36.9712 49.0807C36.9712 49.5473 37.3494 49.9255 37.816 49.9255Z" fill="white"/>
<path d="M46.2643 49.9255C46.7308 49.9255 47.1091 49.5473 47.1091 49.0807C47.1091 48.6141 46.7308 48.2358 46.2643 48.2358C45.7977 48.2358 45.4194 48.6141 45.4194 49.0807C45.4194 49.5473 45.7977 49.9255 46.2643 49.9255Z" fill="white"/>
<path d="M57.5289 49.9255C57.9955 49.9255 58.3737 49.5473 58.3737 49.0807C58.3737 48.6141 57.9955 48.2358 57.5289 48.2358C57.0623 48.2358 56.6841 48.6141 56.6841 49.0807C56.6841 49.5473 57.0623 49.9255 57.5289 49.9255Z" fill="white"/>
<path d="M65.9771 49.9255C66.4437 49.9255 66.822 49.5473 66.822 49.0807C66.822 48.6141 66.4437 48.2358 65.9771 48.2358C65.5106 48.2358 65.1323 48.6141 65.1323 49.0807C65.1323 49.5473 65.5106 49.9255 65.9771 49.9255Z" fill="white"/>
<path d="M23.7359 52.7413C24.2025 52.7413 24.5808 52.3631 24.5808 51.8965C24.5808 51.43 24.2025 51.0518 23.7359 51.0518C23.2694 51.0518 22.8911 51.43 22.8911 51.8965C22.8911 52.3631 23.2694 52.7413 23.7359 52.7413Z" fill="white"/>
<path d="M35.0001 52.7413C35.4667 52.7413 35.8449 52.3631 35.8449 51.8965C35.8449 51.43 35.4667 51.0518 35.0001 51.0518C34.5335 51.0518 34.1553 51.43 34.1553 51.8965C34.1553 52.3631 34.5335 52.7413 35.0001 52.7413Z" fill="white"/>
<path d="M46.2643 52.7413C46.7308 52.7413 47.1091 52.3631 47.1091 51.8965C47.1091 51.43 46.7308 51.0518 46.2643 51.0518C45.7977 51.0518 45.4194 51.43 45.4194 51.8965C45.4194 52.3631 45.7977 52.7413 46.2643 52.7413Z" fill="white"/>
<path d="M51.8966 52.7413C52.3631 52.7413 52.7413 52.3631 52.7413 51.8965C52.7413 51.43 52.3631 51.0518 51.8966 51.0518C51.43 51.0518 51.0518 51.43 51.0518 51.8965C51.0518 52.3631 51.43 52.7413 51.8966 52.7413Z" fill="white"/>
<path d="M57.5289 52.7413C57.9955 52.7413 58.3737 52.3631 58.3737 51.8965C58.3737 51.43 57.9955 51.0518 57.5289 51.0518C57.0623 51.0518 56.6841 51.43 56.6841 51.8965C56.6841 52.3631 57.0623 52.7413 57.5289 52.7413Z" fill="white"/>
<path d="M60.3448 52.7413C60.8114 52.7413 61.1897 52.3631 61.1897 51.8965C61.1897 51.43 60.8114 51.0518 60.3448 51.0518C59.8782 51.0518 59.5 51.43 59.5 51.8965C59.5 52.3631 59.8782 52.7413 60.3448 52.7413Z" fill="white"/>
<path d="M68.7931 52.7413C69.2597 52.7413 69.6379 52.3631 69.6379 51.8965C69.6379 51.43 69.2597 51.0518 68.7931 51.0518C68.3265 51.0518 67.9482 51.43 67.9482 51.8965C67.9482 52.3631 68.3265 52.7413 68.7931 52.7413Z" fill="white"/>
<path d="M23.7359 55.5573C24.2025 55.5573 24.5808 55.1791 24.5808 54.7125C24.5808 54.2459 24.2025 53.8677 23.7359 53.8677C23.2694 53.8677 22.8911 54.2459 22.8911 54.7125C22.8911 55.1791 23.2694 55.5573 23.7359 55.5573Z" fill="white"/>
<path d="M26.5519 55.5573C27.0184 55.5573 27.3967 55.1791 27.3967 54.7125C27.3967 54.2459 27.0184 53.8677 26.5519 53.8677C26.0853 53.8677 25.707 54.2459 25.707 54.7125C25.707 55.1791 26.0853 55.5573 26.5519 55.5573Z" fill="white"/>
<path d="M32.1842 55.5573C32.6508 55.5573 33.029 55.1791 33.029 54.7125C33.029 54.2459 32.6508 53.8677 32.1842 53.8677C31.7176 53.8677 31.3394 54.2459 31.3394 54.7125C31.3394 55.1791 31.7176 55.5573 32.1842 55.5573Z" fill="white"/>
<path d="M37.816 55.5573C38.2826 55.5573 38.6609 55.1791 38.6609 54.7125C38.6609 54.2459 38.2826 53.8677 37.816 53.8677C37.3494 53.8677 36.9712 54.2459 36.9712 54.7125C36.9712 55.1791 37.3494 55.5573 37.816 55.5573Z" fill="white"/>
<path d="M43.4484 55.5573C43.915 55.5573 44.2932 55.1791 44.2932 54.7125C44.2932 54.2459 43.915 53.8677 43.4484 53.8677C42.9818 53.8677 42.6035 54.2459 42.6035 54.7125C42.6035 55.1791 42.9818 55.5573 43.4484 55.5573Z" fill="white"/>
<path d="M46.2643 55.5573C46.7308 55.5573 47.1091 55.1791 47.1091 54.7125C47.1091 54.2459 46.7308 53.8677 46.2643 53.8677C45.7977 53.8677 45.4194 54.2459 45.4194 54.7125C45.4194 55.1791 45.7977 55.5573 46.2643 55.5573Z" fill="white"/>
<path d="M57.5289 55.5573C57.9955 55.5573 58.3737 55.1791 58.3737 54.7125C58.3737 54.2459 57.9955 53.8677 57.5289 53.8677C57.0623 53.8677 56.6841 54.2459 56.6841 54.7125C56.6841 55.1791 57.0623 55.5573 57.5289 55.5573Z" fill="white"/>
<path d="M23.7359 58.3737C24.2025 58.3737 24.5808 57.9955 24.5808 57.5289C24.5808 57.0623 24.2025 56.6841 23.7359 56.6841C23.2694 56.6841 22.8911 57.0623 22.8911 57.5289C22.8911 57.9955 23.2694 58.3737 23.7359 58.3737Z" fill="white"/>
<path d="M29.3678 58.3737C29.8344 58.3737 30.2126 57.9955 30.2126 57.5289C30.2126 57.0623 29.8344 56.6841 29.3678 56.6841C28.9012 56.6841 28.5229 57.0623 28.5229 57.5289C28.5229 57.9955 28.9012 58.3737 29.3678 58.3737Z" fill="white"/>
<path d="M32.1842 58.3737C32.6508 58.3737 33.029 57.9955 33.029 57.5289C33.029 57.0623 32.6508 56.6841 32.1842 56.6841C31.7176 56.6841 31.3394 57.0623 31.3394 57.5289C31.3394 57.9955 31.7176 58.3737 32.1842 58.3737Z" fill="white"/>
<path d="M37.816 58.3737C38.2826 58.3737 38.6609 57.9955 38.6609 57.5289C38.6609 57.0623 38.2826 56.6841 37.816 56.6841C37.3494 56.6841 36.9712 57.0623 36.9712 57.5289C36.9712 57.9955 37.3494 58.3737 37.816 58.3737Z" fill="white"/>
<path d="M43.4484 58.3737C43.915 58.3737 44.2932 57.9955 44.2932 57.5289C44.2932 57.0623 43.915 56.6841 43.4484 56.6841C42.9818 56.6841 42.6035 57.0623 42.6035 57.5289C42.6035 57.9955 42.9818 58.3737 43.4484 58.3737Z" fill="white"/>
<path d="M46.2643 58.3737C46.7308 58.3737 47.1091 57.9955 47.1091 57.5289C47.1091 57.0623 46.7308 56.6841 46.2643 56.6841C45.7977 56.6841 45.4194 57.0623 45.4194 57.5289C45.4194 57.9955 45.7977 58.3737 46.2643 58.3737Z" fill="white"/>
<path d="M49.0807 58.3737C49.5473 58.3737 49.9255 57.9955 49.9255 57.5289C49.9255 57.0623 49.5473 56.6841 49.0807 56.6841C48.6141 56.6841 48.2358 57.0623 48.2358 57.5289C48.2358 57.9955 48.6141 58.3737 49.0807 58.3737Z" fill="white"/>
<path d="M51.8966 58.3737C52.3631 58.3737 52.7413 57.9955 52.7413 57.5289C52.7413 57.0623 52.3631 56.6841 51.8966 56.6841C51.43 56.6841 51.0518 57.0623 51.0518 57.5289C51.0518 57.9955 51.43 58.3737 51.8966 58.3737Z" fill="white"/>
<path d="M54.7125 58.3737C55.1791 58.3737 55.5573 57.9955 55.5573 57.5289C55.5573 57.0623 55.1791 56.6841 54.7125 56.6841C54.2459 56.6841 53.8677 57.0623 53.8677 57.5289C53.8677 57.9955 54.2459 58.3737 54.7125 58.3737Z" fill="white"/>
<path d="M57.5289 58.3737C57.9955 58.3737 58.3737 57.9955 58.3737 57.5289C58.3737 57.0623 57.9955 56.6841 57.5289 56.6841C57.0623 56.6841 56.6841 57.0623 56.6841 57.5289C56.6841 57.9955 57.0623 58.3737 57.5289 58.3737Z" fill="white"/>
<path d="M60.3448 58.3737C60.8114 58.3737 61.1897 57.9955 61.1897 57.5289C61.1897 57.0623 60.8114 56.6841 60.3448 56.6841C59.8782 56.6841 59.5 57.0623 59.5 57.5289C59.5 57.9955 59.8782 58.3737 60.3448 58.3737Z" fill="white"/>
<path d="M65.9771 58.3737C66.4437 58.3737 66.822 57.9955 66.822 57.5289C66.822 57.0623 66.4437 56.6841 65.9771 56.6841C65.5106 56.6841 65.1323 57.0623 65.1323 57.5289C65.1323 57.9955 65.5106 58.3737 65.9771 58.3737Z" fill="white"/>
<path d="M68.7931 58.3737C69.2597 58.3737 69.6379 57.9955 69.6379 57.5289C69.6379 57.0623 69.2597 56.6841 68.7931 56.6841C68.3265 56.6841 67.9482 57.0623 67.9482 57.5289C67.9482 57.9955 68.3265 58.3737 68.7931 58.3737Z" fill="white"/>
<path d="M23.7359 61.1897C24.2025 61.1897 24.5808 60.8114 24.5808 60.3448C24.5808 59.8782 24.2025 59.5 23.7359 59.5C23.2694 59.5 22.8911 59.8782 22.8911 60.3448C22.8911 60.8114 23.2694 61.1897 23.7359 61.1897Z" fill="white"/>
<path d="M26.5519 61.1897C27.0184 61.1897 27.3967 60.8114 27.3967 60.3448C27.3967 59.8782 27.0184 59.5 26.5519 59.5C26.0853 59.5 25.707 59.8782 25.707 60.3448C25.707 60.8114 26.0853 61.1897 26.5519 61.1897Z" fill="white"/>
<path d="M29.3678 61.1897C29.8344 61.1897 30.2126 60.8114 30.2126 60.3448C30.2126 59.8782 29.8344 59.5 29.3678 59.5C28.9012 59.5 28.5229 59.8782 28.5229 60.3448C28.5229 60.8114 28.9012 61.1897 29.3678 61.1897Z" fill="white"/>
<path d="M35.0001 61.1897C35.4667 61.1897 35.8449 60.8114 35.8449 60.3448C35.8449 59.8782 35.4667 59.5 35.0001 59.5C34.5335 59.5 34.1553 59.8782 34.1553 60.3448C34.1553 60.8114 34.5335 61.1897 35.0001 61.1897Z" fill="white"/>
<path d="M37.816 61.1897C38.2826 61.1897 38.6609 60.8114 38.6609 60.3448C38.6609 59.8782 38.2826 59.5 37.816 59.5C37.3494 59.5 36.9712 59.8782 36.9712 60.3448C36.9712 60.8114 37.3494 61.1897 37.816 61.1897Z" fill="white"/>
<path d="M40.6324 61.1897C41.099 61.1897 41.4773 60.8114 41.4773 60.3448C41.4773 59.8782 41.099 59.5 40.6324 59.5C40.1658 59.5 39.7876 59.8782 39.7876 60.3448C39.7876 60.8114 40.1658 61.1897 40.6324 61.1897Z" fill="white"/>
<path d="M49.0807 61.1897C49.5473 61.1897 49.9255 60.8114 49.9255 60.3448C49.9255 59.8782 49.5473 59.5 49.0807 59.5C48.6141 59.5 48.2358 59.8782 48.2358 60.3448C48.2358 60.8114 48.6141 61.1897 49.0807 61.1897Z" fill="white"/>
<path d="M51.8966 61.1897C52.3631 61.1897 52.7413 60.8114 52.7413 60.3448C52.7413 59.8782 52.3631 59.5 51.8966 59.5C51.43 59.5 51.0518 59.8782 51.0518 60.3448C51.0518 60.8114 51.43 61.1897 51.8966 61.1897Z" fill="white"/>
<path d="M54.7125 61.1897C55.1791 61.1897 55.5573 60.8114 55.5573 60.3448C55.5573 59.8782 55.1791 59.5 54.7125 59.5C54.2459 59.5 53.8677 59.8782 53.8677 60.3448C53.8677 60.8114 54.2459 61.1897 54.7125 61.1897Z" fill="white"/>
<path d="M60.3448 61.1897C60.8114 61.1897 61.1897 60.8114 61.1897 60.3448C61.1897 59.8782 60.8114 59.5 60.3448 59.5C59.8782 59.5 59.5 59.8782 59.5 60.3448C59.5 60.8114 59.8782 61.1897 60.3448 61.1897Z" fill="white"/>
<path d="M65.9771 61.1897C66.4437 61.1897 66.822 60.8114 66.822 60.3448C66.822 59.8782 66.4437 59.5 65.9771 59.5C65.5106 59.5 65.1323 59.8782 65.1323 60.3448C65.1323 60.8114 65.5106 61.1897 65.9771 61.1897Z" fill="white"/>
<path d="M68.7931 61.1897C69.2597 61.1897 69.6379 60.8114 69.6379 60.3448C69.6379 59.8782 69.2597 59.5 68.7931 59.5C68.3265 59.5 67.9482 59.8782 67.9482 60.3448C67.9482 60.8114 68.3265 61.1897 68.7931 61.1897Z" fill="white"/>
<path d="M29.3678 64.006C29.8344 64.006 30.2126 63.6278 30.2126 63.1612C30.2126 62.6946 29.8344 62.3164 29.3678 62.3164C28.9012 62.3164 28.5229 62.6946 28.5229 63.1612C28.5229 63.6278 28.9012 64.006 29.3678 64.006Z" fill="white"/>
<path d="M32.1842 64.006C32.6508 64.006 33.029 63.6278 33.029 63.1612C33.029 62.6946 32.6508 62.3164 32.1842 62.3164C31.7176 62.3164 31.3394 62.6946 31.3394 63.1612C31.3394 63.6278 31.7176 64.006 32.1842 64.006Z" fill="white"/>
<path d="M37.816 64.006C38.2826 64.006 38.6609 63.6278 38.6609 63.1612C38.6609 62.6946 38.2826 62.3164 37.816 62.3164C37.3494 62.3164 36.9712 62.6946 36.9712 63.1612C36.9712 63.6278 37.3494 64.006 37.816 64.006Z" fill="white"/>
<path d="M43.4484 64.006C43.915 64.006 44.2932 63.6278 44.2932 63.1612C44.2932 62.6946 43.915 62.3164 43.4484 62.3164C42.9818 62.3164 42.6035 62.6946 42.6035 63.1612C42.6035 63.6278 42.9818 64.006 43.4484 64.006Z" fill="white"/>
<path d="M49.0807 64.006C49.5473 64.006 49.9255 63.6278 49.9255 63.1612C49.9255 62.6946 49.5473 62.3164 49.0807 62.3164C48.6141 62.3164 48.2358 62.6946 48.2358 63.1612C48.2358 63.6278 48.6141 64.006 49.0807 64.006Z" fill="white"/>
<path d="M54.7125 64.006C55.1791 64.006 55.5573 63.6278 55.5573 63.1612C55.5573 62.6946 55.1791 62.3164 54.7125 62.3164C54.2459 62.3164 53.8677 62.6946 53.8677 63.1612C53.8677 63.6278 54.2459 64.006 54.7125 64.006Z" fill="white"/>
<path d="M57.5289 64.006C57.9955 64.006 58.3737 63.6278 58.3737 63.1612C58.3737 62.6946 57.9955 62.3164 57.5289 62.3164C57.0623 62.3164 56.6841 62.6946 56.6841 63.1612C56.6841 63.6278 57.0623 64.006 57.5289 64.006Z" fill="white"/>
<path d="M63.1612 64.006C63.6278 64.006 64.006 63.6278 64.006 63.1612C64.006 62.6946 63.6278 62.3164 63.1612 62.3164C62.6946 62.3164 62.3164 62.6946 62.3164 63.1612C62.3164 63.6278 62.6946 64.006 63.1612 64.006Z" fill="white"/>
<path d="M65.9771 64.006C66.4437 64.006 66.822 63.6278 66.822 63.1612C66.822 62.6946 66.4437 62.3164 65.9771 62.3164C65.5106 62.3164 65.1323 62.6946 65.1323 63.1612C65.1323 63.6278 65.5106 64.006 65.9771 64.006Z" fill="white"/>
<path d="M68.7931 64.006C69.2597 64.006 69.6379 63.6278 69.6379 63.1612C69.6379 62.6946 69.2597 62.3164 68.7931 62.3164C68.3265 62.3164 67.9482 62.6946 67.9482 63.1612C67.9482 63.6278 68.3265 64.006 68.7931 64.006Z" fill="white"/>
<path d="M26.5519 66.822C27.0184 66.822 27.3967 66.4437 27.3967 65.9771C27.3967 65.5106 27.0184 65.1323 26.5519 65.1323C26.0853 65.1323 25.707 65.5106 25.707 65.9771C25.707 66.4437 26.0853 66.822 26.5519 66.822Z" fill="white"/>
<path d="M32.1842 66.822C32.6508 66.822 33.029 66.4437 33.029 65.9771C33.029 65.5106 32.6508 65.1323 32.1842 65.1323C31.7176 65.1323 31.3394 65.5106 31.3394 65.9771C31.3394 66.4437 31.7176 66.822 32.1842 66.822Z" fill="white"/>
<path d="M35.0001 66.822C35.4667 66.822 35.8449 66.4437 35.8449 65.9771C35.8449 65.5106 35.4667 65.1323 35.0001 65.1323C34.5335 65.1323 34.1553 65.5106 34.1553 65.9771C34.1553 66.4437 34.5335 66.822 35.0001 66.822Z" fill="white"/>
<path d="M37.816 66.822C38.2826 66.822 38.6609 66.4437 38.6609 65.9771C38.6609 65.5106 38.2826 65.1323 37.816 65.1323C37.3494 65.1323 36.9712 65.5106 36.9712 65.9771C36.9712 66.4437 37.3494 66.822 37.816 66.822Z" fill="white"/>
<path d="M43.4484 66.822C43.915 66.822 44.2932 66.4437 44.2932 65.9771C44.2932 65.5106 43.915 65.1323 43.4484 65.1323C42.9818 65.1323 42.6035 65.5106 42.6035 65.9771C42.6035 66.4437 42.9818 66.822 43.4484 66.822Z" fill="white"/>
<path d="M51.8966 66.822C52.3631 66.822 52.7413 66.4437 52.7413 65.9771C52.7413 65.5106 52.3631 65.1323 51.8966 65.1323C51.43 65.1323 51.0518 65.5106 51.0518 65.9771C51.0518 66.4437 51.43 66.822 51.8966 66.822Z" fill="white"/>
<path d="M54.7125 66.822C55.1791 66.822 55.5573 66.4437 55.5573 65.9771C55.5573 65.5106 55.1791 65.1323 54.7125 65.1323C54.2459 65.1323 53.8677 65.5106 53.8677 65.9771C53.8677 66.4437 54.2459 66.822 54.7125 66.822Z" fill="white"/>
<path d="M57.5289 66.822C57.9955 66.822 58.3737 66.4437 58.3737 65.9771C58.3737 65.5106 57.9955 65.1323 57.5289 65.1323C57.0623 65.1323 56.6841 65.5106 56.6841 65.9771C56.6841 66.4437 57.0623 66.822 57.5289 66.822Z" fill="white"/>
<path d="M63.1612 66.822C63.6278 66.822 64.006 66.4437 64.006 65.9771C64.006 65.5106 63.6278 65.1323 63.1612 65.1323C62.6946 65.1323 62.3164 65.5106 62.3164 65.9771C62.3164 66.4437 62.6946 66.822 63.1612 66.822Z" fill="white"/>
<path d="M65.9771 66.822C66.4437 66.822 66.822 66.4437 66.822 65.9771C66.822 65.5106 66.4437 65.1323 65.9771 65.1323C65.5106 65.1323 65.1323 65.5106 65.1323 65.9771C65.1323 66.4437 65.5106 66.822 65.9771 66.822Z" fill="white"/>
<path d="M68.7931 66.822C69.2597 66.822 69.6379 66.4437 69.6379 65.9771C69.6379 65.5106 69.2597 65.1323 68.7931 65.1323C68.3265 65.1323 67.9482 65.5106 67.9482 65.9771C67.9482 66.4437 68.3265 66.822 68.7931 66.822Z" fill="white"/>
<path d="M23.7359 69.6379C24.2025 69.6379 24.5808 69.2597 24.5808 68.7931C24.5808 68.3265 24.2025 67.9482 23.7359 67.9482C23.2694 67.9482 22.8911 68.3265 22.8911 68.7931C22.8911 69.2597 23.2694 69.6379 23.7359 69.6379Z" fill="white"/>
<path d="M32.1842 69.6379C32.6508 69.6379 33.029 69.2597 33.029 68.7931C33.029 68.3265 32.6508 67.9482 32.1842 67.9482C31.7176 67.9482 31.3394 68.3265 31.3394 68.7931C31.3394 69.2597 31.7176 69.6379 32.1842 69.6379Z" fill="white"/>
<path d="M35.0001 69.6379C35.4667 69.6379 35.8449 69.2597 35.8449 68.7931C35.8449 68.3265 35.4667 67.9482 35.0001 67.9482C34.5335 67.9482 34.1553 68.3265 34.1553 68.7931C34.1553 69.2597 34.5335 69.6379 35.0001 69.6379Z" fill="white"/>
<path d="M37.816 69.6379C38.2826 69.6379 38.6609 69.2597 38.6609 68.7931C38.6609 68.3265 38.2826 67.9482 37.816 67.9482C37.3494 67.9482 36.9712 68.3265 36.9712 68.7931C36.9712 69.2597 37.3494 69.6379 37.816 69.6379Z" fill="white"/>
<path d="M46.2643 69.6379C46.7308 69.6379 47.1091 69.2597 47.1091 68.7931C47.1091 68.3265 46.7308 67.9482 46.2643 67.9482C45.7977 67.9482 45.4194 68.3265 45.4194 68.7931C45.4194 69.2597 45.7977 69.6379 46.2643 69.6379Z" fill="white"/>
<path d="M60.3448 69.6379C60.8114 69.6379 61.1897 69.2597 61.1897 68.7931C61.1897 68.3265 60.8114 67.9482 60.3448 67.9482C59.8782 67.9482 59.5 68.3265 59.5 68.7931C59.5 69.2597 59.8782 69.6379 60.3448 69.6379Z" fill="white"/>
<path d="M68.7931 69.6379C69.2597 69.6379 69.6379 69.2597 69.6379 68.7931C69.6379 68.3265 69.2597 67.9482 68.7931 67.9482C68.3265 67.9482 67.9482 68.3265 67.9482 68.7931C67.9482 69.2597 68.3265 69.6379 68.7931 69.6379Z" fill="white"/>
<path d="M9.65525 -0.0078125C4.31873 -0.0078125 -0.0078125 4.31873 -0.0078125 9.65525C-0.0078125 14.9918 4.31873 19.3183 9.65525 19.3183C14.9918 19.3183 19.3183 14.9918 19.3183 9.65525C19.3183 4.31873 14.9918 -0.0078125 9.65525 -0.0078125ZM9.65525 16.4194C5.9255 16.4194 2.8911 13.385 2.8911 9.65525C2.8911 5.9255 5.9255 2.8911 9.65525 2.8911C13.385 2.8911 16.4194 5.9255 16.4194 9.65525C16.4194 13.385 13.385 16.4194 9.65525 16.4194Z" fill="white"/>
<path d="M60.3447 -0.0078125C55.0082 -0.0078125 50.6816 4.31873 50.6816 9.65525C50.6816 14.9918 55.0082 19.3183 60.3447 19.3183C65.6812 19.3183 70.0078 14.9918 70.0078 9.65525C70.0078 4.31873 65.6812 -0.0078125 60.3447 -0.0078125ZM60.3447 16.4194C56.615 16.4194 53.5806 13.385 53.5806 9.65525C53.5806 5.9255 56.615 2.8911 60.3447 2.8911C64.0745 2.8911 67.1089 5.9255 67.1089 9.65525C67.1089 13.385 64.0745 16.4194 60.3447 16.4194Z" fill="white"/>
<path d="M9.65525 50.6816C4.31873 50.6816 -0.0078125 55.0082 -0.0078125 60.3447C-0.0078125 65.6812 4.31873 70.0078 9.65525 70.0078C14.9918 70.0078 19.3183 65.6812 19.3183 60.3447C19.3183 55.0082 14.9918 50.6816 9.65525 50.6816ZM9.65525 67.1089C5.9255 67.1089 2.8911 64.0745 2.8911 60.3447C2.8911 56.615 5.9255 53.5806 9.65525 53.5806C13.385 53.5806 16.4194 56.615 16.4194 60.3447C16.4194 64.0745 13.385 67.1089 9.65525 67.1089Z" fill="white"/>
<path d="M9.57246 13.7138C11.8596 13.7138 13.7138 11.8596 13.7138 9.57246C13.7138 7.28528 11.8596 5.43115 9.57246 5.43115C7.28528 5.43115 5.43115 7.28528 5.43115 9.57246C5.43115 11.8596 7.28528 13.7138 9.57246 13.7138Z" fill="white"/>
<path d="M60.2619 13.7138C62.5491 13.7138 64.4033 11.8596 64.4033 9.57246C64.4033 7.28528 62.5491 5.43115 60.2619 5.43115C57.9747 5.43115 56.1206 7.28528 56.1206 9.57246C56.1206 11.8596 57.9747 13.7138 60.2619 13.7138Z" fill="white"/>
<path d="M9.57246 64.4033C11.8596 64.4033 13.7138 62.5491 13.7138 60.2619C13.7138 57.9747 11.8596 56.1206 9.57246 56.1206C7.28528 56.1206 5.43115 57.9747 5.43115 60.2619C5.43115 62.5491 7.28528 64.4033 9.57246 64.4033Z" fill="white"/>
</g>
<defs>
<clipPath id="clip0">
<rect width="70" height="70" fill="white"/>
</clipPath>
</defs>
</svg>
