<svg width="70" height="70" viewBox="0 0 70 70" fill="none" xmlns="http://www.w3.org/2000/svg">
<g clip-path="url(#clip0)">
<path d="M75.8332 -5.83325H-5.8335V75.8334H75.8332V-5.83325Z" fill="white"/>
<path d="M23.7359 2.05148C24.2025 2.05148 24.5808 1.67324 24.5808 1.20665C24.5808 0.740061 24.2025 0.361816 23.7359 0.361816C23.2694 0.361816 22.8911 0.740061 22.8911 1.20665C22.8911 1.67324 23.2694 2.05148 23.7359 2.05148Z" fill="black"/>
<path d="M35.0001 2.05148C35.4667 2.05148 35.8449 1.67324 35.8449 1.20665C35.8449 0.740061 35.4667 0.361816 35.0001 0.361816C34.5335 0.361816 34.1553 0.740061 34.1553 1.20665C34.1553 1.67324 34.5335 2.05148 35.0001 2.05148Z" fill="black"/>
<path d="M37.816 2.05148C38.2826 2.05148 38.6609 1.67324 38.6609 1.20665C38.6609 0.740061 38.2826 0.361816 37.816 0.361816C37.3494 0.361816 36.9712 0.740061 36.9712 1.20665C36.9712 1.67324 37.3494 2.05148 37.816 2.05148Z" fill="black"/>
<path d="M23.7359 4.86763C24.2025 4.86763 24.5808 4.48939 24.5808 4.02281C24.5808 3.55622 24.2025 3.17798 23.7359 3.17798C23.2694 3.17798 22.8911 3.55622 22.8911 4.02281C22.8911 4.48939 23.2694 4.86763 23.7359 4.86763Z" fill="black"/>
<path d="M26.5519 4.86763C27.0184 4.86763 27.3967 4.48939 27.3967 4.02281C27.3967 3.55622 27.0184 3.17798 26.5519 3.17798C26.0853 3.17798 25.707 3.55622 25.707 4.02281C25.707 4.48939 26.0853 4.86763 26.5519 4.86763Z" fill="black"/>
<path d="M29.3678 4.86763C29.8344 4.86763 30.2126 4.48939 30.2126 4.02281C30.2126 3.55622 29.8344 3.17798 29.3678 3.17798C28.9012 3.17798 28.5229 3.55622 28.5229 4.02281C28.5229 4.48939 28.9012 4.86763 29.3678 4.86763Z" fill="black"/>
<path d="M35.0001 4.86763C35.4667 4.86763 35.8449 4.48939 35.8449 4.02281C35.8449 3.55622 35.4667 3.17798 35.0001 3.17798C34.5335 3.17798 34.1553 3.55622 34.1553 4.02281C34.1553 4.48939 34.5335 4.86763 35.0001 4.86763Z" fill="black"/>
<path d="M40.6324 4.86763C41.099 4.86763 41.4773 4.48939 41.4773 4.02281C41.4773 3.55622 41.099 3.17798 40.6324 3.17798C40.1658 3.17798 39.7876 3.55622 39.7876 4.02281C39.7876 4.48939 40.1658 4.86763 40.6324 4.86763Z" fill="black"/>
<path d="M46.2643 4.86763C46.7308 4.86763 47.1091 4.48939 47.1091 4.02281C47.1091 3.55622 46.7308 3.17798 46.2643 3.17798C45.7977 3.17798 45.4194 3.55622 45.4194 4.02281C45.4194 4.48939 45.7977 4.86763 46.2643 4.86763Z" fill="black"/>
<path d="M23.7359 7.6838C24.2025 7.6838 24.5808 7.30555 24.5808 6.83897C24.5808 6.37238 24.2025 5.99414 23.7359 5.99414C23.2694 5.99414 22.8911 6.37238 22.8911 6.83897C22.8911 7.30555 23.2694 7.6838 23.7359 7.6838Z" fill="black"/>
<path d="M29.3678 7.6838C29.8344 7.6838 30.2126 7.30555 30.2126 6.83897C30.2126 6.37238 29.8344 5.99414 29.3678 5.99414C28.9012 5.99414 28.5229 6.37238 28.5229 6.83897C28.5229 7.30555 28.9012 7.6838 29.3678 7.6838Z" fill="black"/>
<path d="M37.816 7.6838C38.2826 7.6838 38.6609 7.30555 38.6609 6.83897C38.6609 6.37238 38.2826 5.99414 37.816 5.99414C37.3494 5.99414 36.9712 6.37238 36.9712 6.83897C36.9712 7.30555 37.3494 7.6838 37.816 7.6838Z" fill="black"/>
<path d="M43.4484 7.6838C43.915 7.6838 44.2932 7.30555 44.2932 6.83897C44.2932 6.37238 43.915 5.99414 43.4484 5.99414C42.9818 5.99414 42.6035 6.37238 42.6035 6.83897C42.6035 7.30555 42.9818 7.6838 43.4484 7.6838Z" fill="black"/>
<path d="M46.2643 7.6838C46.7308 7.6838 47.1091 7.30555 47.1091 6.83897C47.1091 6.37238 46.7308 5.99414 46.2643 5.99414C45.7977 5.99414 45.4194 6.37238 45.4194 6.83897C45.4194 7.30555 45.7977 7.6838 46.2643 7.6838Z" fill="black"/>
<path d="M29.3678 10.4997C29.8344 10.4997 30.2126 10.1215 30.2126 9.6549C30.2126 9.1883 29.8344 8.81006 29.3678 8.81006C28.9012 8.81006 28.5229 9.1883 28.5229 9.6549C28.5229 10.1215 28.9012 10.4997 29.3678 10.4997Z" fill="black"/>
<path d="M37.816 10.4997C38.2826 10.4997 38.6609 10.1215 38.6609 9.6549C38.6609 9.1883 38.2826 8.81006 37.816 8.81006C37.3494 8.81006 36.9712 9.1883 36.9712 9.6549C36.9712 10.1215 37.3494 10.4997 37.816 10.4997Z" fill="black"/>
<path d="M46.2643 10.4997C46.7308 10.4997 47.1091 10.1215 47.1091 9.6549C47.1091 9.1883 46.7308 8.81006 46.2643 8.81006C45.7977 8.81006 45.4194 9.1883 45.4194 9.6549C45.4194 10.1215 45.7977 10.4997 46.2643 10.4997Z" fill="black"/>
<path d="M23.7359 13.3159C24.2025 13.3159 24.5808 12.9376 24.5808 12.471C24.5808 12.0045 24.2025 11.6262 23.7359 11.6262C23.2694 11.6262 22.8911 12.0045 22.8911 12.471C22.8911 12.9376 23.2694 13.3159 23.7359 13.3159Z" fill="black"/>
<path d="M32.1842 13.3159C32.6508 13.3159 33.029 12.9376 33.029 12.471C33.029 12.0045 32.6508 11.6262 32.1842 11.6262C31.7176 11.6262 31.3394 12.0045 31.3394 12.471C31.3394 12.9376 31.7176 13.3159 32.1842 13.3159Z" fill="black"/>
<path d="M35.0001 13.3159C35.4667 13.3159 35.8449 12.9376 35.8449 12.471C35.8449 12.0045 35.4667 11.6262 35.0001 11.6262C34.5335 11.6262 34.1553 12.0045 34.1553 12.471C34.1553 12.9376 34.5335 13.3159 35.0001 13.3159Z" fill="black"/>
<path d="M37.816 13.3159C38.2826 13.3159 38.6609 12.9376 38.6609 12.471C38.6609 12.0045 38.2826 11.6262 37.816 11.6262C37.3494 11.6262 36.9712 12.0045 36.9712 12.471C36.9712 12.9376 37.3494 13.3159 37.816 13.3159Z" fill="black"/>
<path d="M40.6324 13.3159C41.099 13.3159 41.4773 12.9376 41.4773 12.471C41.4773 12.0045 41.099 11.6262 40.6324 11.6262C40.1658 11.6262 39.7876 12.0045 39.7876 12.471C39.7876 12.9376 40.1658 13.3159 40.6324 13.3159Z" fill="black"/>
<path d="M46.2643 13.3159C46.7308 13.3159 47.1091 12.9376 47.1091 12.471C47.1091 12.0045 46.7308 11.6262 46.2643 11.6262C45.7977 11.6262 45.4194 12.0045 45.4194 12.471C45.4194 12.9376 45.7977 13.3159 46.2643 13.3159Z" fill="black"/>
<path d="M29.3678 16.132C29.8344 16.132 30.2126 15.7538 30.2126 15.2872C30.2126 14.8206 29.8344 14.4424 29.3678 14.4424C28.9012 14.4424 28.5229 14.8206 28.5229 15.2872C28.5229 15.7538 28.9012 16.132 29.3678 16.132Z" fill="black"/>
<path d="M37.816 16.132C38.2826 16.132 38.6609 15.7538 38.6609 15.2872C38.6609 14.8206 38.2826 14.4424 37.816 14.4424C37.3494 14.4424 36.9712 14.8206 36.9712 15.2872C36.9712 15.7538 37.3494 16.132 37.816 16.132Z" fill="black"/>
<path d="M23.7359 18.9482C24.2025 18.9482 24.5808 18.5699 24.5808 18.1034C24.5808 17.6368 24.2025 17.2585 23.7359 17.2585C23.2694 17.2585 22.8911 17.6368 22.8911 18.1034C22.8911 18.5699 23.2694 18.9482 23.7359 18.9482Z" fill="black"/>
<path d="M29.3678 18.9482C29.8344 18.9482 30.2126 18.5699 30.2126 18.1034C30.2126 17.6368 29.8344 17.2585 29.3678 17.2585C28.9012 17.2585 28.5229 17.6368 28.5229 18.1034C28.5229 18.5699 28.9012 18.9482 29.3678 18.9482Z" fill="black"/>
<path d="M35.0001 18.9482C35.4667 18.9482 35.8449 18.5699 35.8449 18.1034C35.8449 17.6368 35.4667 17.2585 35.0001 17.2585C34.5335 17.2585 34.1553 17.6368 34.1553 18.1034C34.1553 18.5699 34.5335 18.9482 35.0001 18.9482Z" fill="black"/>
<path d="M40.6324 18.9482C41.099 18.9482 41.4773 18.5699 41.4773 18.1034C41.4773 17.6368 41.099 17.2585 40.6324 17.2585C40.1658 17.2585 39.7876 17.6368 39.7876 18.1034C39.7876 18.5699 40.1658 18.9482 40.6324 18.9482Z" fill="black"/>
<path d="M46.2643 18.9482C46.7308 18.9482 47.1091 18.5699 47.1091 18.1034C47.1091 17.6368 46.7308 17.2585 46.2643 17.2585C45.7977 17.2585 45.4194 17.6368 45.4194 18.1034C45.4194 18.5699 45.7977 18.9482 46.2643 18.9482Z" fill="black"/>
<path d="M26.5519 21.7644C27.0184 21.7644 27.3967 21.3861 27.3967 20.9195C27.3967 20.4529 27.0184 20.0747 26.5519 20.0747C26.0853 20.0747 25.707 20.4529 25.707 20.9195C25.707 21.3861 26.0853 21.7644 26.5519 21.7644Z" fill="black"/>
<path d="M29.3678 21.7644C29.8344 21.7644 30.2126 21.3861 30.2126 20.9195C30.2126 20.4529 29.8344 20.0747 29.3678 20.0747C28.9012 20.0747 28.5229 20.4529 28.5229 20.9195C28.5229 21.3861 28.9012 21.7644 29.3678 21.7644Z" fill="black"/>
<path d="M32.1842 21.7644C32.6508 21.7644 33.029 21.3861 33.029 20.9195C33.029 20.4529 32.6508 20.0747 32.1842 20.0747C31.7176 20.0747 31.3394 20.4529 31.3394 20.9195C31.3394 21.3861 31.7176 21.7644 32.1842 21.7644Z" fill="black"/>
<path d="M37.816 21.7644C38.2826 21.7644 38.6609 21.3861 38.6609 20.9195C38.6609 20.4529 38.2826 20.0747 37.816 20.0747C37.3494 20.0747 36.9712 20.4529 36.9712 20.9195C36.9712 21.3861 37.3494 21.7644 37.816 21.7644Z" fill="black"/>
<path d="M46.2643 21.7644C46.7308 21.7644 47.1091 21.3861 47.1091 20.9195C47.1091 20.4529 46.7308 20.0747 46.2643 20.0747C45.7977 20.0747 45.4194 20.4529 45.4194 20.9195C45.4194 21.3861 45.7977 21.7644 46.2643 21.7644Z" fill="black"/>
<path d="M1.20714 24.5803C1.67372 24.5803 2.05197 24.202 2.05197 23.7355C2.05197 23.2689 1.67372 22.8906 1.20714 22.8906C0.740549 22.8906 0.362305 23.2689 0.362305 23.7355C0.362305 24.202 0.740549 24.5803 1.20714 24.5803Z" fill="black"/>
<path d="M9.65538 24.5803C10.122 24.5803 10.5002 24.202 10.5002 23.7355C10.5002 23.2689 10.122 22.8906 9.65538 22.8906C9.18879 22.8906 8.81055 23.2689 8.81055 23.7355C8.81055 24.202 9.18879 24.5803 9.65538 24.5803Z" fill="black"/>
<path d="M12.4713 24.5803C12.9379 24.5803 13.3161 24.202 13.3161 23.7355C13.3161 23.2689 12.9379 22.8906 12.4713 22.8906C12.0047 22.8906 11.6265 23.2689 11.6265 23.7355C11.6265 24.202 12.0047 24.5803 12.4713 24.5803Z" fill="black"/>
<path d="M15.2872 24.5803C15.7538 24.5803 16.132 24.202 16.132 23.7355C16.132 23.2689 15.7538 22.8906 15.2872 22.8906C14.8206 22.8906 14.4424 23.2689 14.4424 23.7355C14.4424 24.202 14.8206 24.5803 15.2872 24.5803Z" fill="black"/>
<path d="M18.1036 24.5803C18.5702 24.5803 18.9484 24.202 18.9484 23.7355C18.9484 23.2689 18.5702 22.8906 18.1036 22.8906C17.637 22.8906 17.2588 23.2689 17.2588 23.7355C17.2588 24.202 17.637 24.5803 18.1036 24.5803Z" fill="black"/>
<path d="M20.9195 24.5803C21.3861 24.5803 21.7644 24.202 21.7644 23.7355C21.7644 23.2689 21.3861 22.8906 20.9195 22.8906C20.4529 22.8906 20.0747 23.2689 20.0747 23.7355C20.0747 24.202 20.4529 24.5803 20.9195 24.5803Z" fill="black"/>
<path d="M23.7359 24.5803C24.2025 24.5803 24.5808 24.202 24.5808 23.7355C24.5808 23.2689 24.2025 22.8906 23.7359 22.8906C23.2694 22.8906 22.8911 23.2689 22.8911 23.7355C22.8911 24.202 23.2694 24.5803 23.7359 24.5803Z" fill="black"/>
<path d="M26.5519 24.5803C27.0184 24.5803 27.3967 24.202 27.3967 23.7355C27.3967 23.2689 27.0184 22.8906 26.5519 22.8906C26.0853 22.8906 25.707 23.2689 25.707 23.7355C25.707 24.202 26.0853 24.5803 26.5519 24.5803Z" fill="black"/>
<path d="M29.3678 24.5803C29.8344 24.5803 30.2126 24.202 30.2126 23.7355C30.2126 23.2689 29.8344 22.8906 29.3678 22.8906C28.9012 22.8906 28.5229 23.2689 28.5229 23.7355C28.5229 24.202 28.9012 24.5803 29.3678 24.5803Z" fill="black"/>
<path d="M40.6324 24.5803C41.099 24.5803 41.4773 24.202 41.4773 23.7355C41.4773 23.2689 41.099 22.8906 40.6324 22.8906C40.1658 22.8906 39.7876 23.2689 39.7876 23.7355C39.7876 24.202 40.1658 24.5803 40.6324 24.5803Z" fill="black"/>
<path d="M46.2643 24.5803C46.7308 24.5803 47.1091 24.202 47.1091 23.7355C47.1091 23.2689 46.7308 22.8906 46.2643 22.8906C45.7977 22.8906 45.4194 23.2689 45.4194 23.7355C45.4194 24.202 45.7977 24.5803 46.2643 24.5803Z" fill="black"/>
<path d="M49.0807 24.5803C49.5473 24.5803 49.9255 24.202 49.9255 23.7355C49.9255 23.2689 49.5473 22.8906 49.0807 22.8906C48.6141 22.8906 48.2358 23.2689 48.2358 23.7355C48.2358 24.202 48.6141 24.5803 49.0807 24.5803Z" fill="black"/>
<path d="M57.5289 24.5803C57.9955 24.5803 58.3737 24.202 58.3737 23.7355C58.3737 23.2689 57.9955 22.8906 57.5289 22.8906C57.0623 22.8906 56.6841 23.2689 56.6841 23.7355C56.6841 24.202 57.0623 24.5803 57.5289 24.5803Z" fill="black"/>
<path d="M63.1612 24.5803C63.6278 24.5803 64.006 24.202 64.006 23.7355C64.006 23.2689 63.6278 22.8906 63.1612 22.8906C62.6946 22.8906 62.3164 23.2689 62.3164 23.7355C62.3164 24.202 62.6946 24.5803 63.1612 24.5803Z" fill="black"/>
<path d="M65.9771 24.5803C66.4437 24.5803 66.822 24.202 66.822 23.7355C66.822 23.2689 66.4437 22.8906 65.9771 22.8906C65.5106 22.8906 65.1323 23.2689 65.1323 23.7355C65.1323 24.202 65.5106 24.5803 65.9771 24.5803Z" fill="black"/>
<path d="M68.7931 24.5803C69.2597 24.5803 69.6379 24.202 69.6379 23.7355C69.6379 23.2689 69.2597 22.8906 68.7931 22.8906C68.3265 22.8906 67.9482 23.2689 67.9482 23.7355C67.9482 24.202 68.3265 24.5803 68.7931 24.5803Z" fill="black"/>
<path d="M9.65538 27.3964C10.122 27.3964 10.5002 27.0182 10.5002 26.5516C10.5002 26.085 10.122 25.7068 9.65538 25.7068C9.18879 25.7068 8.81055 26.085 8.81055 26.5516C8.81055 27.0182 9.18879 27.3964 9.65538 27.3964Z" fill="black"/>
<path d="M12.4713 27.3964C12.9379 27.3964 13.3161 27.0182 13.3161 26.5516C13.3161 26.085 12.9379 25.7068 12.4713 25.7068C12.0047 25.7068 11.6265 26.085 11.6265 26.5516C11.6265 27.0182 12.0047 27.3964 12.4713 27.3964Z" fill="black"/>
<path d="M20.9195 27.3964C21.3861 27.3964 21.7644 27.0182 21.7644 26.5516C21.7644 26.085 21.3861 25.7068 20.9195 25.7068C20.4529 25.7068 20.0747 26.085 20.0747 26.5516C20.0747 27.0182 20.4529 27.3964 20.9195 27.3964Z" fill="black"/>
<path d="M23.7359 27.3964C24.2025 27.3964 24.5808 27.0182 24.5808 26.5516C24.5808 26.085 24.2025 25.7068 23.7359 25.7068C23.2694 25.7068 22.8911 26.085 22.8911 26.5516C22.8911 27.0182 23.2694 27.3964 23.7359 27.3964Z" fill="black"/>
<path d="M26.5519 27.3964C27.0184 27.3964 27.3967 27.0182 27.3967 26.5516C27.3967 26.085 27.0184 25.7068 26.5519 25.7068C26.0853 25.7068 25.707 26.085 25.707 26.5516C25.707 27.0182 26.0853 27.3964 26.5519 27.3964Z" fill="black"/>
<path d="M40.6324 27.3964C41.099 27.3964 41.4773 27.0182 41.4773 26.5516C41.4773 26.085 41.099 25.7068 40.6324 25.7068C40.1658 25.7068 39.7876 26.085 39.7876 26.5516C39.7876 27.0182 40.1658 27.3964 40.6324 27.3964Z" fill="black"/>
<path d="M43.4484 27.3964C43.915 27.3964 44.2932 27.0182 44.2932 26.5516C44.2932 26.085 43.915 25.7068 43.4484 25.7068C42.9818 25.7068 42.6035 26.085 42.6035 26.5516C42.6035 27.0182 42.9818 27.3964 43.4484 27.3964Z" fill="black"/>
<path d="M49.0807 27.3964C49.5473 27.3964 49.9255 27.0182 49.9255 26.5516C49.9255 26.085 49.5473 25.7068 49.0807 25.7068C48.6141 25.7068 48.2358 26.085 48.2358 26.5516C48.2358 27.0182 48.6141 27.3964 49.0807 27.3964Z" fill="black"/>
<path d="M54.7125 27.3964C55.1791 27.3964 55.5573 27.0182 55.5573 26.5516C55.5573 26.085 55.1791 25.7068 54.7125 25.7068C54.2459 25.7068 53.8677 26.085 53.8677 26.5516C53.8677 27.0182 54.2459 27.3964 54.7125 27.3964Z" fill="black"/>
<path d="M57.5289 27.3964C57.9955 27.3964 58.3737 27.0182 58.3737 26.5516C58.3737 26.085 57.9955 25.7068 57.5289 25.7068C57.0623 25.7068 56.6841 26.085 56.6841 26.5516C56.6841 27.0182 57.0623 27.3964 57.5289 27.3964Z" fill="black"/>
<path d="M60.3448 27.3964C60.8114 27.3964 61.1897 27.0182 61.1897 26.5516C61.1897 26.085 60.8114 25.7068 60.3448 25.7068C59.8782 25.7068 59.5 26.085 59.5 26.5516C59.5 27.0182 59.8782 27.3964 60.3448 27.3964Z" fill="black"/>
<path d="M63.1612 27.3964C63.6278 27.3964 64.006 27.0182 64.006 26.5516C64.006 26.085 63.6278 25.7068 63.1612 25.7068C62.6946 25.7068 62.3164 26.085 62.3164 26.5516C62.3164 27.0182 62.6946 27.3964 63.1612 27.3964Z" fill="black"/>
<path d="M65.9771 27.3964C66.4437 27.3964 66.822 27.0182 66.822 26.5516C66.822 26.085 66.4437 25.7068 65.9771 25.7068C65.5106 25.7068 65.1323 26.085 65.1323 26.5516C65.1323 27.0182 65.5106 27.3964 65.9771 27.3964Z" fill="black"/>
<path d="M4.02305 30.2126C4.48964 30.2126 4.86788 29.8344 4.86788 29.3678C4.86788 28.9012 4.48964 28.5229 4.02305 28.5229C3.55646 28.5229 3.17822 28.9012 3.17822 29.3678C3.17822 29.8344 3.55646 30.2126 4.02305 30.2126Z" fill="black"/>
<path d="M6.83897 30.2126C7.30555 30.2126 7.68379 29.8344 7.68379 29.3678C7.68379 28.9012 7.30555 28.5229 6.83897 28.5229C6.37238 28.5229 5.99414 28.9012 5.99414 29.3678C5.99414 29.8344 6.37238 30.2126 6.83897 30.2126Z" fill="black"/>
<path d="M18.1036 30.2126C18.5702 30.2126 18.9484 29.8344 18.9484 29.3678C18.9484 28.9012 18.5702 28.5229 18.1036 28.5229C17.637 28.5229 17.2588 28.9012 17.2588 29.3678C17.2588 29.8344 17.637 30.2126 18.1036 30.2126Z" fill="black"/>
<path d="M20.9195 30.2126C21.3861 30.2126 21.7644 29.8344 21.7644 29.3678C21.7644 28.9012 21.3861 28.5229 20.9195 28.5229C20.4529 28.5229 20.0747 28.9012 20.0747 29.3678C20.0747 29.8344 20.4529 30.2126 20.9195 30.2126Z" fill="black"/>
<path d="M23.7359 30.2126C24.2025 30.2126 24.5808 29.8344 24.5808 29.3678C24.5808 28.9012 24.2025 28.5229 23.7359 28.5229C23.2694 28.5229 22.8911 28.9012 22.8911 29.3678C22.8911 29.8344 23.2694 30.2126 23.7359 30.2126Z" fill="black"/>
<path d="M26.5519 30.2126C27.0184 30.2126 27.3967 29.8344 27.3967 29.3678C27.3967 28.9012 27.0184 28.5229 26.5519 28.5229C26.0853 28.5229 25.707 28.9012 25.707 29.3678C25.707 29.8344 26.0853 30.2126 26.5519 30.2126Z" fill="black"/>
<path d="M29.3678 30.2126C29.8344 30.2126 30.2126 29.8344 30.2126 29.3678C30.2126 28.9012 29.8344 28.5229 29.3678 28.5229C28.9012 28.5229 28.5229 28.9012 28.5229 29.3678C28.5229 29.8344 28.9012 30.2126 29.3678 30.2126Z" fill="black"/>
<path d="M32.1842 30.2126C32.6508 30.2126 33.029 29.8344 33.029 29.3678C33.029 28.9012 32.6508 28.5229 32.1842 28.5229C31.7176 28.5229 31.3394 28.9012 31.3394 29.3678C31.3394 29.8344 31.7176 30.2126 32.1842 30.2126Z" fill="black"/>
<path d="M43.4484 30.2126C43.915 30.2126 44.2932 29.8344 44.2932 29.3678C44.2932 28.9012 43.915 28.5229 43.4484 28.5229C42.9818 28.5229 42.6035 28.9012 42.6035 29.3678C42.6035 29.8344 42.9818 30.2126 43.4484 30.2126Z" fill="black"/>
<path d="M49.0807 30.2126C49.5473 30.2126 49.9255 29.8344 49.9255 29.3678C49.9255 28.9012 49.5473 28.5229 49.0807 28.5229C48.6141 28.5229 48.2358 28.9012 48.2358 29.3678C48.2358 29.8344 48.6141 30.2126 49.0807 30.2126Z" fill="black"/>
<path d="M51.8966 30.2126C52.3631 30.2126 52.7413 29.8344 52.7413 29.3678C52.7413 28.9012 52.3631 28.5229 51.8966 28.5229C51.43 28.5229 51.0518 28.9012 51.0518 29.3678C51.0518 29.8344 51.43 30.2126 51.8966 30.2126Z" fill="black"/>
<path d="M54.7125 30.2126C55.1791 30.2126 55.5573 29.8344 55.5573 29.3678C55.5573 28.9012 55.1791 28.5229 54.7125 28.5229C54.2459 28.5229 53.8677 28.9012 53.8677 29.3678C53.8677 29.8344 54.2459 30.2126 54.7125 30.2126Z" fill="black"/>
<path d="M57.5289 30.2126C57.9955 30.2126 58.3737 29.8344 58.3737 29.3678C58.3737 28.9012 57.9955 28.5229 57.5289 28.5229C57.0623 28.5229 56.6841 28.9012 56.6841 29.3678C56.6841 29.8344 57.0623 30.2126 57.5289 30.2126Z" fill="black"/>
<path d="M60.3448 30.2126C60.8114 30.2126 61.1897 29.8344 61.1897 29.3678C61.1897 28.9012 60.8114 28.5229 60.3448 28.5229C59.8782 28.5229 59.5 28.9012 59.5 29.3678C59.5 29.8344 59.8782 30.2126 60.3448 30.2126Z" fill="black"/>
<path d="M68.7931 30.2126C69.2597 30.2126 69.6379 29.8344 69.6379 29.3678C69.6379 28.9012 69.2597 28.5229 68.7931 28.5229C68.3265 28.5229 67.9482 28.9012 67.9482 29.3678C67.9482 29.8344 68.3265 30.2126 68.7931 30.2126Z" fill="black"/>
<path d="M9.65538 33.0285C10.122 33.0285 10.5002 32.6503 10.5002 32.1837C10.5002 31.7171 10.122 31.3389 9.65538 31.3389C9.18879 31.3389 8.81055 31.7171 8.81055 32.1837C8.81055 32.6503 9.18879 33.0285 9.65538 33.0285Z" fill="black"/>
<path d="M12.4713 33.0285C12.9379 33.0285 13.3161 32.6503 13.3161 32.1837C13.3161 31.7171 12.9379 31.3389 12.4713 31.3389C12.0047 31.3389 11.6265 31.7171 11.6265 32.1837C11.6265 32.6503 12.0047 33.0285 12.4713 33.0285Z" fill="black"/>
<path d="M20.9195 33.0285C21.3861 33.0285 21.7644 32.6503 21.7644 32.1837C21.7644 31.7171 21.3861 31.3389 20.9195 31.3389C20.4529 31.3389 20.0747 31.7171 20.0747 32.1837C20.0747 32.6503 20.4529 33.0285 20.9195 33.0285Z" fill="black"/>
<path d="M23.7359 33.0285C24.2025 33.0285 24.5808 32.6503 24.5808 32.1837C24.5808 31.7171 24.2025 31.3389 23.7359 31.3389C23.2694 31.3389 22.8911 31.7171 22.8911 32.1837C22.8911 32.6503 23.2694 33.0285 23.7359 33.0285Z" fill="black"/>
<path d="M26.5519 33.0285C27.0184 33.0285 27.3967 32.6503 27.3967 32.1837C27.3967 31.7171 27.0184 31.3389 26.5519 31.3389C26.0853 31.3389 25.707 31.7171 25.707 32.1837C25.707 32.6503 26.0853 33.0285 26.5519 33.0285Z" fill="black"/>
<path d="M32.1842 33.0285C32.6508 33.0285 33.029 32.6503 33.029 32.1837C33.029 31.7171 32.6508 31.3389 32.1842 31.3389C31.7176 31.3389 31.3394 31.7171 31.3394 32.1837C31.3394 32.6503 31.7176 33.0285 32.1842 33.0285Z" fill="black"/>
<path d="M35.0001 33.0285C35.4667 33.0285 35.8449 32.6503 35.8449 32.1837C35.8449 31.7171 35.4667 31.3389 35.0001 31.3389C34.5335 31.3389 34.1553 31.7171 34.1553 32.1837C34.1553 32.6503 34.5335 33.0285 35.0001 33.0285Z" fill="black"/>
<path d="M40.6324 33.0285C41.099 33.0285 41.4773 32.6503 41.4773 32.1837C41.4773 31.7171 41.099 31.3389 40.6324 31.3389C40.1658 31.3389 39.7876 31.7171 39.7876 32.1837C39.7876 32.6503 40.1658 33.0285 40.6324 33.0285Z" fill="black"/>
<path d="M43.4484 33.0285C43.915 33.0285 44.2932 32.6503 44.2932 32.1837C44.2932 31.7171 43.915 31.3389 43.4484 31.3389C42.9818 31.3389 42.6035 31.7171 42.6035 32.1837C42.6035 32.6503 42.9818 33.0285 43.4484 33.0285Z" fill="black"/>
<path d="M54.7125 33.0285C55.1791 33.0285 55.5573 32.6503 55.5573 32.1837C55.5573 31.7171 55.1791 31.3389 54.7125 31.3389C54.2459 31.3389 53.8677 31.7171 53.8677 32.1837C53.8677 32.6503 54.2459 33.0285 54.7125 33.0285Z" fill="black"/>
<path d="M60.3448 33.0285C60.8114 33.0285 61.1897 32.6503 61.1897 32.1837C61.1897 31.7171 60.8114 31.3389 60.3448 31.3389C59.8782 31.3389 59.5 31.7171 59.5 32.1837C59.5 32.6503 59.8782 33.0285 60.3448 33.0285Z" fill="black"/>
<path d="M63.1612 33.0285C63.6278 33.0285 64.006 32.6503 64.006 32.1837C64.006 31.7171 63.6278 31.3389 63.1612 31.3389C62.6946 31.3389 62.3164 31.7171 62.3164 32.1837C62.3164 32.6503 62.6946 33.0285 63.1612 33.0285Z" fill="black"/>
<path d="M65.9771 33.0285C66.4437 33.0285 66.822 32.6503 66.822 32.1837C66.822 31.7171 66.4437 31.3389 65.9771 31.3389C65.5106 31.3389 65.1323 31.7171 65.1323 32.1837C65.1323 32.6503 65.5106 33.0285 65.9771 33.0285Z" fill="black"/>
<path d="M68.7931 33.0285C69.2597 33.0285 69.6379 32.6503 69.6379 32.1837C69.6379 31.7171 69.2597 31.3389 68.7931 31.3389C68.3265 31.3389 67.9482 31.7171 67.9482 32.1837C67.9482 32.6503 68.3265 33.0285 68.7931 33.0285Z" fill="black"/>
<path d="M1.20714 35.8447C1.67372 35.8447 2.05197 35.4664 2.05197 34.9999C2.05197 34.5333 1.67372 34.155 1.20714 34.155C0.740549 34.155 0.362305 34.5333 0.362305 34.9999C0.362305 35.4664 0.740549 35.8447 1.20714 35.8447Z" fill="black"/>
<path d="M4.02305 35.8447C4.48964 35.8447 4.86788 35.4664 4.86788 34.9999C4.86788 34.5333 4.48964 34.155 4.02305 34.155C3.55646 34.155 3.17822 34.5333 3.17822 34.9999C3.17822 35.4664 3.55646 35.8447 4.02305 35.8447Z" fill="black"/>
<path d="M6.83897 35.8447C7.30555 35.8447 7.68379 35.4664 7.68379 34.9999C7.68379 34.5333 7.30555 34.155 6.83897 34.155C6.37238 34.155 5.99414 34.5333 5.99414 34.9999C5.99414 35.4664 6.37238 35.8447 6.83897 35.8447Z" fill="black"/>
<path d="M12.4713 35.8447C12.9379 35.8447 13.3161 35.4664 13.3161 34.9999C13.3161 34.5333 12.9379 34.155 12.4713 34.155C12.0047 34.155 11.6265 34.5333 11.6265 34.9999C11.6265 35.4664 12.0047 35.8447 12.4713 35.8447Z" fill="black"/>
<path d="M15.2872 35.8447C15.7538 35.8447 16.132 35.4664 16.132 34.9999C16.132 34.5333 15.7538 34.155 15.2872 34.155C14.8206 34.155 14.4424 34.5333 14.4424 34.9999C14.4424 35.4664 14.8206 35.8447 15.2872 35.8447Z" fill="black"/>
<path d="M18.1036 35.8447C18.5702 35.8447 18.9484 35.4664 18.9484 34.9999C18.9484 34.5333 18.5702 34.155 18.1036 34.155C17.637 34.155 17.2588 34.5333 17.2588 34.9999C17.2588 35.4664 17.637 35.8447 18.1036 35.8447Z" fill="black"/>
<path d="M23.7359 35.8447C24.2025 35.8447 24.5808 35.4664 24.5808 34.9999C24.5808 34.5333 24.2025 34.155 23.7359 34.155C23.2694 34.155 22.8911 34.5333 22.8911 34.9999C22.8911 35.4664 23.2694 35.8447 23.7359 35.8447Z" fill="black"/>
<path d="M26.5519 35.8447C27.0184 35.8447 27.3967 35.4664 27.3967 34.9999C27.3967 34.5333 27.0184 34.155 26.5519 34.155C26.0853 34.155 25.707 34.5333 25.707 34.9999C25.707 35.4664 26.0853 35.8447 26.5519 35.8447Z" fill="black"/>
<path d="M32.1842 35.8447C32.6508 35.8447 33.029 35.4664 33.029 34.9999C33.029 34.5333 32.6508 34.155 32.1842 34.155C31.7176 34.155 31.3394 34.5333 31.3394 34.9999C31.3394 35.4664 31.7176 35.8447 32.1842 35.8447Z" fill="black"/>
<path d="M46.2643 35.8447C46.7308 35.8447 47.1091 35.4664 47.1091 34.9999C47.1091 34.5333 46.7308 34.155 46.2643 34.155C45.7977 34.155 45.4194 34.5333 45.4194 34.9999C45.4194 35.4664 45.7977 35.8447 46.2643 35.8447Z" fill="black"/>
<path d="M51.8966 35.8447C52.3631 35.8447 52.7413 35.4664 52.7413 34.9999C52.7413 34.5333 52.3631 34.155 51.8966 34.155C51.43 34.155 51.0518 34.5333 51.0518 34.9999C51.0518 35.4664 51.43 35.8447 51.8966 35.8447Z" fill="black"/>
<path d="M68.7931 35.8447C69.2597 35.8447 69.6379 35.4664 69.6379 34.9999C69.6379 34.5333 69.2597 34.155 68.7931 34.155C68.3265 34.155 67.9482 34.5333 67.9482 34.9999C67.9482 35.4664 68.3265 35.8447 68.7931 35.8447Z" fill="black"/>
<path d="M1.20714 38.6608C1.67372 38.6608 2.05197 38.2826 2.05197 37.816C2.05197 37.3494 1.67372 36.9712 1.20714 36.9712C0.740549 36.9712 0.362305 37.3494 0.362305 37.816C0.362305 38.2826 0.740549 38.6608 1.20714 38.6608Z" fill="black"/>
<path d="M6.83897 38.6608C7.30555 38.6608 7.68379 38.2826 7.68379 37.816C7.68379 37.3494 7.30555 36.9712 6.83897 36.9712C6.37238 36.9712 5.99414 37.3494 5.99414 37.816C5.99414 38.2826 6.37238 38.6608 6.83897 38.6608Z" fill="black"/>
<path d="M12.4713 38.6608C12.9379 38.6608 13.3161 38.2826 13.3161 37.816C13.3161 37.3494 12.9379 36.9712 12.4713 36.9712C12.0047 36.9712 11.6265 37.3494 11.6265 37.816C11.6265 38.2826 12.0047 38.6608 12.4713 38.6608Z" fill="black"/>
<path d="M15.2872 38.6608C15.7538 38.6608 16.132 38.2826 16.132 37.816C16.132 37.3494 15.7538 36.9712 15.2872 36.9712C14.8206 36.9712 14.4424 37.3494 14.4424 37.816C14.4424 38.2826 14.8206 38.6608 15.2872 38.6608Z" fill="black"/>
<path d="M20.9195 38.6608C21.3861 38.6608 21.7644 38.2826 21.7644 37.816C21.7644 37.3494 21.3861 36.9712 20.9195 36.9712C20.4529 36.9712 20.0747 37.3494 20.0747 37.816C20.0747 38.2826 20.4529 38.6608 20.9195 38.6608Z" fill="black"/>
<path d="M35.0001 38.6608C35.4667 38.6608 35.8449 38.2826 35.8449 37.816C35.8449 37.3494 35.4667 36.9712 35.0001 36.9712C34.5335 36.9712 34.1553 37.3494 34.1553 37.816C34.1553 38.2826 34.5335 38.6608 35.0001 38.6608Z" fill="black"/>
<path d="M37.816 38.6608C38.2826 38.6608 38.6609 38.2826 38.6609 37.816C38.6609 37.3494 38.2826 36.9712 37.816 36.9712C37.3494 36.9712 36.9712 37.3494 36.9712 37.816C36.9712 38.2826 37.3494 38.6608 37.816 38.6608Z" fill="black"/>
<path d="M43.4484 38.6608C43.915 38.6608 44.2932 38.2826 44.2932 37.816C44.2932 37.3494 43.915 36.9712 43.4484 36.9712C42.9818 36.9712 42.6035 37.3494 42.6035 37.816C42.6035 38.2826 42.9818 38.6608 43.4484 38.6608Z" fill="black"/>
<path d="M57.5289 38.6608C57.9955 38.6608 58.3737 38.2826 58.3737 37.816C58.3737 37.3494 57.9955 36.9712 57.5289 36.9712C57.0623 36.9712 56.6841 37.3494 56.6841 37.816C56.6841 38.2826 57.0623 38.6608 57.5289 38.6608Z" fill="black"/>
<path d="M65.9771 38.6608C66.4437 38.6608 66.822 38.2826 66.822 37.816C66.822 37.3494 66.4437 36.9712 65.9771 36.9712C65.5106 36.9712 65.1323 37.3494 65.1323 37.816C65.1323 38.2826 65.5106 38.6608 65.9771 38.6608Z" fill="black"/>
<path d="M1.20714 41.4768C1.67372 41.4768 2.05197 41.0985 2.05197 40.6319C2.05197 40.1654 1.67372 39.7871 1.20714 39.7871C0.740549 39.7871 0.362305 40.1654 0.362305 40.6319C0.362305 41.0985 0.740549 41.4768 1.20714 41.4768Z" fill="black"/>
<path d="M4.02305 41.4768C4.48964 41.4768 4.86788 41.0985 4.86788 40.6319C4.86788 40.1654 4.48964 39.7871 4.02305 39.7871C3.55646 39.7871 3.17822 40.1654 3.17822 40.6319C3.17822 41.0985 3.55646 41.4768 4.02305 41.4768Z" fill="black"/>
<path d="M9.65538 41.4768C10.122 41.4768 10.5002 41.0985 10.5002 40.6319C10.5002 40.1654 10.122 39.7871 9.65538 39.7871C9.18879 39.7871 8.81055 40.1654 8.81055 40.6319C8.81055 41.0985 9.18879 41.4768 9.65538 41.4768Z" fill="black"/>
<path d="M12.4713 41.4768C12.9379 41.4768 13.3161 41.0985 13.3161 40.6319C13.3161 40.1654 12.9379 39.7871 12.4713 39.7871C12.0047 39.7871 11.6265 40.1654 11.6265 40.6319C11.6265 41.0985 12.0047 41.4768 12.4713 41.4768Z" fill="black"/>
<path d="M18.1036 41.4768C18.5702 41.4768 18.9484 41.0985 18.9484 40.6319C18.9484 40.1654 18.5702 39.7871 18.1036 39.7871C17.637 39.7871 17.2588 40.1654 17.2588 40.6319C17.2588 41.0985 17.637 41.4768 18.1036 41.4768Z" fill="black"/>
<path d="M20.9195 41.4768C21.3861 41.4768 21.7644 41.0985 21.7644 40.6319C21.7644 40.1654 21.3861 39.7871 20.9195 39.7871C20.4529 39.7871 20.0747 40.1654 20.0747 40.6319C20.0747 41.0985 20.4529 41.4768 20.9195 41.4768Z" fill="black"/>
<path d="M26.5519 41.4768C27.0184 41.4768 27.3967 41.0985 27.3967 40.6319C27.3967 40.1654 27.0184 39.7871 26.5519 39.7871C26.0853 39.7871 25.707 40.1654 25.707 40.6319C25.707 41.0985 26.0853 41.4768 26.5519 41.4768Z" fill="black"/>
<path d="M29.3678 41.4768C29.8344 41.4768 30.2126 41.0985 30.2126 40.6319C30.2126 40.1654 29.8344 39.7871 29.3678 39.7871C28.9012 39.7871 28.5229 40.1654 28.5229 40.6319C28.5229 41.0985 28.9012 41.4768 29.3678 41.4768Z" fill="black"/>
<path d="M37.816 41.4768C38.2826 41.4768 38.6609 41.0985 38.6609 40.6319C38.6609 40.1654 38.2826 39.7871 37.816 39.7871C37.3494 39.7871 36.9712 40.1654 36.9712 40.6319C36.9712 41.0985 37.3494 41.4768 37.816 41.4768Z" fill="black"/>
<path d="M40.6324 41.4768C41.099 41.4768 41.4773 41.0985 41.4773 40.6319C41.4773 40.1654 41.099 39.7871 40.6324 39.7871C40.1658 39.7871 39.7876 40.1654 39.7876 40.6319C39.7876 41.0985 40.1658 41.4768 40.6324 41.4768Z" fill="black"/>
<path d="M43.4484 41.4768C43.915 41.4768 44.2932 41.0985 44.2932 40.6319C44.2932 40.1654 43.915 39.7871 43.4484 39.7871C42.9818 39.7871 42.6035 40.1654 42.6035 40.6319C42.6035 41.0985 42.9818 41.4768 43.4484 41.4768Z" fill="black"/>
<path d="M51.8966 41.4768C52.3631 41.4768 52.7413 41.0985 52.7413 40.6319C52.7413 40.1654 52.3631 39.7871 51.8966 39.7871C51.43 39.7871 51.0518 40.1654 51.0518 40.6319C51.0518 41.0985 51.43 41.4768 51.8966 41.4768Z" fill="black"/>
<path d="M54.7125 41.4768C55.1791 41.4768 55.5573 41.0985 55.5573 40.6319C55.5573 40.1654 55.1791 39.7871 54.7125 39.7871C54.2459 39.7871 53.8677 40.1654 53.8677 40.6319C53.8677 41.0985 54.2459 41.4768 54.7125 41.4768Z" fill="black"/>
<path d="M57.5289 41.4768C57.9955 41.4768 58.3737 41.0985 58.3737 40.6319C58.3737 40.1654 57.9955 39.7871 57.5289 39.7871C57.0623 39.7871 56.6841 40.1654 56.6841 40.6319C56.6841 41.0985 57.0623 41.4768 57.5289 41.4768Z" fill="black"/>
<path d="M60.3448 41.4768C60.8114 41.4768 61.1897 41.0985 61.1897 40.6319C61.1897 40.1654 60.8114 39.7871 60.3448 39.7871C59.8782 39.7871 59.5 40.1654 59.5 40.6319C59.5 41.0985 59.8782 41.4768 60.3448 41.4768Z" fill="black"/>
<path d="M63.1612 41.4768C63.6278 41.4768 64.006 41.0985 64.006 40.6319C64.006 40.1654 63.6278 39.7871 63.1612 39.7871C62.6946 39.7871 62.3164 40.1654 62.3164 40.6319C62.3164 41.0985 62.6946 41.4768 63.1612 41.4768Z" fill="black"/>
<path d="M65.9771 41.4768C66.4437 41.4768 66.822 41.0985 66.822 40.6319C66.822 40.1654 66.4437 39.7871 65.9771 39.7871C65.5106 39.7871 65.1323 40.1654 65.1323 40.6319C65.1323 41.0985 65.5106 41.4768 65.9771 41.4768Z" fill="black"/>
<path d="M68.7931 41.4768C69.2597 41.4768 69.6379 41.0985 69.6379 40.6319C69.6379 40.1654 69.2597 39.7871 68.7931 39.7871C68.3265 39.7871 67.9482 40.1654 67.9482 40.6319C67.9482 41.0985 68.3265 41.4768 68.7931 41.4768Z" fill="black"/>
<path d="M1.20714 44.293C1.67372 44.293 2.05197 43.9147 2.05197 43.4481C2.05197 42.9815 1.67372 42.6033 1.20714 42.6033C0.740549 42.6033 0.362305 42.9815 0.362305 43.4481C0.362305 43.9147 0.740549 44.293 1.20714 44.293Z" fill="black"/>
<path d="M6.83897 44.293C7.30555 44.293 7.68379 43.9147 7.68379 43.4481C7.68379 42.9815 7.30555 42.6033 6.83897 42.6033C6.37238 42.6033 5.99414 42.9815 5.99414 43.4481C5.99414 43.9147 6.37238 44.293 6.83897 44.293Z" fill="black"/>
<path d="M9.65538 44.293C10.122 44.293 10.5002 43.9147 10.5002 43.4481C10.5002 42.9815 10.122 42.6033 9.65538 42.6033C9.18879 42.6033 8.81055 42.9815 8.81055 43.4481C8.81055 43.9147 9.18879 44.293 9.65538 44.293Z" fill="black"/>
<path d="M12.4713 44.293C12.9379 44.293 13.3161 43.9147 13.3161 43.4481C13.3161 42.9815 12.9379 42.6033 12.4713 42.6033C12.0047 42.6033 11.6265 42.9815 11.6265 43.4481C11.6265 43.9147 12.0047 44.293 12.4713 44.293Z" fill="black"/>
<path d="M20.9195 44.293C21.3861 44.293 21.7644 43.9147 21.7644 43.4481C21.7644 42.9815 21.3861 42.6033 20.9195 42.6033C20.4529 42.6033 20.0747 42.9815 20.0747 43.4481C20.0747 43.9147 20.4529 44.293 20.9195 44.293Z" fill="black"/>
<path d="M35.0001 44.293C35.4667 44.293 35.8449 43.9147 35.8449 43.4481C35.8449 42.9815 35.4667 42.6033 35.0001 42.6033C34.5335 42.6033 34.1553 42.9815 34.1553 43.4481C34.1553 43.9147 34.5335 44.293 35.0001 44.293Z" fill="black"/>
<path d="M40.6324 44.293C41.099 44.293 41.4773 43.9147 41.4773 43.4481C41.4773 42.9815 41.099 42.6033 40.6324 42.6033C40.1658 42.6033 39.7876 42.9815 39.7876 43.4481C39.7876 43.9147 40.1658 44.293 40.6324 44.293Z" fill="black"/>
<path d="M43.4484 44.293C43.915 44.293 44.2932 43.9147 44.2932 43.4481C44.2932 42.9815 43.915 42.6033 43.4484 42.6033C42.9818 42.6033 42.6035 42.9815 42.6035 43.4481C42.6035 43.9147 42.9818 44.293 43.4484 44.293Z" fill="black"/>
<path d="M49.0807 44.293C49.5473 44.293 49.9255 43.9147 49.9255 43.4481C49.9255 42.9815 49.5473 42.6033 49.0807 42.6033C48.6141 42.6033 48.2358 42.9815 48.2358 43.4481C48.2358 43.9147 48.6141 44.293 49.0807 44.293Z" fill="black"/>
<path d="M51.8966 44.293C52.3631 44.293 52.7413 43.9147 52.7413 43.4481C52.7413 42.9815 52.3631 42.6033 51.8966 42.6033C51.43 42.6033 51.0518 42.9815 51.0518 43.4481C51.0518 43.9147 51.43 44.293 51.8966 44.293Z" fill="black"/>
<path d="M57.5289 44.293C57.9955 44.293 58.3737 43.9147 58.3737 43.4481C58.3737 42.9815 57.9955 42.6033 57.5289 42.6033C57.0623 42.6033 56.6841 42.9815 56.6841 43.4481C56.6841 43.9147 57.0623 44.293 57.5289 44.293Z" fill="black"/>
<path d="M63.1612 44.293C63.6278 44.293 64.006 43.9147 64.006 43.4481C64.006 42.9815 63.6278 42.6033 63.1612 42.6033C62.6946 42.6033 62.3164 42.9815 62.3164 43.4481C62.3164 43.9147 62.6946 44.293 63.1612 44.293Z" fill="black"/>
<path d="M68.7931 44.293C69.2597 44.293 69.6379 43.9147 69.6379 43.4481C69.6379 42.9815 69.2597 42.6033 68.7931 42.6033C68.3265 42.6033 67.9482 42.9815 67.9482 43.4481C67.9482 43.9147 68.3265 44.293 68.7931 44.293Z" fill="black"/>
<path d="M1.20714 47.1091C1.67372 47.1091 2.05197 46.7308 2.05197 46.2643C2.05197 45.7977 1.67372 45.4194 1.20714 45.4194C0.740549 45.4194 0.362305 45.7977 0.362305 46.2643C0.362305 46.7308 0.740549 47.1091 1.20714 47.1091Z" fill="black"/>
<path d="M9.65538 47.1091C10.122 47.1091 10.5002 46.7308 10.5002 46.2643C10.5002 45.7977 10.122 45.4194 9.65538 45.4194C9.18879 45.4194 8.81055 45.7977 8.81055 46.2643C8.81055 46.7308 9.18879 47.1091 9.65538 47.1091Z" fill="black"/>
<path d="M12.4713 47.1091C12.9379 47.1091 13.3161 46.7308 13.3161 46.2643C13.3161 45.7977 12.9379 45.4194 12.4713 45.4194C12.0047 45.4194 11.6265 45.7977 11.6265 46.2643C11.6265 46.7308 12.0047 47.1091 12.4713 47.1091Z" fill="black"/>
<path d="M18.1036 47.1091C18.5702 47.1091 18.9484 46.7308 18.9484 46.2643C18.9484 45.7977 18.5702 45.4194 18.1036 45.4194C17.637 45.4194 17.2588 45.7977 17.2588 46.2643C17.2588 46.7308 17.637 47.1091 18.1036 47.1091Z" fill="black"/>
<path d="M23.7359 47.1091C24.2025 47.1091 24.5808 46.7308 24.5808 46.2643C24.5808 45.7977 24.2025 45.4194 23.7359 45.4194C23.2694 45.4194 22.8911 45.7977 22.8911 46.2643C22.8911 46.7308 23.2694 47.1091 23.7359 47.1091Z" fill="black"/>
<path d="M26.5519 47.1091C27.0184 47.1091 27.3967 46.7308 27.3967 46.2643C27.3967 45.7977 27.0184 45.4194 26.5519 45.4194C26.0853 45.4194 25.707 45.7977 25.707 46.2643C25.707 46.7308 26.0853 47.1091 26.5519 47.1091Z" fill="black"/>
<path d="M29.3678 47.1091C29.8344 47.1091 30.2126 46.7308 30.2126 46.2643C30.2126 45.7977 29.8344 45.4194 29.3678 45.4194C28.9012 45.4194 28.5229 45.7977 28.5229 46.2643C28.5229 46.7308 28.9012 47.1091 29.3678 47.1091Z" fill="black"/>
<path d="M32.1842 47.1091C32.6508 47.1091 33.029 46.7308 33.029 46.2643C33.029 45.7977 32.6508 45.4194 32.1842 45.4194C31.7176 45.4194 31.3394 45.7977 31.3394 46.2643C31.3394 46.7308 31.7176 47.1091 32.1842 47.1091Z" fill="black"/>
<path d="M35.0001 47.1091C35.4667 47.1091 35.8449 46.7308 35.8449 46.2643C35.8449 45.7977 35.4667 45.4194 35.0001 45.4194C34.5335 45.4194 34.1553 45.7977 34.1553 46.2643C34.1553 46.7308 34.5335 47.1091 35.0001 47.1091Z" fill="black"/>
<path d="M37.816 47.1091C38.2826 47.1091 38.6609 46.7308 38.6609 46.2643C38.6609 45.7977 38.2826 45.4194 37.816 45.4194C37.3494 45.4194 36.9712 45.7977 36.9712 46.2643C36.9712 46.7308 37.3494 47.1091 37.816 47.1091Z" fill="black"/>
<path d="M40.6324 47.1091C41.099 47.1091 41.4773 46.7308 41.4773 46.2643C41.4773 45.7977 41.099 45.4194 40.6324 45.4194C40.1658 45.4194 39.7876 45.7977 39.7876 46.2643C39.7876 46.7308 40.1658 47.1091 40.6324 47.1091Z" fill="black"/>
<path d="M46.2643 47.1091C46.7308 47.1091 47.1091 46.7308 47.1091 46.2643C47.1091 45.7977 46.7308 45.4194 46.2643 45.4194C45.7977 45.4194 45.4194 45.7977 45.4194 46.2643C45.4194 46.7308 45.7977 47.1091 46.2643 47.1091Z" fill="black"/>
<path d="M49.0807 47.1091C49.5473 47.1091 49.9255 46.7308 49.9255 46.2643C49.9255 45.7977 49.5473 45.4194 49.0807 45.4194C48.6141 45.4194 48.2358 45.7977 48.2358 46.2643C48.2358 46.7308 48.6141 47.1091 49.0807 47.1091Z" fill="black"/>
<path d="M51.8966 47.1091C52.3631 47.1091 52.7413 46.7308 52.7413 46.2643C52.7413 45.7977 52.3631 45.4194 51.8966 45.4194C51.43 45.4194 51.0518 45.7977 51.0518 46.2643C51.0518 46.7308 51.43 47.1091 51.8966 47.1091Z" fill="black"/>
<path d="M54.7125 47.1091C55.1791 47.1091 55.5573 46.7308 55.5573 46.2643C55.5573 45.7977 55.1791 45.4194 54.7125 45.4194C54.2459 45.4194 53.8677 45.7977 53.8677 46.2643C53.8677 46.7308 54.2459 47.1091 54.7125 47.1091Z" fill="black"/>
<path d="M57.5289 47.1091C57.9955 47.1091 58.3737 46.7308 58.3737 46.2643C58.3737 45.7977 57.9955 45.4194 57.5289 45.4194C57.0623 45.4194 56.6841 45.7977 56.6841 46.2643C56.6841 46.7308 57.0623 47.1091 57.5289 47.1091Z" fill="black"/>
<path d="M63.1612 47.1091C63.6278 47.1091 64.006 46.7308 64.006 46.2643C64.006 45.7977 63.6278 45.4194 63.1612 45.4194C62.6946 45.4194 62.3164 45.7977 62.3164 46.2643C62.3164 46.7308 62.6946 47.1091 63.1612 47.1091Z" fill="black"/>
<path d="M65.9771 47.1091C66.4437 47.1091 66.822 46.7308 66.822 46.2643C66.822 45.7977 66.4437 45.4194 65.9771 45.4194C65.5106 45.4194 65.1323 45.7977 65.1323 46.2643C65.1323 46.7308 65.5106 47.1091 65.9771 47.1091Z" fill="black"/>
<path d="M23.7359 49.925C24.2025 49.925 24.5808 49.5468 24.5808 49.0802C24.5808 48.6136 24.2025 48.2354 23.7359 48.2354C23.2694 48.2354 22.8911 48.6136 22.8911 49.0802C22.8911 49.5468 23.2694 49.925 23.7359 49.925Z" fill="black"/>
<path d="M26.5519 49.925C27.0184 49.925 27.3967 49.5468 27.3967 49.0802C27.3967 48.6136 27.0184 48.2354 26.5519 48.2354C26.0853 48.2354 25.707 48.6136 25.707 49.0802C25.707 49.5468 26.0853 49.925 26.5519 49.925Z" fill="black"/>
<path d="M29.3678 49.925C29.8344 49.925 30.2126 49.5468 30.2126 49.0802C30.2126 48.6136 29.8344 48.2354 29.3678 48.2354C28.9012 48.2354 28.5229 48.6136 28.5229 49.0802C28.5229 49.5468 28.9012 49.925 29.3678 49.925Z" fill="black"/>
<path d="M32.1842 49.925C32.6508 49.925 33.029 49.5468 33.029 49.0802C33.029 48.6136 32.6508 48.2354 32.1842 48.2354C31.7176 48.2354 31.3394 48.6136 31.3394 49.0802C31.3394 49.5468 31.7176 49.925 32.1842 49.925Z" fill="black"/>
<path d="M37.816 49.925C38.2826 49.925 38.6609 49.5468 38.6609 49.0802C38.6609 48.6136 38.2826 48.2354 37.816 48.2354C37.3494 48.2354 36.9712 48.6136 36.9712 49.0802C36.9712 49.5468 37.3494 49.925 37.816 49.925Z" fill="black"/>
<path d="M46.2643 49.925C46.7308 49.925 47.1091 49.5468 47.1091 49.0802C47.1091 48.6136 46.7308 48.2354 46.2643 48.2354C45.7977 48.2354 45.4194 48.6136 45.4194 49.0802C45.4194 49.5468 45.7977 49.925 46.2643 49.925Z" fill="black"/>
<path d="M57.5289 49.925C57.9955 49.925 58.3737 49.5468 58.3737 49.0802C58.3737 48.6136 57.9955 48.2354 57.5289 48.2354C57.0623 48.2354 56.6841 48.6136 56.6841 49.0802C56.6841 49.5468 57.0623 49.925 57.5289 49.925Z" fill="black"/>
<path d="M65.9771 49.925C66.4437 49.925 66.822 49.5468 66.822 49.0802C66.822 48.6136 66.4437 48.2354 65.9771 48.2354C65.5106 48.2354 65.1323 48.6136 65.1323 49.0802C65.1323 49.5468 65.5106 49.925 65.9771 49.925Z" fill="black"/>
<path d="M23.7359 52.7411C24.2025 52.7411 24.5808 52.3629 24.5808 51.8963C24.5808 51.4297 24.2025 51.0515 23.7359 51.0515C23.2694 51.0515 22.8911 51.4297 22.8911 51.8963C22.8911 52.3629 23.2694 52.7411 23.7359 52.7411Z" fill="black"/>
<path d="M35.0001 52.7411C35.4667 52.7411 35.8449 52.3629 35.8449 51.8963C35.8449 51.4297 35.4667 51.0515 35.0001 51.0515C34.5335 51.0515 34.1553 51.4297 34.1553 51.8963C34.1553 52.3629 34.5335 52.7411 35.0001 52.7411Z" fill="black"/>
<path d="M46.2643 52.7411C46.7308 52.7411 47.1091 52.3629 47.1091 51.8963C47.1091 51.4297 46.7308 51.0515 46.2643 51.0515C45.7977 51.0515 45.4194 51.4297 45.4194 51.8963C45.4194 52.3629 45.7977 52.7411 46.2643 52.7411Z" fill="black"/>
<path d="M51.8966 52.7411C52.3631 52.7411 52.7413 52.3629 52.7413 51.8963C52.7413 51.4297 52.3631 51.0515 51.8966 51.0515C51.43 51.0515 51.0518 51.4297 51.0518 51.8963C51.0518 52.3629 51.43 52.7411 51.8966 52.7411Z" fill="black"/>
<path d="M57.5289 52.7411C57.9955 52.7411 58.3737 52.3629 58.3737 51.8963C58.3737 51.4297 57.9955 51.0515 57.5289 51.0515C57.0623 51.0515 56.6841 51.4297 56.6841 51.8963C56.6841 52.3629 57.0623 52.7411 57.5289 52.7411Z" fill="black"/>
<path d="M60.3448 52.7411C60.8114 52.7411 61.1897 52.3629 61.1897 51.8963C61.1897 51.4297 60.8114 51.0515 60.3448 51.0515C59.8782 51.0515 59.5 51.4297 59.5 51.8963C59.5 52.3629 59.8782 52.7411 60.3448 52.7411Z" fill="black"/>
<path d="M68.7931 52.7411C69.2597 52.7411 69.6379 52.3629 69.6379 51.8963C69.6379 51.4297 69.2597 51.0515 68.7931 51.0515C68.3265 51.0515 67.9482 51.4297 67.9482 51.8963C67.9482 52.3629 68.3265 52.7411 68.7931 52.7411Z" fill="black"/>
<path d="M23.7359 55.5573C24.2025 55.5573 24.5808 55.1791 24.5808 54.7125C24.5808 54.2459 24.2025 53.8677 23.7359 53.8677C23.2694 53.8677 22.8911 54.2459 22.8911 54.7125C22.8911 55.1791 23.2694 55.5573 23.7359 55.5573Z" fill="black"/>
<path d="M26.5519 55.5573C27.0184 55.5573 27.3967 55.1791 27.3967 54.7125C27.3967 54.2459 27.0184 53.8677 26.5519 53.8677C26.0853 53.8677 25.707 54.2459 25.707 54.7125C25.707 55.1791 26.0853 55.5573 26.5519 55.5573Z" fill="black"/>
<path d="M32.1842 55.5573C32.6508 55.5573 33.029 55.1791 33.029 54.7125C33.029 54.2459 32.6508 53.8677 32.1842 53.8677C31.7176 53.8677 31.3394 54.2459 31.3394 54.7125C31.3394 55.1791 31.7176 55.5573 32.1842 55.5573Z" fill="black"/>
<path d="M37.816 55.5573C38.2826 55.5573 38.6609 55.1791 38.6609 54.7125C38.6609 54.2459 38.2826 53.8677 37.816 53.8677C37.3494 53.8677 36.9712 54.2459 36.9712 54.7125C36.9712 55.1791 37.3494 55.5573 37.816 55.5573Z" fill="black"/>
<path d="M43.4484 55.5573C43.915 55.5573 44.2932 55.1791 44.2932 54.7125C44.2932 54.2459 43.915 53.8677 43.4484 53.8677C42.9818 53.8677 42.6035 54.2459 42.6035 54.7125C42.6035 55.1791 42.9818 55.5573 43.4484 55.5573Z" fill="black"/>
<path d="M46.2643 55.5573C46.7308 55.5573 47.1091 55.1791 47.1091 54.7125C47.1091 54.2459 46.7308 53.8677 46.2643 53.8677C45.7977 53.8677 45.4194 54.2459 45.4194 54.7125C45.4194 55.1791 45.7977 55.5573 46.2643 55.5573Z" fill="black"/>
<path d="M57.5289 55.5573C57.9955 55.5573 58.3737 55.1791 58.3737 54.7125C58.3737 54.2459 57.9955 53.8677 57.5289 53.8677C57.0623 53.8677 56.6841 54.2459 56.6841 54.7125C56.6841 55.1791 57.0623 55.5573 57.5289 55.5573Z" fill="black"/>
<path d="M23.7359 58.3735C24.2025 58.3735 24.5808 57.9953 24.5808 57.5287C24.5808 57.0621 24.2025 56.6838 23.7359 56.6838C23.2694 56.6838 22.8911 57.0621 22.8911 57.5287C22.8911 57.9953 23.2694 58.3735 23.7359 58.3735Z" fill="black"/>
<path d="M29.3678 58.3735C29.8344 58.3735 30.2126 57.9953 30.2126 57.5287C30.2126 57.0621 29.8344 56.6838 29.3678 56.6838C28.9012 56.6838 28.5229 57.0621 28.5229 57.5287C28.5229 57.9953 28.9012 58.3735 29.3678 58.3735Z" fill="black"/>
<path d="M32.1842 58.3735C32.6508 58.3735 33.029 57.9953 33.029 57.5287C33.029 57.0621 32.6508 56.6838 32.1842 56.6838C31.7176 56.6838 31.3394 57.0621 31.3394 57.5287C31.3394 57.9953 31.7176 58.3735 32.1842 58.3735Z" fill="black"/>
<path d="M37.816 58.3735C38.2826 58.3735 38.6609 57.9953 38.6609 57.5287C38.6609 57.0621 38.2826 56.6838 37.816 56.6838C37.3494 56.6838 36.9712 57.0621 36.9712 57.5287C36.9712 57.9953 37.3494 58.3735 37.816 58.3735Z" fill="black"/>
<path d="M43.4484 58.3735C43.915 58.3735 44.2932 57.9953 44.2932 57.5287C44.2932 57.0621 43.915 56.6838 43.4484 56.6838C42.9818 56.6838 42.6035 57.0621 42.6035 57.5287C42.6035 57.9953 42.9818 58.3735 43.4484 58.3735Z" fill="black"/>
<path d="M46.2643 58.3735C46.7308 58.3735 47.1091 57.9953 47.1091 57.5287C47.1091 57.0621 46.7308 56.6838 46.2643 56.6838C45.7977 56.6838 45.4194 57.0621 45.4194 57.5287C45.4194 57.9953 45.7977 58.3735 46.2643 58.3735Z" fill="black"/>
<path d="M49.0807 58.3735C49.5473 58.3735 49.9255 57.9953 49.9255 57.5287C49.9255 57.0621 49.5473 56.6838 49.0807 56.6838C48.6141 56.6838 48.2358 57.0621 48.2358 57.5287C48.2358 57.9953 48.6141 58.3735 49.0807 58.3735Z" fill="black"/>
<path d="M51.8966 58.3735C52.3631 58.3735 52.7413 57.9953 52.7413 57.5287C52.7413 57.0621 52.3631 56.6838 51.8966 56.6838C51.43 56.6838 51.0518 57.0621 51.0518 57.5287C51.0518 57.9953 51.43 58.3735 51.8966 58.3735Z" fill="black"/>
<path d="M54.7125 58.3735C55.1791 58.3735 55.5573 57.9953 55.5573 57.5287C55.5573 57.0621 55.1791 56.6838 54.7125 56.6838C54.2459 56.6838 53.8677 57.0621 53.8677 57.5287C53.8677 57.9953 54.2459 58.3735 54.7125 58.3735Z" fill="black"/>
<path d="M57.5289 58.3735C57.9955 58.3735 58.3737 57.9953 58.3737 57.5287C58.3737 57.0621 57.9955 56.6838 57.5289 56.6838C57.0623 56.6838 56.6841 57.0621 56.6841 57.5287C56.6841 57.9953 57.0623 58.3735 57.5289 58.3735Z" fill="black"/>
<path d="M60.3448 58.3735C60.8114 58.3735 61.1897 57.9953 61.1897 57.5287C61.1897 57.0621 60.8114 56.6838 60.3448 56.6838C59.8782 56.6838 59.5 57.0621 59.5 57.5287C59.5 57.9953 59.8782 58.3735 60.3448 58.3735Z" fill="black"/>
<path d="M65.9771 58.3735C66.4437 58.3735 66.822 57.9953 66.822 57.5287C66.822 57.0621 66.4437 56.6838 65.9771 56.6838C65.5106 56.6838 65.1323 57.0621 65.1323 57.5287C65.1323 57.9953 65.5106 58.3735 65.9771 58.3735Z" fill="black"/>
<path d="M68.7931 58.3735C69.2597 58.3735 69.6379 57.9953 69.6379 57.5287C69.6379 57.0621 69.2597 56.6838 68.7931 56.6838C68.3265 56.6838 67.9482 57.0621 67.9482 57.5287C67.9482 57.9953 68.3265 58.3735 68.7931 58.3735Z" fill="black"/>
<path d="M23.7359 61.1894C24.2025 61.1894 24.5808 60.8112 24.5808 60.3446C24.5808 59.878 24.2025 59.4998 23.7359 59.4998C23.2694 59.4998 22.8911 59.878 22.8911 60.3446C22.8911 60.8112 23.2694 61.1894 23.7359 61.1894Z" fill="black"/>
<path d="M26.5519 61.1894C27.0184 61.1894 27.3967 60.8112 27.3967 60.3446C27.3967 59.878 27.0184 59.4998 26.5519 59.4998C26.0853 59.4998 25.707 59.878 25.707 60.3446C25.707 60.8112 26.0853 61.1894 26.5519 61.1894Z" fill="black"/>
<path d="M29.3678 61.1894C29.8344 61.1894 30.2126 60.8112 30.2126 60.3446C30.2126 59.878 29.8344 59.4998 29.3678 59.4998C28.9012 59.4998 28.5229 59.878 28.5229 60.3446C28.5229 60.8112 28.9012 61.1894 29.3678 61.1894Z" fill="black"/>
<path d="M35.0001 61.1894C35.4667 61.1894 35.8449 60.8112 35.8449 60.3446C35.8449 59.878 35.4667 59.4998 35.0001 59.4998C34.5335 59.4998 34.1553 59.878 34.1553 60.3446C34.1553 60.8112 34.5335 61.1894 35.0001 61.1894Z" fill="black"/>
<path d="M37.816 61.1894C38.2826 61.1894 38.6609 60.8112 38.6609 60.3446C38.6609 59.878 38.2826 59.4998 37.816 59.4998C37.3494 59.4998 36.9712 59.878 36.9712 60.3446C36.9712 60.8112 37.3494 61.1894 37.816 61.1894Z" fill="black"/>
<path d="M40.6324 61.1894C41.099 61.1894 41.4773 60.8112 41.4773 60.3446C41.4773 59.878 41.099 59.4998 40.6324 59.4998C40.1658 59.4998 39.7876 59.878 39.7876 60.3446C39.7876 60.8112 40.1658 61.1894 40.6324 61.1894Z" fill="black"/>
<path d="M49.0807 61.1894C49.5473 61.1894 49.9255 60.8112 49.9255 60.3446C49.9255 59.878 49.5473 59.4998 49.0807 59.4998C48.6141 59.4998 48.2358 59.878 48.2358 60.3446C48.2358 60.8112 48.6141 61.1894 49.0807 61.1894Z" fill="black"/>
<path d="M51.8966 61.1894C52.3631 61.1894 52.7413 60.8112 52.7413 60.3446C52.7413 59.878 52.3631 59.4998 51.8966 59.4998C51.43 59.4998 51.0518 59.878 51.0518 60.3446C51.0518 60.8112 51.43 61.1894 51.8966 61.1894Z" fill="black"/>
<path d="M54.7125 61.1894C55.1791 61.1894 55.5573 60.8112 55.5573 60.3446C55.5573 59.878 55.1791 59.4998 54.7125 59.4998C54.2459 59.4998 53.8677 59.878 53.8677 60.3446C53.8677 60.8112 54.2459 61.1894 54.7125 61.1894Z" fill="black"/>
<path d="M60.3448 61.1894C60.8114 61.1894 61.1897 60.8112 61.1897 60.3446C61.1897 59.878 60.8114 59.4998 60.3448 59.4998C59.8782 59.4998 59.5 59.878 59.5 60.3446C59.5 60.8112 59.8782 61.1894 60.3448 61.1894Z" fill="black"/>
<path d="M65.9771 61.1894C66.4437 61.1894 66.822 60.8112 66.822 60.3446C66.822 59.878 66.4437 59.4998 65.9771 59.4998C65.5106 59.4998 65.1323 59.878 65.1323 60.3446C65.1323 60.8112 65.5106 61.1894 65.9771 61.1894Z" fill="black"/>
<path d="M68.7931 61.1894C69.2597 61.1894 69.6379 60.8112 69.6379 60.3446C69.6379 59.878 69.2597 59.4998 68.7931 59.4998C68.3265 59.4998 67.9482 59.878 67.9482 60.3446C67.9482 60.8112 68.3265 61.1894 68.7931 61.1894Z" fill="black"/>
<path d="M29.3678 64.0055C29.8344 64.0055 30.2126 63.6273 30.2126 63.1607C30.2126 62.6941 29.8344 62.3159 29.3678 62.3159C28.9012 62.3159 28.5229 62.6941 28.5229 63.1607C28.5229 63.6273 28.9012 64.0055 29.3678 64.0055Z" fill="black"/>
<path d="M32.1842 64.0055C32.6508 64.0055 33.029 63.6273 33.029 63.1607C33.029 62.6941 32.6508 62.3159 32.1842 62.3159C31.7176 62.3159 31.3394 62.6941 31.3394 63.1607C31.3394 63.6273 31.7176 64.0055 32.1842 64.0055Z" fill="black"/>
<path d="M37.816 64.0055C38.2826 64.0055 38.6609 63.6273 38.6609 63.1607C38.6609 62.6941 38.2826 62.3159 37.816 62.3159C37.3494 62.3159 36.9712 62.6941 36.9712 63.1607C36.9712 63.6273 37.3494 64.0055 37.816 64.0055Z" fill="black"/>
<path d="M43.4484 64.0055C43.915 64.0055 44.2932 63.6273 44.2932 63.1607C44.2932 62.6941 43.915 62.3159 43.4484 62.3159C42.9818 62.3159 42.6035 62.6941 42.6035 63.1607C42.6035 63.6273 42.9818 64.0055 43.4484 64.0055Z" fill="black"/>
<path d="M49.0807 64.0055C49.5473 64.0055 49.9255 63.6273 49.9255 63.1607C49.9255 62.6941 49.5473 62.3159 49.0807 62.3159C48.6141 62.3159 48.2358 62.6941 48.2358 63.1607C48.2358 63.6273 48.6141 64.0055 49.0807 64.0055Z" fill="black"/>
<path d="M54.7125 64.0055C55.1791 64.0055 55.5573 63.6273 55.5573 63.1607C55.5573 62.6941 55.1791 62.3159 54.7125 62.3159C54.2459 62.3159 53.8677 62.6941 53.8677 63.1607C53.8677 63.6273 54.2459 64.0055 54.7125 64.0055Z" fill="black"/>
<path d="M57.5289 64.0055C57.9955 64.0055 58.3737 63.6273 58.3737 63.1607C58.3737 62.6941 57.9955 62.3159 57.5289 62.3159C57.0623 62.3159 56.6841 62.6941 56.6841 63.1607C56.6841 63.6273 57.0623 64.0055 57.5289 64.0055Z" fill="black"/>
<path d="M63.1612 64.0055C63.6278 64.0055 64.006 63.6273 64.006 63.1607C64.006 62.6941 63.6278 62.3159 63.1612 62.3159C62.6946 62.3159 62.3164 62.6941 62.3164 63.1607C62.3164 63.6273 62.6946 64.0055 63.1612 64.0055Z" fill="black"/>
<path d="M65.9771 64.0055C66.4437 64.0055 66.822 63.6273 66.822 63.1607C66.822 62.6941 66.4437 62.3159 65.9771 62.3159C65.5106 62.3159 65.1323 62.6941 65.1323 63.1607C65.1323 63.6273 65.5106 64.0055 65.9771 64.0055Z" fill="black"/>
<path d="M68.7931 64.0055C69.2597 64.0055 69.6379 63.6273 69.6379 63.1607C69.6379 62.6941 69.2597 62.3159 68.7931 62.3159C68.3265 62.3159 67.9482 62.6941 67.9482 63.1607C67.9482 63.6273 68.3265 64.0055 68.7931 64.0055Z" fill="black"/>
<path d="M26.5519 66.8217C27.0184 66.8217 27.3967 66.4435 27.3967 65.9769C27.3967 65.5103 27.0184 65.1321 26.5519 65.1321C26.0853 65.1321 25.707 65.5103 25.707 65.9769C25.707 66.4435 26.0853 66.8217 26.5519 66.8217Z" fill="black"/>
<path d="M32.1842 66.8217C32.6508 66.8217 33.029 66.4435 33.029 65.9769C33.029 65.5103 32.6508 65.1321 32.1842 65.1321C31.7176 65.1321 31.3394 65.5103 31.3394 65.9769C31.3394 66.4435 31.7176 66.8217 32.1842 66.8217Z" fill="black"/>
<path d="M35.0001 66.8217C35.4667 66.8217 35.8449 66.4435 35.8449 65.9769C35.8449 65.5103 35.4667 65.1321 35.0001 65.1321C34.5335 65.1321 34.1553 65.5103 34.1553 65.9769C34.1553 66.4435 34.5335 66.8217 35.0001 66.8217Z" fill="black"/>
<path d="M37.816 66.8217C38.2826 66.8217 38.6609 66.4435 38.6609 65.9769C38.6609 65.5103 38.2826 65.1321 37.816 65.1321C37.3494 65.1321 36.9712 65.5103 36.9712 65.9769C36.9712 66.4435 37.3494 66.8217 37.816 66.8217Z" fill="black"/>
<path d="M43.4484 66.8217C43.915 66.8217 44.2932 66.4435 44.2932 65.9769C44.2932 65.5103 43.915 65.1321 43.4484 65.1321C42.9818 65.1321 42.6035 65.5103 42.6035 65.9769C42.6035 66.4435 42.9818 66.8217 43.4484 66.8217Z" fill="black"/>
<path d="M51.8966 66.8217C52.3631 66.8217 52.7413 66.4435 52.7413 65.9769C52.7413 65.5103 52.3631 65.1321 51.8966 65.1321C51.43 65.1321 51.0518 65.5103 51.0518 65.9769C51.0518 66.4435 51.43 66.8217 51.8966 66.8217Z" fill="black"/>
<path d="M54.7125 66.8217C55.1791 66.8217 55.5573 66.4435 55.5573 65.9769C55.5573 65.5103 55.1791 65.1321 54.7125 65.1321C54.2459 65.1321 53.8677 65.5103 53.8677 65.9769C53.8677 66.4435 54.2459 66.8217 54.7125 66.8217Z" fill="black"/>
<path d="M57.5289 66.8217C57.9955 66.8217 58.3737 66.4435 58.3737 65.9769C58.3737 65.5103 57.9955 65.1321 57.5289 65.1321C57.0623 65.1321 56.6841 65.5103 56.6841 65.9769C56.6841 66.4435 57.0623 66.8217 57.5289 66.8217Z" fill="black"/>
<path d="M63.1612 66.8217C63.6278 66.8217 64.006 66.4435 64.006 65.9769C64.006 65.5103 63.6278 65.1321 63.1612 65.1321C62.6946 65.1321 62.3164 65.5103 62.3164 65.9769C62.3164 66.4435 62.6946 66.8217 63.1612 66.8217Z" fill="black"/>
<path d="M65.9771 66.8217C66.4437 66.8217 66.822 66.4435 66.822 65.9769C66.822 65.5103 66.4437 65.1321 65.9771 65.1321C65.5106 65.1321 65.1323 65.5103 65.1323 65.9769C65.1323 66.4435 65.5106 66.8217 65.9771 66.8217Z" fill="black"/>
<path d="M68.7931 66.8217C69.2597 66.8217 69.6379 66.4435 69.6379 65.9769C69.6379 65.5103 69.2597 65.1321 68.7931 65.1321C68.3265 65.1321 67.9482 65.5103 67.9482 65.9769C67.9482 66.4435 68.3265 66.8217 68.7931 66.8217Z" fill="black"/>
<path d="M23.7359 69.6377C24.2025 69.6377 24.5808 69.2594 24.5808 68.7928C24.5808 68.3262 24.2025 67.948 23.7359 67.948C23.2694 67.948 22.8911 68.3262 22.8911 68.7928C22.8911 69.2594 23.2694 69.6377 23.7359 69.6377Z" fill="black"/>
<path d="M32.1842 69.6377C32.6508 69.6377 33.029 69.2594 33.029 68.7928C33.029 68.3262 32.6508 67.948 32.1842 67.948C31.7176 67.948 31.3394 68.3262 31.3394 68.7928C31.3394 69.2594 31.7176 69.6377 32.1842 69.6377Z" fill="black"/>
<path d="M35.0001 69.6377C35.4667 69.6377 35.8449 69.2594 35.8449 68.7928C35.8449 68.3262 35.4667 67.948 35.0001 67.948C34.5335 67.948 34.1553 68.3262 34.1553 68.7928C34.1553 69.2594 34.5335 69.6377 35.0001 69.6377Z" fill="black"/>
<path d="M37.816 69.6377C38.2826 69.6377 38.6609 69.2594 38.6609 68.7928C38.6609 68.3262 38.2826 67.948 37.816 67.948C37.3494 67.948 36.9712 68.3262 36.9712 68.7928C36.9712 69.2594 37.3494 69.6377 37.816 69.6377Z" fill="black"/>
<path d="M46.2643 69.6377C46.7308 69.6377 47.1091 69.2594 47.1091 68.7928C47.1091 68.3262 46.7308 67.948 46.2643 67.948C45.7977 67.948 45.4194 68.3262 45.4194 68.7928C45.4194 69.2594 45.7977 69.6377 46.2643 69.6377Z" fill="black"/>
<path d="M60.3448 69.6377C60.8114 69.6377 61.1897 69.2594 61.1897 68.7928C61.1897 68.3262 60.8114 67.948 60.3448 67.948C59.8782 67.948 59.5 68.3262 59.5 68.7928C59.5 69.2594 59.8782 69.6377 60.3448 69.6377Z" fill="black"/>
<path d="M68.7931 69.6377C69.2597 69.6377 69.6379 69.2594 69.6379 68.7928C69.6379 68.3262 69.2597 67.948 68.7931 67.948C68.3265 67.948 67.9482 68.3262 67.9482 68.7928C67.9482 69.2594 68.3265 69.6377 68.7931 69.6377Z" fill="black"/>
<path d="M9.65525 -0.00805664C4.31873 -0.00805664 -0.0078125 4.31848 -0.0078125 9.655C-0.0078125 14.9915 4.31873 19.3181 9.65525 19.3181C14.9918 19.3181 19.3183 14.9915 19.3183 9.655C19.3183 4.31848 14.9918 -0.00805664 9.65525 -0.00805664ZM9.65525 16.4191C5.9255 16.4191 2.8911 13.3847 2.8911 9.655C2.8911 5.92525 5.9255 2.89086 9.65525 2.89086C13.385 2.89086 16.4194 5.92525 16.4194 9.655C16.4194 13.3847 13.385 16.4191 9.65525 16.4191Z" fill="black"/>
<path d="M60.3447 -0.00805664C55.0082 -0.00805664 50.6816 4.31848 50.6816 9.655C50.6816 14.9915 55.0082 19.3181 60.3447 19.3181C65.6812 19.3181 70.0078 14.9915 70.0078 9.655C70.0078 4.31848 65.6812 -0.00805664 60.3447 -0.00805664ZM60.3447 16.4191C56.615 16.4191 53.5806 13.3847 53.5806 9.655C53.5806 5.92525 56.615 2.89086 60.3447 2.89086C64.0745 2.89086 67.1089 5.92525 67.1089 9.655C67.1089 13.3847 64.0745 16.4191 60.3447 16.4191Z" fill="black"/>
<path d="M9.65525 50.6816C4.31873 50.6816 -0.0078125 55.0082 -0.0078125 60.3447C-0.0078125 65.6812 4.31873 70.0078 9.65525 70.0078C14.9918 70.0078 19.3183 65.6812 19.3183 60.3447C19.3183 55.0082 14.9918 50.6816 9.65525 50.6816ZM9.65525 67.1089C5.9255 67.1089 2.8911 64.0745 2.8911 60.3447C2.8911 56.615 5.9255 53.5806 9.65525 53.5806C13.385 53.5806 16.4194 56.615 16.4194 60.3447C16.4194 64.0745 13.385 67.1089 9.65525 67.1089Z" fill="black"/>
<path d="M9.57246 13.7135C11.8596 13.7135 13.7138 11.8594 13.7138 9.57222C13.7138 7.28503 11.8596 5.43091 9.57246 5.43091C7.28528 5.43091 5.43115 7.28503 5.43115 9.57222C5.43115 11.8594 7.28528 13.7135 9.57246 13.7135Z" fill="black"/>
<path d="M60.2619 13.7135C62.5491 13.7135 64.4033 11.8594 64.4033 9.57222C64.4033 7.28503 62.5491 5.43091 60.2619 5.43091C57.9747 5.43091 56.1206 7.28503 56.1206 9.57222C56.1206 11.8594 57.9747 13.7135 60.2619 13.7135Z" fill="black"/>
<path d="M9.57246 64.4033C11.8596 64.4033 13.7138 62.5491 13.7138 60.2619C13.7138 57.9747 11.8596 56.1206 9.57246 56.1206C7.28528 56.1206 5.43115 57.9747 5.43115 60.2619C5.43115 62.5491 7.28528 64.4033 9.57246 64.4033Z" fill="black"/>
</g>
<defs>
<clipPath id="clip0">
<rect width="70" height="70" fill="white"/>
</clipPath>
</defs>
</svg>
