<svg width="176" height="32" fill="none" xmlns="http://www.w3.org/2000/svg"><path d="M45.524 9.482h-4.488V20.61h1.644v-3.37h2.844c2.992 0 4.8-1.462 4.8-3.878 0-2.416-1.808-3.879-4.8-3.879zm-.05 6.374H42.68v-4.99h2.795c2.104 0 3.205.905 3.205 2.495s-1.101 2.495-3.205 2.495zM58.458 12.184l-3.008 6.739-3.041-6.74h-1.644l3.847 8.409-.28.588c-.427.97-.904 1.303-1.66 1.303a2.27 2.27 0 01-1.562-.62l-.674 1.145c.542.508 1.397.779 2.236.779 1.331 0 2.334-.557 3.107-2.337l4.225-9.266h-1.546zM64.994 20.703c1.55 0 2.838-.63 3.522-1.798l-1.19-.725c-.555.82-1.403 1.198-2.349 1.198-1.696 0-2.968-1.135-2.968-2.948 0-1.782 1.272-2.933 2.968-2.933.946 0 1.794.378 2.349 1.198l1.19-.741c-.684-1.167-1.973-1.782-3.522-1.782-2.659 0-4.567 1.766-4.567 4.258 0 2.491 1.908 4.273 4.567 4.273zM79.48 20.608h1.713L76.007 9.57h-1.615l-5.17 11.038h1.68l1.256-2.76h6.067l1.256 2.76zm-6.751-4.02l2.463-5.41 2.462 5.41H72.73zM89.263 12.25h-6.36v8.358h1.565v-7.033h4.795v-1.324zM95.449 12.172c-1.272 0-2.382.473-3.083 1.403v-1.324h-1.5v11.416h1.566v-4.32c.717.898 1.793 1.356 3.017 1.356 2.528 0 4.37-1.703 4.37-4.273 0-2.555-1.843-4.258-4.37-4.258zm-.13 7.206c-1.648 0-2.904-1.167-2.904-2.948 0-1.766 1.256-2.933 2.903-2.933 1.664 0 2.92 1.167 2.92 2.933 0 1.781-1.256 2.948-2.92 2.948zM105.796 20.703c2.593 0 4.485-1.782 4.485-4.273 0-2.492-1.892-4.258-4.485-4.258-2.593 0-4.501 1.766-4.501 4.258 0 2.491 1.908 4.273 4.501 4.273zm0-1.325c-1.663 0-2.919-1.167-2.919-2.948 0-1.782 1.256-2.933 2.919-2.933 1.664 0 2.903 1.15 2.903 2.933 0 1.781-1.239 2.948-2.903 2.948zM124.953 20.608l-.016-11.038h-1.338l-4.697 7.758-4.762-7.758h-1.337v11.038h1.566v-7.994l4.126 6.654h.75l4.126-6.702.016 8.042h1.566zM131.328 12.172c-1.386 0-2.675.378-3.572 1.072l.653 1.136c.668-.552 1.712-.9 2.74-.9 1.549 0 2.315.742 2.315 2.02v.299h-2.478c-2.577 0-3.474 1.104-3.474 2.444 0 1.45 1.239 2.46 3.196 2.46 1.354 0 2.316-.442 2.838-1.199v1.104h1.484v-5.046c0-2.286-1.337-3.39-3.702-3.39zm-.359 7.364c-1.19 0-1.908-.52-1.908-1.356 0-.71.44-1.293 1.99-1.293h2.413v1.167c-.391.962-1.321 1.482-2.495 1.482zM142.432 12.172c-1.272 0-2.381.473-3.082 1.403v-1.324h-1.501v11.416h1.566v-4.32c.718.898 1.794 1.356 3.017 1.356 2.528 0 4.371-1.703 4.371-4.273 0-2.555-1.843-4.258-4.371-4.258zm-.13 7.206c-1.647 0-2.903-1.167-2.903-2.948 0-1.766 1.256-2.933 2.903-2.933 1.663 0 2.919 1.167 2.919 2.933 0 1.781-1.256 2.948-2.919 2.948zM154.69 20.608h1.858l-3.535-4.371 3.305-4.053h-1.694l-2.827 3.56h-1.841v-3.56h-1.579v8.424h1.579v-3.56h1.808l2.926 3.56zM165.651 16.445c0-2.591-1.792-4.34-4.307-4.34-2.516 0-4.373 1.796-4.373 4.292 0 2.511 1.874 4.307 4.685 4.307 1.447 0 2.647-.476 3.436-1.367l-.872-.985c-.641.683-1.496 1.017-2.515 1.017-1.726 0-2.959-.985-3.156-2.463h7.069a4.8 4.8 0 00.033-.461zm-4.307-3.052c1.528 0 2.63 1.001 2.794 2.416h-5.589c.164-1.43 1.282-2.416 2.795-2.416zM174.076 12.184h-7.956v1.335h3.189v7.089h1.578v-7.09h3.189v-1.334z" fill="white"/><path fill-rule="evenodd" clip-rule="evenodd" d="M24.757 30.419h-.159c-.264 0-.58-.052-.844-.102H23.7c-.159-.052-.37-.052-.58-.103h-.106a6.32 6.32 0 01-.95-.204h-.053c-.106-.05-.264-.05-.37-.102h-.053l-.263-.05v-.052h-.106c-.106-.05-.211-.05-.317-.102h-.053c-.316-.102-.58-.204-.897-.306l-.211-.051v-.051h-.106l-.21-.102h.105l-.159-.051v-.051h-.052l-.212-.102-.158-.103h-.053a2.502 2.502 0 01-.527-.255c-.159-.102-.317-.153-.476-.255v-.051h-.052c-.106-.051-.211-.153-.264-.204a6.587 6.587 0 00-.898-.613c-.264-.153-.422-.51-.316-.663 0-.051.052-.051.105-.102.053 0 .106-.051.159-.051 11.349 0 10.24-9.595 9.184-13.984a.28.28 0 01.264-.357c.106 0 .211.05.264.153l4.91 8.319c.158.255.316.51.422.765v.051l.105.153v.051l.106.204c.053.154.158.307.21.46.054.102.054.153.106.255v.051c.053.102.053.153.106.255v.051c.053.102.053.204.105.306.053.154.053.307.106.409v.05c.159.766.211 1.48.106 2.144v.102c-.053.256-.106.51-.212.766v.051c0 .051-.052.102-.052.153l-.053.102c-.053.051-.053.102-.106.204v.051c-.052.052-.052.103-.105.154v.05c-.053.052-.053.103-.106.154v.05a2.27 2.27 0 01-.422.562l-.106.102-.052.051h-.053l-.37.358h-.052v.05l-.106.103c-.106.102-.264.204-.37.306-.105.05-.21.153-.316.204-.053.051-.106.051-.159.102h-.052c-.053.051-.106.051-.159.102h-.053c-.052.051-.105.051-.158.102h-.053c-.053.051-.105.051-.21.102l-.106.051-.159-.05-.21.101s-.687.205-1.848.307h-.053c-.317.05-.686.05-1.109.05-.316-.05-.686-.05-1.055-.05z" fill="url(#paint0_linear)"/><path d="M14.78 26.642c1.003.765 2.164 1.429 3.43 2.041h.054c.052 0 .052.051.105.051.58.306 1.162.51 1.69.714.158.052.369.154.527.205h.053l.475.153h.053l.475.153h.053c.158.051.316.102.475.102h.053c.158.051.316.051.475.102.158.051.316.051.475.102.897.153 1.742.255 2.428.255h.317c1.847.051 3.008-.306 3.008-.306l.212-.05.158-.052c.264-.102.475-.204.739-.306 1.161-.562 2.006-1.43 2.428-2.501v-.051c.053-.102.106-.204.106-.306v-.153c0-.051.052-.102.052-.154 0-.05 0-.101.053-.153v-.05c0-.052 0-.154.053-.205 0-.05 0-.102.053-.204.21-1.94-.634-3.623-.634-3.623-.21-.46-.422-.868-.633-1.328l-1.056-1.837c2.64 14.29-9.29-2.348-15.677 7.4z" fill="#3267A0"/><path fill-rule="evenodd" clip-rule="evenodd" d="M7.548 30.673h-.316c-.634 0-1.214-.102-1.742-.204h-.106c-.158-.051-.264-.051-.422-.102l-.106-.051a9.304 9.304 0 01-1.108-.357c-.053-.051-.106-.051-.211-.102-.053-.051-.106-.051-.159-.102-.053-.052-.105-.052-.158-.102l-.475-.307a3.669 3.669 0 01-.528-.408l-.106-.102-.105-.102-.106-.102-.105-.102-.159-.154c-.052-.05-.105-.153-.158-.204v-.05h-.053c-.053-.103-.105-.154-.158-.256v-.05a1.857 1.857 0 01-.264-.562v-.051H.95c-.106-.306-.211-.613-.264-.919v-.102c-.053-.204-.053-.46-.105-.663v-.715c0-.204.052-.357.052-.561l.053-.153v-.103s.264-1.173 1.161-2.756l.106-.153c.158-.255.317-.51.528-.765.158-.204.317-.46.528-.664.105-.153.264-.306.37-.46.158-.203.316-.356.474-.56l.106-.103.105-.153v-.05c.37-.409.845-.817 1.32-1.226.158-.153.317-.255.475-.408h.053v-.05l.053-.052h.053l.105-.102c.106-.051.158-.153.264-.204h.053v-.051l.105-.051c.106-.102.264-.204.37-.255l.211-.153c.158-.103.264-.154.422-.256.053-.05.106-.05.159-.102.052-.05.158-.05.21-.102.318-.153.581-.255.95-.408.054-.051.107-.051.107-.051h.052c.053 0 .159-.051.211-.051.212 0 .37.102.423.255 0 .051 0 .102-.053.204-5.437 9.646 3.325 13.474 7.812 14.8.211.052.264.307.211.46a.292.292 0 01-.264.153l-9.554.051-.264-.05z" fill="url(#paint1_linear)"/><path fill-rule="evenodd" clip-rule="evenodd" d="M10.557 5.308c.105-.204.211-.357.317-.51.21-.306.37-.613.58-.868.159-.153.317-.357.423-.51l.052-.102c.423-.408.845-.766 1.267-1.072.422-.306.845-.51 1.32-.663.105-.051.211-.051.317-.102.105-.052.264-.052.37-.103.316-.05.633-.102.95-.102.21 0 .422 0 .633.051v.051h.316c.053 0 .106.051.212.051v.052h.21c.16.05.317.102.476.153v.05h.105l.106.052v.05h.106l.105.052v.05h.053l.105.052v.05h.106l.106.052v.051h.052l.159.051c.105.051.21.102.316.204h.053l.159.102.21.153s.634.51 1.373 1.48c.211.256.37.51.58.817.106.153.212.357.318.561.21.409.475.817.686 1.327v.051l.105.205c.159.306.264.612.423.97.052.101.052.203.105.254v.051c.053.102.053.205.106.256v.05l.105.307c.053.102.053.204.106.357v.051c.105.357.211.715.264 1.123v.153h.053c.052.102.052.255.052.357v.153h.053c.053.154.053.307.053.46v.05c.053.154.053.307.053.511V13.066c0 .306-.053.663-.053 1.02 0 .46-.37.868-.634.51-6.123-9.084-13.46-3.52-16.838-.254-.264.306-.74-.051-.58-.409l4.275-8.165c.105-.205.158-.358.211-.46z" fill="url(#paint2_linear)"/><path d="M10.716 13.73c-1.162.51-2.323 1.173-3.484 1.939h-.053c-.053 0-.053.05-.053.05-.528.358-1.003.715-1.478 1.124-.158.102-.264.255-.422.357l-.053.051c-.158.102-.264.255-.37.357l-.052.051c-.106.102-.264.204-.37.358l-.052.05a2.244 2.244 0 00-.317.358l-.053.05a2.244 2.244 0 00-.317.358c-.105.102-.21.255-.316.357A24.163 24.163 0 001.9 21.13a1.108 1.108 0 01-.158.255C.792 22.967.581 24.141.581 24.141l-.053.255-.053.153c-.053.256-.053.51-.053.766-.052 1.276.317 2.398 1.056 3.317l.053.051c.053.102.158.153.211.255l.053.052.053.05.052.052.106.102c.211-.102.264-.102.264-.051l.053.05c.053.052.105.103.158.103.106.05.158.102.158.153 1.637 1.123 3.537 1.225 3.537 1.225.475.05 1.003.102 1.53.102h2.112c-14.146-4.645 6.493-6.84.898-17.046z" fill="#BA343C"/><path d="M24.44 15.924a16.457 16.457 0 00-.159-3.93v-.051-.102c-.105-.613-.21-1.225-.316-1.786-.053-.205-.106-.358-.159-.562v-.05c-.052-.154-.105-.358-.158-.511V8.88l-.158-.46v-.05l-.159-.46V7.86a3.444 3.444 0 00-.158-.408 3.444 3.444 0 00-.158-.409c-.37-.867-.74-1.582-1.109-2.143a1.106 1.106 0 00-.158-.255c-1.003-1.531-1.953-2.297-1.953-2.297l-.211-.153-.159-.102c-.21-.153-.422-.306-.686-.408-1.108-.664-2.323-.868-3.484-.613h-.053c-.105.051-.21.051-.316.102-.053 0-.053 0-.053.051 0 0-.053 0-.053.051h-.053c-.053 0-.105.051-.158.051-.053 0-.106.051-.158.051 0 0-.053 0-.053.051a2250 2250 0 01-.159.154c-.052.05-.105.05-.158.102-1.742.918-2.745 2.551-2.745 2.551-.264.409-.528.817-.792 1.276L9.501 7.3C20.217-2.91 12.67 16.026 24.44 15.924z" fill="#CDCECF"/><defs><linearGradient id="paint0_linear" x1="16.333" y1="21.398" x2="32.654" y2="21.398" gradientUnits="userSpaceOnUse"><stop offset=".038" stop-color="#002D3A"/><stop offset=".136" stop-color="#0D3B51"/><stop offset=".218" stop-color="#12425C"/><stop offset=".511" stop-color="#1A4D72"/><stop offset=".823" stop-color="#1E5786"/><stop offset="1" stop-color="#235794"/></linearGradient><linearGradient id="paint1_linear" x1=".534" y1="22.741" x2="17.618" y2="22.741" gradientUnits="userSpaceOnUse"><stop offset=".017" stop-color="#192C37"/><stop offset=".057" stop-color="#44323B"/><stop offset=".365" stop-color="#943539"/><stop offset=".724" stop-color="#BE2B34"/><stop offset="1" stop-color="#C82432"/></linearGradient><linearGradient id="paint2_linear" x1="6.03" y1="7.979" x2="24.154" y2="7.979" gradientUnits="userSpaceOnUse"><stop stop-color="#B9BBBC"/><stop offset=".349" stop-color="#959797"/><stop offset=".502" stop-color="#7D7F7F"/><stop offset=".625" stop-color="#616363"/><stop offset=".667" stop-color="#575A5A"/><stop offset=".732" stop-color="#505454"/><stop offset=".881" stop-color="#4F5352"/><stop offset="1" stop-color="#4E5252"/></linearGradient></defs></svg>