<svg width="32" height="32" fill="none" xmlns="http://www.w3.org/2000/svg"><path d="M24.914 9.143l-.838-.077c.076-1.142.229-2.285.61-3.352l.228-.762.838.229-.228.762c-.305 1.066-.534 2.133-.61 3.2zM24.305 28.42h-.457c-3.353-.23-6.02-2.896-6.248-6.172v-.381h.838v.304c.229 2.896 2.59 5.258 5.486 5.41 1.676.076 3.2-.457 4.419-1.6 1.219-1.143 1.828-2.667 1.828-4.267 0-1.447-.533-2.895-1.523-3.962-.915-.99-1.372-2.285-1.22-3.657v-.457a3.087 3.087 0 00-2.361-2.819l.076-.838c1.676.38 2.971 1.829 3.047 3.58v.534a4.064 4.064 0 001.067 3.048c1.143 1.219 1.752 2.895 1.752 4.571 0 1.829-.761 3.657-2.133 4.877-1.295 1.218-2.895 1.828-4.571 1.828zM16.076 20.038l-.838-.229a8.303 8.303 0 011.753-2.971c.99-1.067 1.447-2.514 1.37-3.962v-.305c0-1.828.991-3.504 2.668-4.342l.38.761a3.973 3.973 0 00-2.209 3.581v.305c.152 1.753-.457 3.353-1.6 4.572-.686.685-1.219 1.6-1.524 2.59z" fill="#2051A3"/><path d="M28.648 9.448c-.915 0-1.753-.381-2.439-.99l-.38-.382c-.762-.762-1.143-1.905-.99-3.047l.075-.305.305-.076c1.067-.153 2.21.152 3.048.99l.38.381c.763.762 1.144 1.905.991 3.048l-.076.304-.305.077h-.61zm-2.972-3.962c0 .762.229 1.447.762 1.98l.381.382c.533.533 1.22.762 1.981.762 0-.762-.229-1.448-.762-1.981l-.38-.381c-.534-.534-1.22-.762-1.982-.762zM16.457 22.705c-2.438 0-4.876-.914-6.705-2.743C8 18.21 7.01 15.772 7.01 13.257c0-2.514.99-4.876 2.819-6.705 3.657-3.657 9.676-3.657 13.333 0 3.657 3.658 3.657 9.677 0 13.334-1.829 1.905-4.267 2.819-6.705 2.819zm0-18.057c-2.21 0-4.419.838-6.095 2.514a8.652 8.652 0 00-2.514 6.095c0 2.286.914 4.495 2.514 6.095 3.352 3.353 8.838 3.353 12.19 0a8.652 8.652 0 002.515-6.095 8.652 8.652 0 00-2.515-6.095 8.594 8.594 0 00-6.095-2.514z" fill="#2051A3"/><path d="M16.457 20.343c-1.905 0-3.657-.762-5.028-2.057-1.372-1.372-2.058-3.124-2.058-5.029 0-1.905.762-3.657 2.058-5.028 2.742-2.743 7.314-2.743 10.057 0 1.371 1.371 2.133 3.123 2.133 5.028 0 1.905-.762 3.657-2.057 5.029-1.372 1.371-3.2 2.057-5.105 2.057zm0-13.334c-1.6 0-3.2.61-4.419 1.83a6.254 6.254 0 000 8.837c1.22 1.22 2.743 1.829 4.42 1.829a6.287 6.287 0 004.418-1.829 6.254 6.254 0 000-8.838C19.733 7.62 18.057 7.01 16.457 7.01z" fill="#2051A3"/><path d="M16.99 8.99h-.914L16 8.152h1.143l-.152.838zM12.724 11.124l-.762-.457c.229-.381.533-.762.838-1.067.533-.533 1.143-.914 1.829-1.22l.304.763c-.61.228-1.143.533-1.524.99a11.13 11.13 0 01-.685.99zM3.962 28.952c-.533 0-.99-.228-1.295-.533L1.37 27.124c-.761-.762-.761-1.905 0-2.667l5.639-5.638 3.961 3.962-5.638 5.638c-.38.38-.914.533-1.371.533zm2.971-8.914l-5.028 5.029c-.381.38-.381 1.066 0 1.447L3.2 27.81c.381.381 1.067.381 1.448 0l5.028-5.028-2.743-2.743z" fill="#2051A3"/><path d="M9.295 22.4L7.39 20.419l1.753-1.829.61.61-1.22 1.219.762.762 1.22-1.22.609.61L9.295 22.4z" fill="#2051A3"/></svg>