<svg width="32" height="32" fill="none" xmlns="http://www.w3.org/2000/svg"><path d="M6.019 26.895H4.952c-1.219 0-1.371-.762-1.371-1.067V24.61h3.733v1.22c.076.38-.076 1.066-1.295 1.066zm-1.524-1.447v.38c0 .077 0 .229.534.229h.99c.533 0 .533-.152.533-.229v-.38H4.495zM27.048 26.895h-.99c-1.22 0-1.372-.762-1.372-1.067V24.61h3.733v1.22c0 .38-.152 1.066-1.371 1.066zm-1.524-1.447v.38c0 .077 0 .229.533.229h.99c.534 0 .534-.152.534-.229v-.38h-2.057zM30.095 19.2H1.905v.838h28.19V19.2z" fill="#2051A3"/><path d="M30.476 25.448H1.524V7.466c0-1.6 1.295-2.896 2.895-2.896h23.162c1.6 0 2.895 1.296 2.895 2.896v17.98zm-28.114-.839h27.352V7.467a2.049 2.049 0 00-2.057-2.058H4.42a2.049 2.049 0 00-2.057 2.058v17.142z" fill="#2051A3"/><path d="M27.505 10.133h-.838v5.486h.838v-5.486zM5.486 21.181H3.81v.838h1.676v-.838zM8.381 21.181H6.705v.838H8.38v-.838zM11.2 21.181H9.524v.838H11.2v-.838z" fill="#2051A3"/><path d="M8.381 21.181H6.705v.838H8.38v-.838zM11.2 21.181H9.524v.838H11.2v-.838zM14.095 21.181H12.42v.838h1.676v-.838zM5.486 22.628H3.81v.838h1.676v-.838zM8.381 22.628H6.705v.838H8.38v-.838zM11.2 22.628H9.524v.838H11.2v-.838z" fill="#2051A3"/><path d="M8.381 22.628H6.705v.838H8.38v-.838zM11.2 22.628H9.524v.838H11.2v-.838zM14.095 22.628H12.42v.838h1.676v-.838zM16.305 8.762h-.838v6.933h.838V8.762z" fill="#2051A3"/><path d="M15.924 9.448l-1.22-1.6.686-.534.534.686.533-.686.61.534-1.143 1.6zM15.467 17.219l-.762-.457 1.219-1.905 1.219 1.905-.762.457-.457-.762-.457.762zM18.587 10.226l-6.005 3.465.419.726 6.005-3.465-.42-.726z" fill="#2051A3"/><path d="M12.648 15.543l-.762-.305.305-.838-.839-.076.076-.838 2.058.228-.838 1.829zM20.42 11.048l-2.287-.076L19.2 8.99l.762.38-.457.839h.914v.838zM13.264 10.238l-.42.725 6.005 3.467.419-.726-6.004-3.466z" fill="#2051A3"/><path d="M19.2 15.543l-.838-1.829 2.057-.228.076.838-.838.076.305.838-.762.305zM11.429 11.048v-.838h.914l-.457-.838.762-.381 1.066 1.98-2.285.077z" fill="#2051A3"/></svg>