<svg width="28" height="28" fill="none" xmlns="http://www.w3.org/2000/svg"><path fill-rule="evenodd" clip-rule="evenodd" d="M3.636 2.336a.605.605 0 00-.215.242c-.033.08-.37 1.291-.75 2.691s-.748 2.692-.818 2.87c-.34.867-.137 1.775.538 2.419a2.21 2.21 0 001.201.606l.328.057v4.459h-.333c-.199 0-.394.031-.483.077-.317.164-.304-.044-.304 4.683 0 4.727-.013 4.519.304 4.683.132.068 1.39.077 10.896.077 9.507 0 10.764-.009 10.896-.077.318-.164.304.044.304-4.683 0-4.727.014-4.519-.304-4.683-.089-.046-.284-.077-.483-.077h-.333v-4.465l.332-.055a2.17 2.17 0 001.198-.603 2.173 2.173 0 00.535-2.421c-.069-.177-.436-1.467-.816-2.867-.38-1.4-.717-2.611-.75-2.691a.605.605 0 00-.215-.242c-.152-.093-.467-.096-10.364-.096s-10.212.003-10.364.096zm20.695 3.497c.37 1.36.718 2.569.77 2.686.17.373.084.908-.196 1.224-.142.16-.576.336-.825.336-.25 0-.683-.177-.824-.336-.12-.134-.293-.53-.295-.669 0-.111-.014-.114-.56-.114-.547 0-.561.003-.562.114-.001.14-.176.535-.294.669-.142.16-.576.336-.825.336-.25 0-.683-.177-.824-.336-.12-.134-.293-.53-.295-.669 0-.111-.014-.114-.56-.114-.547 0-.561.003-.562.114-.001.14-.176.535-.294.669-.143.16-.575.336-.825.335-.236 0-.61-.141-.783-.294-.143-.127-.336-.57-.337-.773-.001-.41-.365-.683-.742-.559-.218.072-.377.307-.378.559-.001.204-.193.646-.337.773-.172.153-.547.294-.783.294-.235 0-.61-.14-.783-.294-.143-.127-.336-.57-.337-.773 0-.252-.16-.487-.378-.559-.377-.124-.74.15-.742.559-.001.204-.194.646-.337.773-.172.153-.547.294-.783.294-.235 0-.61-.14-.783-.294-.143-.127-.336-.57-.337-.773 0-.252-.16-.487-.378-.559-.376-.124-.74.15-.743.559-.001.192-.155.575-.294.732-.142.16-.575.336-.825.336s-.683-.177-.824-.336c-.12-.134-.293-.53-.295-.669 0-.111-.014-.114-.56-.114-.547 0-.561.003-.562.114-.001.14-.176.535-.294.669-.142.16-.575.336-.825.336s-.683-.177-.824-.336c-.28-.316-.367-.851-.197-1.224.053-.117.4-1.325.77-2.686l.674-2.473h19.314l.674 2.473zM5.846 10.634c.882.735 1.987.733 2.871-.005l.241-.2.243.202c.887.738 1.99.737 2.876-.002l.241-.2.243.202c.887.738 1.99.737 2.876-.002l.241-.2.243.202c.887.738 1.99.737 2.876-.002l.241-.2.243.202c.886.737 1.99.737 2.874 0l.239-.199.283.218.283.219v4.811H5.04v-4.811l.268-.213c.146-.116.274-.214.283-.216.009-.002.123.085.255.194zM24.08 20.44v3.64H3.92V16.8h20.16v3.64z" fill="#2051A3"/></svg>