<svg width="24" height="24" fill="none" xmlns="http://www.w3.org/2000/svg"><path d="M9.707 2.293L8.293 3.707 11 6.414v3.781L7.793 8.19l-.857-3.73-1.95.45.729 3.16-3.16.728.449 1.95 3.728-.86L10.113 12l-3.38 2.113-3.73-.86-.448 1.95 3.16.729-.729 3.16 1.95.449.857-3.73L11 13.806v3.779l-2.707 2.707 1.414 1.414L12 19.414l2.293 2.293 1.414-1.414L13 17.586v-3.78l3.207 2.005.857 3.73 1.95-.45-.729-3.16 3.16-.728-.449-1.95-3.728.86L13.887 12l3.38-2.113 3.73.86.448-1.95-3.16-.729.729-3.16-1.95-.449-.857 3.73L13 10.195v-3.78l2.707-2.708-1.414-1.414L12 4.586 9.707 2.293z" fill="#2051A3"/></svg>