<svg width="18" height="18" fill="none" xmlns="http://www.w3.org/2000/svg"><path fill-rule="evenodd" clip-rule="evenodd" d="M5.82.14c-.114.076-.963.668-1.887 1.315-1.1.77-1.696 1.208-1.727 1.266-.072.14-.069 6.664.003 6.803.087.168.137.178.96.196l.763.016-.845.592c-.465.325-.863.627-.886.671-.032.062-.039.813-.033 3.441l.008 3.362.091.09.09.092 4.976.008c4.317.008 4.986.002 5.063-.04.16-.086 3.36-2.78 3.402-2.865.032-.063.041-.798.041-3.299.001-3.484.008-3.348-.171-3.45-.051-.029-.3-.047-.815-.058l-.74-.016.822-.688c.452-.378.84-.724.863-.769.032-.064.041-.79.041-3.299.001-3.532.011-3.352-.194-3.458C15.56.006 14.979 0 10.788 0H6.027L5.82.14zm8.546.627c-.026.025-.541.43-1.144.899l-1.097.853H7.89l-4.235.001 1.287-.9 1.286-.9h4.093c3.54 0 4.087.006 4.045.047zm.754 3.038v2.693l-1.217 1.014a93.686 93.686 0 01-1.26 1.04c-.036.021-.043-.452-.043-2.737V3.053l1.247-.97c.686-.534 1.253-.97 1.26-.97.007 0 .013 1.211.013 2.692zM11.88 6.12V9h-9V3.24h9v2.88zm2.486 2.927c-.026.025-.541.43-1.144.899l-1.097.853H7.89l-4.234.001.771-.54.772-.54h3.55c1.953 0 3.577-.01 3.608-.022.031-.012.24-.174.465-.36L13.229 9h.593c.513 0 .586.006.544.047zm.754 3.038v2.692l-1.216 1.014a87.276 87.276 0 01-1.26 1.04c-.037.023-.044-.432-.044-2.736v-2.763l1.247-.97c.686-.533 1.253-.97 1.26-.97.007 0 .013 1.212.013 2.693zM11.88 14.4v2.88h-9v-5.76h9v2.88z" fill="#2051A3"/></svg>